<svg xmlns="http://www.w3.org/2000/svg" viewBox="0 0 127.6 127.6" style="enable-background:new 0 0 127.6 127.6" xml:space="preserve"><path d="M122.2 64.6c-5.3.5-20.6.9-27-3.2-2.4-1.6-4.5-3.7-6.6-5.9-2.9-2.9-6.1-6.3-10.9-8.6v-.5c-.9-2.3-3.1-2.7-4.8-2.5 3.4-2.7 5.7-6.9 5.7-11.6 0-8.2-6.6-14.8-14.8-14.8S49 24.1 49 32.3c0 4.7 2.2 8.9 5.7 11.6-1.6-.1-3.8.3-4.7 2.6v.4c-4.8 2.4-8.1 5.7-10.9 8.7-2.1 2.2-4.2 4.3-6.6 5.9-6.4 4.1-21.7 3.7-27 3.2-2.7-.3-5.1 1.8-5.4 4.5-.3 2.7 1.7 5.1 4.5 5.4.8.1 4.1.3 8.3.3 7.5 0 18.3-.8 24.9-5.1 2.9-1.9 5.2-4 7.3-6.2-1.4 11.4-5.7 28.8-20.3 32.6-.4.1-.8.5-.8.9-.1.4.2.9.5 1.1.5.3 8.5 4.8 19.7 6.3l-.4 5.6h40l-.4-5.9c9.9-1.7 16.9-5.6 17.3-5.9.4-.2.6-.7.5-1.1-.1-.4-.4-.8-.8-.9-13.2-3.4-18-17.9-19.8-29.1l-.4-6c.4.4.8.9 1.3 1.3 2.4 2.5 5 5.2 8.4 7.3 6.7 4.2 17.4 5.1 24.9 5.1 4.2 0 7.5-.3 8.3-.3 2.7-.3 4.7-2.7 4.5-5.4-.3-2.8-2.7-4.8-5.4-4.6zM76.6 46.7c0 .2-.1.8-.3 1.3-.1.1-.7.3-3.6-.3-.1 0-.2-.1-.3-.2-.3-.5-.2-1.6 0-2.4.9-.2 3.3-.5 4.2 1.6zm-21.4-1.6c.2.8.3 1.9 0 2.4-.1.1-.2.2-.3.2-2.9.7-3.5.4-3.5.4-.2-.6-.3-1.1-.3-1.3.9-2.2 3.2-1.9 4.1-1.7zM27.9 97.5C41.5 92.2 45.8 76 47.2 64.7l-2.8 37.6c-7.3-1-13.3-3.4-16.5-4.8zm69.3 0c-2.8 1.3-7.8 3.3-14 4.4L81.6 80c2.8 7.5 7.6 14.4 15.6 17.5z" style="fill:#009ca6"/></svg>