<svg version="1.1" id="Capa_1" xmlns="http://www.w3.org/2000/svg" x="0" y="0" viewBox="0 0 150 150" style="enable-background:new 0 0 150 150" xml:space="preserve"><style>.st3{enable-background:new}.st4{fill:#d2010d}</style><g id="Capa_1-2"><circle cx="75" cy="62.9" r="59.1" style="fill:#d2151a"/><circle cx="75" cy="62.9" r="62.3" style="fill:none;stroke:#d2151a;stroke-width:.87;stroke-miterlimit:10"/><radialGradient id="SVGID_1_" cx="51.474" cy="145.328" r="118.341" gradientTransform="matrix(1 0 0 -1 0 152.84)" gradientUnits="userSpaceOnUse"><stop offset="0" style="stop-color:#fff"/><stop offset="1" style="stop-color:#f9f9f9;stop-opacity:0"/></radialGradient><circle cx="75" cy="62.9" r="59" style="opacity:.69;fill:url(#SVGID_1_);enable-background:new"/><g class="st3"><path class="st4" d="M9.2 113.2c-.3-1.2-.3-2.3.1-3.4s1-2 1.9-2.8c1-.9 2-1.4 3.2-1.6s2.3-.1 3.4.4c1.2.4 2.2 1.2 3.2 2.2 1 1.1 1.7 2.1 2.1 3.1l-1.9 1.4c-.2-.4-.4-.9-.7-1.4-.3-.5-.7-1-1.1-1.5-.6-.6-1.2-1.1-1.9-1.4-.7-.3-1.4-.4-2.1-.2-.7.1-1.4.5-2.1 1.1-1 .9-1.5 1.9-1.5 3s.4 2.2 1.3 3.2c.4.4.8.8 1.3 1.2.5.4.9.7 1.3 1l-1.5 1.7c-.4-.2-.9-.6-1.4-1-.5-.4-1-.9-1.5-1.4-1.1-1.2-1.8-2.4-2.1-3.6z"/></g><g class="st3"><path class="st4" d="m24.8 111.5 2.6 1.3-9.2 10.3-2.1-1.9 8.7-9.7z"/></g><g class="st3"><path class="st4" d="M21.7 125.8c-.3-.6-.4-1.2-.4-1.8 0-.6.2-1.2.6-1.7.6-.8 1.2-1.2 2.1-1.2.8 0 1.9.5 3.1 1.4l.6.4 1.2.9.3-.4c.3-.4.4-.8.2-1.2-.2-.4-.6-.8-1.2-1.3-.8-.6-1.7-1.1-2.7-1.5l1.1-1.8c.5.2 1.1.5 1.8.8.7.4 1.3.7 1.8 1.1 1.1.8 1.9 1.7 2.1 2.6.3.9.1 1.8-.6 2.8l-2.6 3.7c-.5.7-.9 1.3-1.1 1.6l-2-1.4.4-.8c-1.1.2-2.1-.1-3.1-.8-.8-.3-1.3-.8-1.6-1.4zm4.6.8c.5 0 .8-.2 1.1-.5l.5-.7-2-1.4c-.3-.2-.6-.3-.9-.3-.3 0-.5.1-.7.4-.2.3-.3.7-.2 1.1s.4.7.8 1c.4.2.9.4 1.4.4z"/></g><g class="st3"><path class="st4" d="m35.2 123.4 2.1 1.1-.5 1.2c1.4-.2 2.7-.1 4 .5l-1.3 2.2c-.5-.2-1.1-.4-1.7-.6s-1.2-.2-1.8-.2l-3.1 5.7-2.5-1.3 4.8-8.6z"/></g><g class="st3"><path class="st4" d="M39.4 135.4c-.6-1.2-.6-2.5 0-4 .4-1 .9-1.7 1.6-2.3.7-.6 1.5-.9 2.4-1 .9-.1 1.9.1 2.9.5s1.9 1 2.5 1.6c.6.7 1 1.5 1.1 2.3.1.9 0 1.8-.4 2.8s-.9 1.7-1.6 2.3c-.7.6-1.5.9-2.4 1-.9.1-1.9-.1-2.9-.5-1.5-.6-2.6-1.5-3.2-2.7zm6.1.7c.6-.3 1.1-.9 1.5-1.8s.4-1.6.1-2.3c-.3-.7-.8-1.1-1.5-1.4-.7-.3-1.4-.3-2 0-.6.3-1.1.9-1.5 1.8-.3.9-.4 1.6-.1 2.3.3.7.8 1.1 1.5 1.4.7.3 1.4.3 2 0z"/></g><g class="st3"><path class="st4" d="m55.8 146 2.7-3.9-2.6-10.1 3.1.5 1.4 6.5h.1l3.3-5.7 3.1.5-8.7 13.2-2.4-1z"/></g><g class="st3"><path class="st4" d="m70.6 131.4 3.2-.1 4 8.6h.2l3.2-8.8 3.3-.1-5.3 12.9-2.4.1-6.2-12.6z"/></g><g class="st3"><path class="st4" d="M87.4 142.9c-.6-.2-1.1-.5-1.6-.9-.4-.4-.7-1-.8-1.6-.2-.9 0-1.7.6-2.3.6-.6 1.6-1 3.2-1.3l.7-.1c.5-.1 1-.1 1.5-.2v-.5c-.1-.5-.3-.8-.7-1s-1-.2-1.8 0c-1 .2-2 .5-3 .9l-.5-2c.5-.2 1.1-.5 1.8-.7.7-.2 1.4-.4 2-.5 1.4-.2 2.5-.2 3.3.3.8.4 1.4 1.2 1.6 2.4l.8 4.5c.2.9.3 1.5.4 1.9l-2.4.4c-.1-.4-.2-.7-.3-.9-.6.9-1.5 1.4-2.7 1.6-.7.2-1.4.2-2.1 0zm3.8-2.7c.3-.3.4-.7.4-1.1l-.2-.9-2.4.4c-.4.1-.7.2-.9.4s-.3.5-.2.8c.1.4.3.7.6.9.3.2.8.2 1.3.1.6-.1 1.1-.3 1.4-.6z"/></g><g class="st3"><path class="st4" d="m94.3 128.4 2.5-1.4 3.8 13.3-2.7.8-3.6-12.7z"/></g><g class="st3"><path class="st4" d="M99.7 128.3c-.4-.2-.7-.5-.9-.9-.2-.4-.1-.9.1-1.3s.6-.7 1-.9c.5-.2.9-.2 1.4 0 .4.2.7.5.9.9.2.5.1.9-.1 1.3s-.6.7-1 .9c-.5.2-1 .2-1.4 0zm.5 1.7 2.6-.9 3.3 9.3-2.6.9-3.3-9.3z"/></g><g class="st3"><path class="st4" d="M109.6 135.8c-1.2-.4-2.2-1.3-2.9-2.8-.4-.9-.6-1.8-.6-2.6 0-.9.3-1.7.9-2.4.5-.7 1.3-1.4 2.3-1.8 1.4-.7 2.7-.8 3.7-.3 1.1.5 1.9 1.3 2.5 2.5.2.4.4.9.5 1.3l-6.2 3c.3.5.8.9 1.4.9.6.1 1.4-.1 2.2-.5 1-.5 1.9-1.1 2.5-1.7l1.1 1.8c-.7.7-1.6 1.4-2.9 2-1.8.8-3.3 1-4.5.6zm3.1-6.7c-.1-.1-.1-.2-.2-.3-.3-.5-.7-.8-1.1-1-.4-.2-.9-.1-1.4.1-.6.3-1 .7-1.2 1.2-.2.5-.1 1.1.2 1.7l3.7-1.7z"/></g><g class="st3"><path class="st4" d="m114.9 123.5 2-1.4.6.6c.2-.5.5-1.1.9-1.6s.8-.9 1.3-1.2c1-.7 1.9-.9 2.8-.7.8.2 1.6.8 2.3 1.8l3.5 5.1-2.3 1.6-3.3-4.9c-.2-.3-.4-.6-.6-.7l-.6-.3c-.4 0-.8.1-1.3.4-.3.2-.6.5-.9.8-.3.3-.5.6-.6 1l4 5.9-2.3 1.6-5.5-8z"/></g><g class="st3"><path class="st4" d="M131 123c-.8 0-1.6-.4-2.5-1.4l-5.7-6.5 1.8-2.2 1.8 2 2.7-2.4 1.1 2-2.3 2.1 2.4 2.7c.4.4.8.7 1.1.7.4 0 .7-.1 1.1-.5.6-.5 1-.9 1.3-1.3l1.5 1.5c-.2.3-.4.6-.7.9-.3.3-.6.7-1 1-.9.9-1.8 1.4-2.6 1.4z"/></g><g class="st3"><path class="st4" d="M137 116.8c-1.3.1-2.5-.3-3.8-1.4-.7-.6-1.3-1.4-1.6-2.2-.3-.8-.4-1.7-.2-2.6.2-.9.6-1.8 1.4-2.6 1-1.2 2.1-1.8 3.3-1.8 1.2 0 2.3.5 3.3 1.3.4.3.7.6.9 1l-4.5 5.2c.5.4 1 .5 1.7.3.6-.2 1.2-.6 1.9-1.3.8-.9 1.3-1.7 1.6-2.6l1.8 1.2c-.3.9-1 1.9-1.9 3-1.3 1.5-2.6 2.3-3.9 2.5zm.3-7.4c-.1-.1-.2-.2-.3-.2-.5-.3-.9-.5-1.4-.5s-.9.2-1.3.7c-.5.5-.7 1.1-.6 1.6 0 .5.3 1.1.8 1.5l2.8-3.1z"/></g><path d="M106.7 63.3c-2.9.3-11.2.5-14.7-1.8-1.3-.8-2.4-2-3.6-3.2-1.6-1.6-3.3-3.4-5.9-4.7v-.2c-.5-1.2-1.7-1.5-2.6-1.4 1.9-1.5 3.1-3.7 3.1-6.3 0-4.4-3.6-8-8-8s-8 3.6-8 8c0 2.6 1.2 4.8 3.1 6.3-.9-.1-2.1.2-2.5 1.4v.2c-2.6 1.3-4.4 3.1-5.9 4.7-1.2 1.2-2.3 2.3-3.6 3.2-3.5 2.2-11.8 2-14.7 1.8-1.5-.1-2.8 1-2.9 2.4-.1 1.5.9 2.8 2.4 2.9.4 0 2.2.2 4.5.2 4.1 0 9.9-.5 13.5-2.8 1.6-1 2.8-2.2 3.9-3.4-.7 6.3-3 15.7-11 17.8-.2.1-.4.3-.4.5s.1.5.3.6c.3.2 4.6 2.6 10.7 3.4l-.2 3h21.7l-.2-3.2c5.4-.9 9.2-3.1 9.4-3.2.2-.1.3-.4.3-.6 0-.2-.2-.4-.4-.5-7.2-1.9-9.8-9.7-10.7-15.8l-.2-3.3.7.7c1.3 1.4 2.7 2.8 4.6 4 3.6 2.3 9.5 2.8 13.5 2.8 2.3 0 4.1-.1 4.5-.2 1.5-.1 2.6-1.4 2.4-2.9-.3-1.4-1.6-2.5-3.1-2.4zm-24.8-9.7c0 .1-.1.4-.1.7-.1 0-.4.2-1.9-.2-.1 0-.1 0-.1-.1-.2-.3-.1-.9 0-1.3.4-.1 1.7-.2 2.1.9zm-11.5-.9c.1.4.1 1 0 1.3 0 .1-.1.1-.1.1-1.6.4-1.9.2-1.9.2-.1-.3-.1-.6-.2-.7.4-1.1 1.7-1 2.2-.9zM55.5 81.2c7.4-2.8 9.7-11.7 10.4-17.8l-1.5 20.4c-3.9-.6-7.2-1.8-8.9-2.6zm37.6 0c-1.5.7-4.2 1.8-7.6 2.4l-.9-11.9c1.6 4 4.2 7.8 8.5 9.5z" style="fill:#fff"/></g></svg>