<svg version="1.1" id="Capa_1" xmlns="http://www.w3.org/2000/svg" x="0" y="0" viewBox="0 0 127.6 127.6" style="enable-background:new 0 0 127.6 127.6" xml:space="preserve"><style>.st0{fill:#009ca6}</style><path class="st0" d="M69.7 84.2c1.3-.1 2.5-.5 3.7-1.1l22.4-12.5c4.2-2.3 6.6-6.9 6.3-11.6l-2-25.6c3.3-1.3 5.1-4.7 4.3-8.1l-.4-1.8c-.4-1.8-1.5-3.4-3.1-4.4-1.6-1-3.5-1.3-5.3-.9l-34.4 7.6c-.3.1-.6.2-.8.4L56 30.3c-1.4 1.3-3.2 2-5.1 1.9-1.9-.1-3.7-.9-4.9-2.3-.7-.7-1-1.7-.9-2.7s.5-1.9 1.3-2.5L60 12.9c2.8-2.4 7-2.1 9.5.7l5.1 5.8c.6.7 1.8.8 2.5.2.7-.6.8-1.8.2-2.5l-5.3-6c-3.7-4.2-10.2-4.7-14.4-1L44 21.9c-1.5 1.3-2.3 3.1-2.5 5-.1 1.9.5 3.8 1.8 5.3 1.9 2.1 4.5 3.4 7.4 3.5 2.9.2 5.6-.9 7.7-2.8l4-3.8 33.9-7.5c.9-.2 1.9-.1 2.7.5.8.5 1.3 1.3 1.6 2.2l.4 1.7c.4 1.8-.6 3.6-2.4 4.1l-.9.3c-.8.3-1.3 1-1.2 1.8l2.1 27c.3 3.4-1.5 6.6-4.5 8.3L71.7 80c-.7.4-1.5.6-2.3.7h-.3c-3.6.4-6.8 2-9.2 4.6L48 98.5l-26.2-23 1.3-1.5c.6-.7.5-1.8-.2-2.5-.7-.6-1.8-.5-2.5.2l-8 9.5-1.1-1c-.7-.6-1.8-.6-2.5.2L.4 89.7c-.2.3-.4.8-.4 1.3s.3.9.6 1.2l30.9 27.3c.3.3.8.4 1.2.4.5 0 1-.2 1.3-.6l28.5-31.7c1.8-2 4.3-3.2 6.9-3.5l.3.1zm-50.2-6 26.1 22.9-4.8 5.3L15 83.6l4.5-5.4z"/><path class="st0" d="m21.4 69.4 14.2 7.4c1.1.6 2.4.9 3.6.9.8 0 1.6-.1 2.4-.4 2-.6 3.6-2 4.6-3.9 1-1.9 1.2-4 .5-6-.1-.3-.2-.6-.4-.8.2-.1.5-.1.7-.2 2-.6 3.7-2 4.6-3.9 1-1.9 1.2-4 .5-6-.1-.4-.3-.8-.5-1.2 2.1-.5 4-1.8 5.1-3.9 1.2-2.2 1.1-4.7.1-6.8.1 0 .2 0 .3-.1 1.9-.6 3.5-1.9 4.4-3.7.8-1.5 1-3.2.7-4.9-.2-1-1.1-1.6-2-1.4-1 .2-1.6 1.1-1.4 2 .2.9.1 1.8-.4 2.6-1 1.9-3.4 2.7-5.3 1.8L37.9 33l-.2-.1-.4-.2c-2-1-2.8-3.5-1.7-5.5.5-.9 1.2-1.6 2.2-1.9.9-.4 1.4-1.4 1-2.3-.4-.9-1.4-1.4-2.3-1-1.7.7-3.2 1.9-4.1 3.6-1.2 2.2-1.1 4.8-.1 6.9-2 .6-3.7 1.8-4.7 3.8-.9 1.8-1.1 3.9-.5 5.8.2.5.3.9.5 1.3-.2.1-.4.1-.5.1-2 .6-3.7 2-4.6 3.9-1 1.9-1.2 4-.5 6 .2.5.4 1 .6 1.4h-.1c-2 .6-3.7 2-4.6 3.9-1 1.9-1.2 4-.5 6s2.1 3.7 4 4.7zm9.4-31.3c.7-1.4 2.1-2.2 3.6-2.2.6 0 1.2.1 1.7.4l15.2 7.9s.1 0 .2.1l.4.2c2 1 2.8 3.5 1.7 5.5s-3.5 2.8-5.5 1.7l-15.6-8.1c-1-.5-1.7-1.3-2-2.4-.3-1.1-.2-2.2.3-3.1zm-5.1 11c.5-1 1.4-1.8 2.5-2.1.4-.1.9-.2 1.3-.2.7 0 1.4.2 2 .5L46.7 55c1 .5 1.8 1.4 2.1 2.5s.3 2.3-.3 3.3c-.5 1-1.4 1.8-2.5 2.1-1 .3-2 .3-2.9-.1-.1-.1-.1-.1-.2-.1l-14.2-7.4-.6-.3-.4-.2c-1-.5-1.8-1.4-2.1-2.5-.4-1-.3-2.2.1-3.2zm-4.5 11.3c.5-1 1.4-1.8 2.5-2.1.4-.1.9-.2 1.3-.2.5 0 1 .1 1.5.3L41.1 66s.3.1.4.1c.9.6 1.6 1.4 2 2.4.4 1.1.3 2.3-.3 3.3-.5 1-1.4 1.8-2.5 2.1-1.1.4-2.3.3-3.3-.3L23 66.2c-1-.5-1.8-1.4-2.1-2.5s-.3-2.3.3-3.3zM127.1 89.8l-8.7-9.3c-.7-.7-1.7-.8-2.4-.1l-1 .9-10.8-12.2c-.6-.7-1.7-.8-2.5-.2-.7.6-.8 1.7-.2 2.5l3.8 4.3-25.9 22.9-8.3-9.3c-.2-.2-.4-.3-.6-.4l-3.9-1.7c-.9-.4-1.9 0-2.3.9-.4.9 0 1.9.9 2.3l3.6 1.6 24.7 27.4c.4.4.8.6 1.3.6.4 0 .8-.2 1.2-.4l31-27.2c.4-.3.6-.8.6-1.2 0-.6-.2-1-.5-1.4zm-19.5-11.5 4.7 5.3-25.8 22.9-4.8-5.3 25.9-22.9z"/></svg>