<svg version="1.1" id="Capa_1" xmlns="http://www.w3.org/2000/svg" x="0" y="0" viewBox="0 0 127.6 127.6" style="enable-background:new 0 0 127.6 127.6" xml:space="preserve"><style>.st0{fill:#009ca6}</style><path class="st0" d="M63.8 31.3c-17.9 0-32.4 14.6-32.4 32.4S46 96.1 63.8 96.1s32.4-14.6 32.4-32.4-14.5-32.4-32.4-32.4zm0 61.4c-16 0-28.9-13-28.9-28.9s13-28.9 28.9-28.9 28.9 13 28.9 28.9-12.9 28.9-28.9 28.9z"/><circle class="st0" cx="63.8" cy="63.8" r="13.2"/><path class="st0" d="M125.8 62h-11.5c-.9-26.5-22.3-47.8-48.8-48.7V1.8c0-1-.8-1.8-1.8-1.8S62 .8 62 1.8v11.5c-26.5.9-47.8 22.2-48.7 48.7H1.8c-1 0-1.8.8-1.8 1.8s.8 1.8 1.8 1.8h11.5c.9 26.4 22.2 47.7 48.7 48.7v11.5c0 1 .8 1.8 1.8 1.8s1.8-.8 1.8-1.8v-11.5c26.5-.9 47.8-22.2 48.7-48.7h11.5c1 0 1.8-.8 1.8-1.8s-.8-1.8-1.8-1.8zm-60.3 48.8v-3.9c0-1-.8-1.8-1.8-1.8s-1.8.8-1.8 1.8v3.9c-24.6-.9-44.3-20.7-45.2-45.2h3.9c1 0 1.8-.8 1.8-1.8s-.8-1.8-1.8-1.8h-3.9c1-24.5 20.8-44.3 45.3-45.2v3.9c0 1 .8 1.8 1.8 1.8s1.8-.8 1.8-1.8v-3.9c24.6.9 44.3 20.7 45.2 45.2h-3.9c-1 0-1.8.8-1.8 1.8s.8 1.8 1.8 1.8h3.9c-1 24.5-20.7 44.2-45.3 45.2z"/></svg>