<svg version="1.1" id="Capa_1" xmlns="http://www.w3.org/2000/svg" x="0" y="0" viewBox="0 0 127.6 127.6" style="enable-background:new 0 0 127.6 127.6" xml:space="preserve"><style>.st0{fill:#009ca6}</style><path class="st0" d="M116.8 92.8V66.3c0-21.4-17.5-38.9-38.9-38.9s-39 17.5-39 38.9v26c-6 3.1-10.1 9.4-10.1 16.8l2 16.6c.2 1.1 1.2 1.9 2.4 1.8 1.1-.2 2-1.2 1.8-2.4l-2-16.4c0-8 6.5-14.5 14.5-14.5h59.8c7.9 0 14.4 6.4 14.5 14.3l-2.8 16.4c-.2 1.1.6 2.2 1.7 2.4h.4c1 0 1.9-.7 2.1-1.7L126 109v-.4c0-6.6-3.7-12.6-9.2-15.8zm-59-35c2.4 1.8 5.5 2.9 8.7 2.9 8.1 0 14.3-7.3 14.6-10.3.1-.5 1.7 4.8 10 5.2 1.9.1 3.6-.5 5.1-1.4 2.3 3.5 3.6 7.6 3.6 12.1 0 12.1-9.8 21.9-21.9 21.9S56 78.4 56 66.3c0-3 .6-5.9 1.8-8.5z"/><path class="st0" d="M46.3 26.5c3 0 6.1.8 8.7 2.2 1 .5 2.3.2 2.9-.8.5-1 .2-2.3-.8-2.9-3.3-1.8-7-2.7-10.7-2.7C34 22.3 24 32.3 24 44.7c0 5.8 2.2 11.4 6.3 15.6.4.4 1 .6 1.5.6s1.1-.2 1.4-.6c.8-.8.8-2.1.1-3-3.3-3.4-5.1-7.9-5.1-12.7-.1-10 8.1-18.1 18.1-18.1z"/><path class="st0" d="M68.8 23.2c.8-.8.7-2.2-.1-3-6.1-5.6-14.1-8.7-22.4-8.7-18.3 0-33.1 14.9-33.1 33.2 0 11.9 6.4 22.9 16.7 28.8.3.2.7.3 1.1.3.7 0 1.4-.4 1.8-1.1.6-1 .2-2.3-.8-2.9-9-5.2-14.6-14.8-14.6-25.1 0-15.9 13-28.9 28.9-28.9 7.3 0 14.2 2.7 19.5 7.6.9.8 2.3.7 3-.2z"/><path class="st0" d="M31.3 86.6c.8 0 1.7-.5 2-1.4.4-1.1-.2-2.3-1.2-2.7C16.4 76.6 5.8 61.4 5.8 44.7 5.8 22.4 24 4.2 46.3 4.2c12.1 0 23.5 5.4 31.2 14.7.7.9 2 1 3 .3s1-2 .3-3C72.2 5.9 59.6 0 46.3 0 21.6 0 1.6 20 1.6 44.7c0 18.5 11.6 35.3 28.9 41.8.2 0 .4.1.8.1z"/></svg>