<svg version="1.1" id="Capa_1" xmlns="http://www.w3.org/2000/svg" x="0" y="0" viewBox="0 0 150 150" style="enable-background:new 0 0 150 150" xml:space="preserve"><style>.st3{fill:#fff}.st4{enable-background:new}.st5{fill:#d2010d}</style><g id="Capa_1-2"><circle cx="75" cy="60.8" r="57.2" style="fill:#d2151a"/><circle cx="75" cy="60.8" r="60.3" style="fill:none;stroke:#d2151a;stroke-width:.87;stroke-miterlimit:10"/><radialGradient id="SVGID_1_" cx="52.218" cy="145.329" r="114.606" gradientTransform="matrix(1 0 0 -1 0 152.53)" gradientUnits="userSpaceOnUse"><stop offset="0" style="stop-color:#fff"/><stop offset="1" style="stop-color:#f9f9f9;stop-opacity:0"/></radialGradient><circle cx="75" cy="60.8" r="57.2" style="opacity:.69;fill:url(#SVGID_1_);enable-background:new"/><path class="st3" d="M95 72.1V62c0-8.1-6.6-14.7-14.7-14.7S65.6 53.9 65.6 62v9.8c-2.3 1.2-3.8 3.6-3.8 6.4l.8 6.3c.1.4.5.7.9.7.4-.1.7-.5.7-.9l-.8-6.2c0-3 2.5-5.5 5.5-5.5h22.6c3 0 5.4 2.4 5.5 5.4l-1.1 6.2c-.1.4.2.8.6.9h.1c.4 0 .7-.3.8-.7l1.1-6.3V78c0-2.5-1.4-4.8-3.5-5.9zM72.7 58.8c.9.7 2.1 1.1 3.3 1.1 3.1 0 5.4-2.8 5.5-3.9 0-.2.6 1.8 3.8 2 .7 0 1.4-.2 1.9-.5.9 1.3 1.4 2.9 1.4 4.6 0 4.6-3.7 8.3-8.3 8.3S72 66.6 72 62c0-1.1.3-2.2.7-3.2z"/><path class="st3" d="M68.4 47c1.2 0 2.3.3 3.3.8.4.2.9.1 1.1-.3.2-.4.1-.9-.3-1.1-1.2-.7-2.6-1-4.1-1-4.7 0-8.5 3.8-8.5 8.5 0 2.2.8 4.3 2.4 5.9.2.2.4.2.6.2.2 0 .4-.1.5-.2.3-.3.3-.8 0-1.1-1.2-1.3-1.9-3-1.9-4.8 0-3.9 3.1-7 6.9-6.9z"/><path class="st3" d="M76.9 45.7c.3-.3.3-.8 0-1.1-2.3-2.1-5.3-3.3-8.5-3.3-6.9 0-12.5 5.6-12.5 12.5 0 4.5 2.4 8.7 6.3 10.9.1.1.3.1.4.1.3 0 .5-.1.7-.4.2-.4.1-.9-.3-1.1-3.4-1.9-5.5-5.6-5.5-9.5 0-6 4.9-10.9 10.9-10.9 2.7 0 5.4 1 7.4 2.9.3.3.8.2 1.1-.1z"/><path class="st3" d="M62.7 69.7c.3 0 .6-.2.7-.5.2-.4-.1-.9-.5-1C57 66 53 60.2 53 53.9c0-8.4 6.9-15.3 15.3-15.3 4.6 0 8.9 2 11.8 5.6.3.3.8.4 1.1.1.3-.3.4-.8.1-1.1-3.2-3.9-8-6.1-13-6.1-9.3 0-16.9 7.6-16.9 16.9 0 7 4.4 13.3 10.9 15.8.2-.1.3-.1.4-.1z"/><g class="st4"><path class="st5" d="m20.1 107 6.3 6.6-2.1 1.1-4-4.2-2.1 2 3.5 3.7-1.7 1.5-3.4-3.6-1.9 1.8 4.4 4.7-2.1 1.1-5.9-6.2 9-8.5z"/></g><g class="st4"><path class="st5" d="m19.4 123.3 1.5-1.6c.3.4.6.9 1 1.3s.7.8 1.1 1.1c.5.4.9.6 1.2.6.3.1.5 0 .7-.2.1-.1.1-.3.1-.4 0-.1-.1-.4-.2-.6-.1-.3-.4-.6-.7-1.1-.6-.9-1-1.7-1.1-2.4-.1-.7.1-1.3.6-1.9.6-.7 1.4-1 2.3-.9.9.1 1.9.6 2.8 1.3.8.6 1.4 1.3 2.1 2.1l-1.5 1.5c-.5-.7-1-1.4-1.7-1.9-.9-.7-1.4-.8-1.7-.5-.1.2-.1.4 0 .7.1.3.5.8.9 1.5.6.9 1 1.7 1 2.3s-.1 1.2-.5 1.7c-.7.8-1.5 1.2-2.4 1.2-.9-.1-1.9-.5-2.8-1.2-1.2-.8-2-1.7-2.7-2.6z"/></g><g class="st4"><path class="st5" d="M29.6 130.8c-.5-.8-.8-1.6-.8-2.5 0-.9.2-1.7.8-2.6.5-.9 1.2-1.5 2-1.9.8-.4 1.7-.5 2.6-.4.9.1 1.9.4 2.8 1 .8.5 1.5 1.1 2.2 1.8l-1.4 1.6c-.5-.6-1-1.1-1.8-1.5-.8-.5-1.5-.7-2.3-.6-.7.1-1.4.5-1.8 1.3-.5.8-.6 1.5-.3 2.2.2.7.8 1.3 1.5 1.8.8.5 1.5.8 2.2.9l-.9 1.9c-.4 0-.8-.2-1.3-.4s-1-.4-1.5-.7c-.7-.5-1.5-1.2-2-1.9z"/></g><g class="st4"><path class="st5" d="M38.3 135.2c-.5-.9-.4-1.9.1-3.1l2.3-5.4 2.5 1.1-2.3 5.3c-.2.6-.3 1.1-.1 1.4.2.4.5.7 1.1 1 .6.2 1.1.3 1.5.1.4-.2.7-.5 1-1.1l2.3-5.3 2.5 1.1-2.3 5.4c-.5 1.2-1.2 1.9-2.2 2.2-1 .3-2.2.1-3.5-.5-1.5-.5-2.5-1.3-2.9-2.2z"/></g><g class="st4"><path class="st5" d="M50.6 140.3c-.7-.6-1.2-1.3-1.4-2.2-.3-.8-.2-1.8 0-2.7.3-1 .7-1.8 1.4-2.3.7-.6 1.5-1 2.4-1.1s1.9-.1 3 .2c.9.3 1.8.6 2.6 1.1l-.9 1.9c-.6-.4-1.3-.7-2.1-1-.9-.2-1.6-.2-2.3.1-.7.3-1.2.9-1.4 1.8-.2.9-.1 1.6.3 2.3.4.6 1.1 1.1 2 1.3.9.2 1.7.3 2.4.2l-.3 2c-.4.1-.8.1-1.3 0s-1.1-.2-1.6-.3c-1.1-.2-2-.7-2.8-1.3z"/></g><g class="st4"><path class="st5" d="m60.7 130.3 2.8-.3-.6 4.5c.5-.2 1-.4 1.6-.4s1.1-.1 1.6 0c1.1.1 1.9.6 2.4 1.3.5.7.7 1.6.5 2.8l-.8 5.9-2.7-.4.7-5.6c.1-.4.1-.7 0-.9 0-.2-.1-.4-.3-.6-.3-.3-.7-.5-1.2-.5h-1.1c-.4.1-.7.2-1 .3l-.9 6.8-2.7-.4 1.7-12.5z"/></g><g class="st4"><path class="st5" d="M72.7 144c-.6-.3-1-.7-1.3-1.1-.3-.5-.5-1-.5-1.7 0-.9.3-1.6 1-2.1s1.7-.7 3.2-.7h.7c.5 0 1 0 1.5.1v-.4c0-.5-.2-.8-.6-1-.4-.2-.9-.3-1.7-.3-.9 0-1.9.2-3 .4l-.2-2c.5-.1 1.1-.3 1.8-.4.7-.1 1.4-.2 2-.2 1.4 0 2.4.2 3.2.8.7.5 1.1 1.4 1.1 2.5l.1 4.4c0 .9 0 1.5.1 1.9h-2.3c-.1-.4-.1-.7-.1-.9-.7.7-1.7 1.1-2.8 1.1-1 0-1.7-.1-2.2-.4zm3.9-2c.4-.3.5-.6.5-1v-.9h-2.3c-.4 0-.7.1-.9.3-.2.2-.3.4-.3.7 0 .4.2.7.5.9.3.2.7.3 1.2.3.5.1 1 0 1.3-.3z"/></g><g class="st4"><path class="st5" d="m89.6 130.4 2.4-.5 7.7 11-2.9.6-1.5-2.2-5.1 1.1-.4 2.6-3 .6 2.8-13.2zm4.5 6.9-2.5-3.7h-.2l-.7 4.4 3.4-.7z"/></g><g class="st4"><path class="st5" d="M103.8 138.9c-.9-.1-1.7-.4-2.4-.9s-1.2-1.3-1.6-2.2c-.4-.9-.4-1.9-.3-2.7.2-.9.6-1.6 1.3-2.3.7-.7 1.5-1.2 2.5-1.6.9-.3 1.8-.5 2.8-.6l.5 2.1c-.7 0-1.5.2-2.3.5-.8.3-1.5.8-1.8 1.5s-.4 1.4-.1 2.2c.3.8.8 1.4 1.6 1.6.7.3 1.5.2 2.4-.1.8-.3 1.5-.7 2.1-1.2l.9 1.8c-.3.3-.6.5-1.1.8-.5.3-.9.5-1.5.7-1.1.3-2.1.5-3 .4z"/></g><g class="st4"><path class="st5" d="M112.2 135c-.8-.2-1.4-.8-2-1.9l-3.8-7.4 2.2-1.6 1.2 2.3 3.1-1.6.6 2.1-2.7 1.4 1.6 3.1c.3.5.5.8.9.9.3.1.7.1 1.2-.2.6-.3 1.1-.6 1.5-.9l1 1.7c-.2.2-.5.5-.9.7s-.8.5-1.1.7c-1.1.7-2 .9-2.8.7z"/></g><g class="st4"><path class="st5" d="M113.3 122.4c-.4-.1-.8-.3-1-.7-.2-.4-.3-.8-.2-1.2.1-.4.4-.8.8-1 .4-.3.8-.3 1.3-.3s.8.3 1 .7c.2.4.3.8.2 1.2-.1.4-.4.8-.8 1-.4.3-.8.4-1.3.3zm.8 1.5 2.3-1.4 5.1 8.1-2.3 1.4-5.1-8.1z"/></g><g class="st4"><path class="st5" d="m117.3 122.1 2.3-1.8 5.7 3.3.1-.1-1.9-6.3 2.3-1.8 2.6 10.1-1.8 1.4-9.3-4.8z"/></g><g class="st4"><path class="st5" d="M133.8 120.4c-.6.2-1.2.3-1.8.2s-1.1-.4-1.5-.8c-.7-.6-.9-1.4-.8-2.1.1-.8.7-1.7 1.7-2.8l.5-.5c.3-.3.7-.7 1.1-1l-.3-.3c-.4-.3-.7-.4-1.1-.3s-.9.4-1.4 1c-.6.7-1.2 1.5-1.8 2.4l-1.6-1.3c.3-.5.6-1 1-1.6.4-.6.9-1.1 1.3-1.6.9-1 1.9-1.6 2.8-1.7s1.8.2 2.6 1l3.2 3c.6.6 1.1 1 1.4 1.3l-1.6 1.7c-.3-.2-.6-.4-.8-.5 0 1-.4 2-1.2 2.8-.6.5-1.1.9-1.7 1.1zm1.3-4.2c.1-.4-.1-.8-.4-1.1l-.6-.6-1.6 1.7c-.3.3-.4.6-.4.8 0 .3.1.5.3.7.3.3.6.4 1 .3.4-.1.7-.3 1.1-.6.3-.3.6-.8.6-1.2z"/></g></g></svg>