<svg version="1.1" id="Capa_1" xmlns="http://www.w3.org/2000/svg" x="0" y="0" viewBox="0 0 127.6 127.6" style="enable-background:new 0 0 127.6 127.6" xml:space="preserve"><style>.st0{fill:#009ca6}</style><path class="st0" d="M106.2 71c-.7-7.1-2.7-13.7-5.9-19.8l-.1-.1V51l-.2-.2c0-.1-.1-.1-.1-.1-6.8-9-36.1-10.6-54.1-8.2-8.1 1.1-18.1 3.4-20.2 8.6-3.3 6.2-5 13.1-5 20.1 0 14.2 7.3 26.3 19.8 34.2 1.8 6.4 4.3 16.8 3.5 19.9-.2 1 .3 2 1.4 2.3.2 0 .3.1.5.1.8 0 1.6-.6 1.8-1.4.9-3.7-1.1-12.7-2.6-18.1 5.4 2.7 11.5 4.8 18.2 6 1.5.3 3.2.7 5.1 1.1.3.1.6.1.9.2-.2 2.6-.5 7.7.2 10.8.2.9 1 1.5 1.8 1.5.1 0 .3 0 .4-.1 1-.2 1.6-1.2 1.4-2.2-.5-2.3-.3-6.4-.2-9.2 3.5.7 7.2 1.4 11 1.4 5.1 0 10.1-1.2 14.2-4.7 7.7-6.9 10.4-20.6 8.2-42zM46.3 46.2c16.7-2.2 39.4-.5 48 4.6-9.4 1-20 1.5-30.9 1.5-11.6 0-22.8-.6-32.6-1.8 2.5-1.6 7.4-3.3 15.5-4.3zM95.5 110c-7.1 6.2-18.2 3.5-26.4 1.5-2-.5-3.8-.9-5.4-1.2-7.7-1.4-16-4.4-23.1-9.2-1.1-2.9-2.7-7.6-3.7-12.4 1.4.6 3 1 4.6 1 2.5 0 5-.8 7-2.4.7-.6.8-1.6.3-2.3-.6-.7-1.6-.8-2.3-.3-1.5 1.1-3.2 1.7-5 1.7-4.5 0-8.2-3.7-8.2-8.2S37 70 41.5 70c2.6 0 5 1.2 6.6 3.3.5.6 1.4.8 2 .4 3.6 3.7 4.7 10.2 4.7 10.2h5.7S56.6 64.1 68 62.4l2.8-6.4c9.5-.2 18.6-.8 26.7-1.8 2.1 4.2 3.6 8.8 4.4 13.5-.1 0-.2-.1-.3-.1-.7 0-1.2.6-1.2 1.2 0 1.4-1.2 2.6-2.6 2.6s-2.6-1.2-2.6-2.6c0-.7-.6-1.2-1.2-1.2-.7 0-1.2.6-1.2 1.2 0 2.8 2.3 5.1 5.1 5.1 2 0 3.8-1.2 4.6-3 0 .2.1.3.1.5 1.9 19.7-.5 32.7-7.1 38.6z"/><path class="st0" d="M93.1 75.3c-.1-.7-.8-1.1-1.4-1-.7.1-1.1.8-1 1.4.1.3 1.2 6.9 4.3 10.4-1.2.6-3.3 1.1-6.1.2-.7-.2-1.4.2-1.5.8s.2 1.4.8 1.5c1.3.4 2.5.6 3.6.6 3.8 0 6-2 6.1-2.1.3-.3.4-.6.4-1s-.2-.7-.5-.9c-2.7-1.8-4.3-7.8-4.7-9.9zM83.5 68.8c-.7 0-1.2.6-1.2 1.2 0 2.2-1.8 4-4 4s-4-1.8-4-4c0-.7-.6-1.2-1.2-1.2-.7 0-1.2.6-1.2 1.2 0 3.6 2.9 6.5 6.5 6.5s6.5-2.9 6.5-6.5c-.2-.7-.7-1.2-1.4-1.2zM30.7 40.8h38.8c.2 0 .4 0 .6-.1 2.8-.5 4.9-2.8 4.9-5.7s-2.2-5.4-5-5.8v-.1c0-5.1-4.2-9.3-9.3-9.3-.6 0-1.2.1-1.7.2 0-5.7-4.7-10.3-10.3-10.3S38.1 14.3 38.1 20c0 .8.1 1.5.3 2.2h-.1c-3.3 0-6.1 2.3-6.9 5.4-3.8-.5-7.4 2.7-7.4 6.6.1 3.7 3 6.6 6.7 6.6zm1.5-9.1c.6.4 1.4.4 2 0 .6-.4.9-1.1.8-1.9 0-.2-.1-.4-.1-.6 0-1.9 1.5-3.4 3.4-3.4 1 0 1.9.4 2.5 1.1.1.1.1.1.2.1.6.7 1.4 1.2 2.2 1.7 1.2.8 2.6.9 3.3.9 3.1 0 5.5-2.4 5.5-5.5s-2.5-5.6-5.6-5.6c-1 0-1.9.8-1.9 1.9 0 1 .8 1.9 1.9 1.9 1 0 1.9.8 1.9 1.9 0 1-.7 1.8-1.8 1.8-.6 0-1-.1-1.4-.4-2.1-1.2-3.3-3.4-3.3-5.8a6.7 6.7 0 0 1 13.4 0c0 .6-.1 1.2-.2 1.7-2.2 1.7-3.7 4.4-3.7 7.4 0 .8.1 1.6.4 2.5.3 1 1.3 1.5 2.3 1.3 1-.3 1.5-1.3 1.3-2.3-.3-.4-.3-.9-.3-1.4 0-3.1 2.5-5.6 5.6-5.6 3.1 0 5.6 2.5 5.6 5.6 0 .5-.1 1-.2 1.5-.2.6-.1 1.2.3 1.6.3.5.9.7 1.5.7h.3c.2 0 .3 0 .5-.1s.4-.1.6-.1c1.2 0 2.1 1 2.1 2.1s-.8 2-1.9 2.1H30.7c-1.6 0-2.9-1.3-2.9-2.9 0-1.9 2.5-3.4 4.4-2.2zM76.3 31.5c0 .5.2 1 .6 1.3.6 7.1 5.8 8.5 6.1 8.5h.3c.4 0 .8-.2 1.1-.5.3-.4.4-1 .1-1.5-.1-.1-.2-.4-.2-.6h10.3c4 0 7.2-3.3 7.2-7.2s-3.3-7.2-7.2-7.2h-11c-4.1-.1-7.3 3.2-7.3 7.2zm21.8 0c0 2-1.6 3.6-3.6 3.6h-11c-1 0-1.9.8-1.9 1.9v.2c-.1.1-.1.2-.2.3-.9-.9-1.8-2.4-2-4.8.2-.3.4-.7.4-1.1 0-2 1.6-3.6 3.6-3.6h11c2.1-.1 3.7 1.5 3.7 3.5z"/><path class="st0" d="M73.7 21.5v.5c-.5.2-.8.6-.8 1.2v5.7c0 .7.6 1.3 1.3 1.3h.4c.7 0 1.3-.6 1.3-1.3v-5.7c0-.5-.3-1-.8-1.2v-.5c5.6-.4 10.1-5 10.1-10.7S80.3 0 74.4 0 63.6 4.9 63.6 10.8s4.5 10.4 10.1 10.7zm.7-17.8c3.9 0 7.1 3.2 7.1 7.1s-3.2 7.1-7.1 7.1-7.1-3.2-7.1-7.1 3.2-7.1 7.1-7.1z"/><path class="st0" d="M71.2 11 74 8c.5-.6.5-1.5-.1-2s-1.5-.5-2 .1l-2.8 3.1c-.5.6-.5 1.5.1 2 .3.2.6.3.9.3.5 0 .9-.2 1.1-.5zM71 11.8c-.5.6-.5 1.5.1 2 .3.2.6.3.9.3.4 0 .8-.2 1-.5l2.8-3.1c.5-.6.5-1.5-.1-2s-1.5-.5-2 .1L71 11.8z"/></svg>