<svg version="1.1" id="Capa_1" xmlns="http://www.w3.org/2000/svg" x="0" y="0" viewBox="0 0 163.4 150" style="enable-background:new 0 0 163.4 150" xml:space="preserve"><style>.st3{fill:#fff}.st4{enable-background:new}.st5{fill:#d2010d}</style><g id="Capa_1-2"><circle cx="81.7" cy="60.8" r="57.2" style="fill:#d2151a"/><circle cx="81.7" cy="60.8" r="60.3" style="fill:none;stroke:#d2151a;stroke-width:.87;stroke-miterlimit:10"/><radialGradient id="SVGID_1_" cx="58.948" cy="145.281" r="114.511" gradientTransform="matrix(1 0 0 -1 0 152.54)" gradientUnits="userSpaceOnUse"><stop offset="0" style="stop-color:#fff"/><stop offset="1" style="stop-color:#f9f9f9;stop-opacity:0"/></radialGradient><circle cx="81.7" cy="60.8" r="57.1" style="opacity:.69;fill:url(#SVGID_1_);enable-background:new"/><path class="st3" d="M100 64.2c-.3-3-1.2-5.9-2.6-8.5l-.1-.1v-.1c-2.9-3.9-15.5-4.6-23.2-3.5-3.5.5-7.8 1.5-8.7 3.7-1.4 2.6-2.2 5.6-2.2 8.6 0 6.1 3.2 11.3 8.5 14.7.8 2.7 1.8 7.2 1.5 8.5-.1.4.1.9.6 1h.2c.4 0 .7-.2.8-.6.4-1.6-.5-5.4-1.1-7.8 2.3 1.2 4.9 2.1 7.8 2.6.6.1 1.4.3 2.2.5.1 0 .3.1.4.1-.1 1.1-.2 3.3.1 4.6.1.4.4.6.8.6h.2c.4-.1.7-.5.6-.9-.2-1-.1-2.7-.1-3.9 1.5.3 3.1.6 4.7.6 2.2 0 4.3-.5 6.1-2 3.2-3.1 4.4-8.9 3.5-18.1zM74.2 53.5c7.2-.9 16.9-.2 20.6 2-4 .4-8.6.7-13.3.7-5 0-9.8-.3-14-.8 1.1-.7 3.2-1.4 6.7-1.9zm21.1 27.4c-3 2.7-7.8 1.5-11.3.6-.8-.2-1.6-.4-2.3-.5-3.3-.6-6.9-1.9-9.9-4-.5-1.3-1.2-3.3-1.6-5.3.6.3 1.3.4 2 .4 1.1 0 2.1-.4 3-1 .3-.2.4-.7.1-1s-.7-.4-1-.1c-.6.5-1.4.7-2.2.7-1.9 0-3.5-1.6-3.5-3.5s1.6-3.5 3.5-3.5c1.1 0 2.1.5 2.8 1.4.2.3.6.3.9.2 1.5 1.6 2 4.4 2 4.4h2.4s-1.7-8.5 3.2-9.3l1.2-2.7c4.1-.1 8-.4 11.5-.8.9 1.8 1.5 3.8 1.9 5.8h-.1c-.3 0-.5.2-.5.5 0 .6-.5 1.1-1.1 1.1-.6 0-1.1-.5-1.1-1.1 0-.3-.2-.5-.5-.5s-.5.2-.5.5c0 1.2 1 2.2 2.2 2.2.9 0 1.6-.5 2-1.3v.2c.8 8.5-.2 14.1-3.1 16.6z"/><path class="st3" d="M94.3 66c0-.3-.3-.5-.6-.4-.3 0-.5.3-.4.6 0 .1.5 3 1.8 4.5-.5.2-1.4.5-2.6.1-.3-.1-.6.1-.7.4-.1.3.1.6.4.7.6.2 1.1.2 1.5.2 1.6 0 2.6-.8 2.6-.9.1-.1.2-.3.2-.4 0-.2-.1-.3-.2-.4-1.1-.9-1.8-3.5-2-4.4zM90.2 63.2c-.3 0-.5.2-.5.5 0 .9-.8 1.7-1.7 1.7-.9 0-1.7-.8-1.7-1.7 0-.3-.2-.5-.5-.5s-.5.2-.5.5c0 1.5 1.2 2.8 2.8 2.8s2.8-1.2 2.8-2.8c-.2-.3-.4-.5-.7-.5zM67.5 51.2h16.9c1.2-.2 2.1-1.2 2.1-2.5s-.9-2.3-2.2-2.5c0-2.2-1.8-4-4-4-.3 0-.5 0-.7.1 0-2.4-2-4.4-4.4-4.4-2.4 0-4.5 2-4.5 4.5 0 .3 0 .6.1 1-1.4 0-2.6 1-3 2.3-1.7-.2-3.2 1.1-3.2 2.8.1 1.4 1.3 2.7 2.9 2.7zm.7-3.9c.3.2.6.2.9 0 .3-.2.4-.5.3-.8v-.2c0-.8.6-1.5 1.5-1.5.4 0 .8.2 1.1.5 0 0 .1 0 .1.1.3.3.6.5.9.7.5.4 1.1.4 1.4.4 1.3 0 2.3-1 2.3-2.4s-1.1-2.4-2.4-2.4c-.4 0-.8.4-.8.8s.4.8.8.8.8.4.8.8-.3.8-.8.8c-.2 0-.4-.1-.6-.2-.9-.5-1.4-1.5-1.4-2.5 0-1.6 1.3-2.9 2.9-2.9 1.6 0 2.9 1.3 2.9 2.9 0 .3 0 .5-.1.7-1 .7-1.6 1.9-1.6 3.2 0 .3.1.7.2 1.1.1.4.6.7 1 .5.4-.1.7-.6.5-1-.1-.3-.1-.5-.1-.7 0-1.3 1.1-2.4 2.4-2.4 1.3 0 2.4 1.1 2.4 2.4 0 .2 0 .4-.1.7-.1.2 0 .5.1.7.1.2.4.3.6.3h.5c.5 0 .9.4.9.9s-.4.9-.8.9H67.5c-.7 0-1.2-.6-1.2-1.2 0-.9 1-1.5 1.9-1zM87.1 47.2c0 .2.1.4.2.6.2 3 2.5 3.6 2.6 3.7h.1c.2 0 .4-.1.5-.2.1-.2.2-.4.1-.6 0 0-.1-.2-.1-.3h4.4c1.7 0 3.1-1.4 3.1-3.1s-1.4-3.1-3.1-3.1h-4.7c-1.7-.1-3.1 1.3-3.1 3zm9.4 0c0 .8-.7 1.5-1.5 1.5h-4.7c-.4 0-.8.4-.8.8v.1c0 .1-.1.1-.1.1-.4-.4-.8-1-.8-2.1.1-.1.2-.3.2-.5 0-.8.7-1.5 1.5-1.5H95c.8 0 1.5.7 1.5 1.6z"/><path class="st3" d="M86 42.9v.2c-.2.1-.3.3-.3.5V46c0 .3.3.5.5.5h.2c.3 0 .5-.3.5-.5v-2.4c0-.2-.1-.4-.3-.5v-.2c2.4-.2 4.3-2.2 4.3-4.6s-2.1-4.6-4.6-4.6c-2.6 0-4.6 2.1-4.6 4.6-.1 2.6 1.9 4.5 4.3 4.6zm.3-7.6c1.7 0 3.1 1.4 3.1 3.1 0 1.7-1.4 3.1-3.1 3.1s-3.1-1.4-3.1-3.1c0-1.8 1.4-3.1 3.1-3.1z"/><path class="st3" d="m84.9 38.4 1.2-1.3c.2-.2.2-.6 0-.8-.3-.2-.6-.2-.8 0L84 37.6c-.2.2-.2.6 0 .8.1.1.3.1.4.1.2.1.4 0 .5-.1zM84.8 38.7c-.2.2-.2.6 0 .8.1.1.3.1.4.1.2 0 .3-.1.4-.2l1.2-1.3c.2-.2.2-.6 0-.8-.3-.2-.6-.2-.8 0 0 .1-1.2 1.4-1.2 1.4z"/><g class="st4"><path class="st5" d="m13.3 79 2.4 8.7h-2.3l-1.5-5.5-3.1.8 1.3 4.8-2.2.5-1.3-4.7-4.4 1.2-.7-2.6L13.3 79z"/></g><g class="st4"><path class="st5" d="M6 93.5c.4-1.2 1.3-2.1 2.7-2.8.9-.4 1.8-.6 2.7-.5.9.1 1.6.4 2.3 1 .7.6 1.3 1.3 1.7 2.3.5 1 .7 1.9.6 2.8 0 .9-.3 1.7-.8 2.4s-1.2 1.3-2.1 1.7-1.8.6-2.7.5-1.6-.4-2.3-1c-.7-.6-1.3-1.3-1.7-2.3-.6-1.5-.8-2.9-.4-4.1zm3.8 4.6c.6.2 1.4.1 2.2-.2.8-.4 1.4-.9 1.6-1.5.3-.6.2-1.3-.1-2-.3-.7-.8-1.1-1.4-1.3-.6-.2-1.4-.1-2.2.2-.8.4-1.4.9-1.6 1.5s-.2 1.3.1 2c.3.6.7 1.1 1.4 1.3z"/></g><g class="st4"><path class="st5" d="m18 99.7 1.4 1.9-.6.6c.5.2 1 .5 1.5.8.5.4.9.8 1.3 1.2.3.4.5.9.7 1.4.1.5.1 1 0 1.4.6.3 1.2.6 1.8 1 .6.4 1 .8 1.4 1.3.3.4.5.8.7 1.3.1.4.2.8.1 1.2-.1.5-.3.9-.6 1.2s-.7.7-1.3 1.2l-4.7 3.6-1.6-2.2 4.5-3.4c.3-.2.6-.4.7-.6.2-.2.3-.3.3-.5.1-.4-.1-.8-.4-1.2-.2-.2-.4-.5-.8-.7s-.7-.4-1-.6c-.2.1-.4.3-.7.6l-4.8 3.6-1.6-2.2 4.5-3.4c.3-.2.5-.4.6-.6l.3-.6c.1-.4 0-.8-.3-1.2-.2-.3-.5-.5-.8-.8-.3-.2-.6-.4-1-.5l-5.5 4.1-1.6-2.2 7.5-5.7z"/></g><g class="st4"><path class="st5" d="M23.8 120c-.1-1.3.3-2.5 1.4-3.6.6-.7 1.3-1.2 2.1-1.5.8-.3 1.6-.3 2.5-.1.9.2 1.7.6 2.5 1.4 1.1 1 1.7 2.1 1.7 3.2s-.5 2.2-1.3 3.1c-.3.4-.6.7-.9.9l-5-4.4c-.4.5-.5 1-.3 1.6s.6 1.2 1.3 1.8c.8.7 1.6 1.3 2.5 1.6l-1.2 1.7c-.9-.3-1.9-.9-2.9-1.9-1.5-1.3-2.3-2.5-2.4-3.8zm7.1.3c.1-.1.2-.2.2-.3.3-.5.5-.9.5-1.4 0-.4-.2-.9-.7-1.2-.5-.4-1-.6-1.5-.6s-1 .3-1.5.8l3 2.7z"/></g><g class="st4"><path class="st5" d="m36.8 120.1 2 1.3-.3.8c.6 0 1.1.1 1.7.3.6.2 1.1.4 1.5.7.9.6 1.5 1.3 1.7 2.2.2.8-.1 1.7-.8 2.8l-3.3 5-2.3-1.5 3.1-4.8c.2-.3.3-.6.4-.8.1-.2.1-.4 0-.7-.1-.4-.4-.7-.8-1-.3-.2-.7-.4-1-.5-.4-.1-.7-.2-1.1-.2l-3.7 5.8-2.3-1.5 5.2-7.9z"/></g><g class="st4"><path class="st5" d="M43.2 134.3c-.3-.7-.2-1.6.3-2.7l3.6-7.5 2.6.8-1.1 2.3 3.2 1.5-1.4 1.7-2.7-1.3-1.5 3.2c-.2.5-.3.9-.2 1.3.1.3.4.6.8.8.6.3 1.2.5 1.6.6l-.7 1.9c-.3 0-.7-.1-1.1-.3-.4-.1-.8-.3-1.2-.5-1.2-.4-1.9-1.1-2.2-1.8z"/></g><g class="st4"><path class="st5" d="M51.1 138.4c-.4-.4-.7-1-.9-1.5-.1-.6-.1-1.1.1-1.7.3-.9.8-1.4 1.6-1.6.8-.2 1.9-.1 3.3.4l.6.2c.4.2.9.3 1.4.5l.1-.4c.2-.5.1-.9-.2-1.2-.3-.3-.8-.6-1.5-.9-.9-.3-1.9-.5-3-.6l.5-2c.5 0 1.1.1 1.9.3.7.1 1.4.3 2 .5 1.3.4 2.2 1 2.7 1.8s.6 1.7.2 2.8l-1.4 4.2c-.3.8-.5 1.4-.6 1.8l-2.2-.8c0-.4.1-.7.2-.9-.9.5-2 .5-3.1.1-.7-.3-1.2-.6-1.7-1zm4.5-.6c.4-.1.7-.4.8-.8l.3-.8-2.2-.8c-.4-.1-.7-.1-1-.1-.3.1-.5.3-.6.6-.1.4-.1.7.1 1 .2.3.6.6 1 .7.7.3 1.1.4 1.6.2z"/></g><g class="st4"><path class="st5" d="m67.7 130.1 2.8-.2-2.3 13.2-2.7-.5 2.2-12.5z"/></g><g class="st4"><path class="st5" d="M72.4 143.5c-.5-.3-1-.7-1.2-1.3-.3-.5-.4-1.1-.4-1.7.1-.9.4-1.6 1.1-2 .7-.4 1.8-.6 3.3-.5h.7c.5 0 .9.1 1.5.2v-.4c0-.5-.1-.8-.5-1.1-.3-.2-.9-.4-1.7-.5-.9-.1-1.9 0-3 .2v-2c.5-.1 1.1-.2 1.9-.2h2c1.4.1 2.4.5 3.1 1.1.7.6 1 1.5.9 2.6l-.3 4.4c-.1.9-.1 1.5-.1 1.9l-2.3-.2c-.1-.4-.1-.7-.1-.9-.8.7-1.8 1-2.9.9-.8 0-1.4-.2-2-.5zm4.2-1.7c.4-.2.6-.6.6-1l.1-.9-2.3-.2c-.4 0-.7 0-.9.2-.2.2-.4.4-.4.7 0 .4.1.7.4 1 .3.3.7.4 1.2.4.4.2.9.1 1.3-.2z"/></g><g class="st4"><path class="st5" d="M90.3 143.1c-1.1-.4-2-1.1-2.6-1.9s-1-1.9-1.2-3.1c-.2-1.2 0-2.4.5-3.4s1.2-1.9 2.2-2.5c1-.7 2.2-1.1 3.6-1.3 1.4-.2 2.6-.2 3.6.1v2.3c-.4-.1-.9-.2-1.5-.2s-1.2 0-1.8.1c-.8.1-1.5.3-2.1.7-.6.4-1.1.9-1.4 1.6-.3.7-.4 1.4-.3 2.2.2 1.3.7 2.2 1.5 2.8.9.6 2 .9 3.3.7.5-.1 1.1-.2 1.7-.3.6-.2 1.1-.3 1.5-.5l.5 2.1c-.4.2-.9.4-1.6.6-.6.2-1.3.3-1.9.4-1.6.1-2.9 0-4-.4z"/></g><g class="st4"><path class="st5" d="M101.5 141.2c-.9-.4-1.5-1.2-1.9-2.5l-1.6-5.6 2.6-.7 1.6 5.6c.2.6.4 1 .8 1.2.4.2.9.2 1.5 0s1-.4 1.2-.8c.2-.4.2-.9.1-1.5l-1.6-5.6 2.6-.7 1.6 5.6c.3 1.2.2 2.3-.4 3.1-.6.8-1.6 1.5-3 1.9-1.4.4-2.6.4-3.5 0z"/></g><g class="st4"><path class="st5" d="m108.7 129.8 2.1-.9.7 1.1c.6-1.2 1.6-2.1 2.8-2.8l.8 2.3-1.5.9c-.5.4-.9.8-1.2 1.2l2.4 5.8-2.5 1-3.6-8.6z"/></g><g class="st4"><path class="st5" d="M115 125.2c-.4-.1-.8-.4-1-.8-.2-.4-.2-.8-.1-1.3.2-.4.5-.8.9-1 .4-.2.9-.3 1.3-.2.4.1.8.4 1 .8.2.4.2.8.1 1.3-.2.4-.5.8-.9 1-.5.2-.9.3-1.3.2zm.7 1.5 2.4-1.3 4.4 8.4-2.4 1.3-4.4-8.4z"/></g><g class="st4"><path class="st5" d="M125.5 130.9c-1.3-.2-2.3-.9-3.2-2.2-.6-.8-.9-1.7-.9-2.5s.1-1.7.6-2.5c.4-.8 1.1-1.5 2-2.1.9-.6 1.8-1 2.7-1.1.9-.1 1.7 0 2.5.4s1.4 1 2 1.8c.6.8.9 1.7.9 2.5.1.9-.1 1.7-.6 2.5-.4.8-1.1 1.5-2 2.1-1.4 1-2.7 1.3-4 1.1zm3.9-4.4c.1-.7-.1-1.4-.6-2.1s-1.1-1.2-1.8-1.4c-.7-.1-1.3 0-1.9.4-.6.4-1 1-1.1 1.6-.1.7.1 1.4.6 2.1s1.1 1.2 1.8 1.3c.7.1 1.3 0 1.9-.4.6-.3 1-.9 1.1-1.5z"/></g><g class="st4"><path class="st5" d="m135.3 124.9-1.3-1.7c.5-.2 1-.5 1.5-.8s.9-.6 1.3-.9c.4-.4.7-.7.8-1 .1-.3.1-.5-.1-.7-.1-.1-.2-.2-.4-.2-.1 0-.4 0-.6.1-.3.1-.7.3-1.2.5-1 .5-1.8.7-2.5.7s-1.3-.3-1.8-.9c-.6-.7-.8-1.5-.5-2.4.3-.9.9-1.7 1.7-2.5.7-.6 1.5-1.2 2.4-1.7l1.3 1.7c-.8.3-1.5.8-2.2 1.4-.8.7-1.1 1.3-.8 1.6.1.2.4.2.7.1.3-.1.9-.3 1.6-.7 1-.5 1.8-.7 2.4-.7.6 0 1.1.3 1.6.8.7.8 1 1.7.8 2.6s-.8 1.8-1.6 2.6c-1 1-2.1 1.7-3.1 2.1z"/></g><g class="st4"><path class="st5" d="M134.7 110.5c-.4 0-.8-.1-1.2-.4s-.5-.7-.5-1.1c0-.5.2-.9.5-1.2.3-.4.7-.6 1.2-.6s.9.1 1.2.4.5.7.5 1.2-.2.9-.5 1.2c-.4.3-.8.5-1.2.5zm1.2 1.3 1.8-2 7 6.4-1.8 2-7-6.4z"/></g><g class="st4"><path class="st5" d="M147.8 111.8c-.7.4-1.5.6-2.4.5-.9-.1-1.7-.4-2.5-1s-1.4-1.3-1.7-2.1c-.3-.8-.5-1.7-.3-2.6.1-.9.5-1.7 1-2.5.3-.4.6-.7 1-1 .4-.3.7-.5 1-.5l-3.1-2.2 1-2.6 8.7 6.2c.7.5 1.4 1 2.2 1.5l-1.3 1.9c-.3-.1-.6-.3-.9-.4.1.4.1.9 0 1.4-.1.5-.4 1-.7 1.6-.6.9-1.3 1.5-2 1.8zm.9-4.5c.1-.4.1-.8 0-1.1l-2.1-1.5c-.5-.4-1.1-.5-1.6-.4-.5.1-1 .4-1.4 1-.5.6-.6 1.3-.5 2 .1.7.5 1.3 1.2 1.7.7.5 1.4.7 2.1.6.7-.1 1.3-.5 1.8-1.2.3-.3.4-.7.5-1.1z"/></g><g class="st4"><path class="st5" d="M154.7 101.4c-.5.4-1 .6-1.6.7-.6.1-1.1 0-1.7-.3-.8-.4-1.3-1-1.4-1.8-.1-.8.1-1.9.8-3.2l.3-.6c.2-.4.4-.8.7-1.3l-.4-.2c-.4-.2-.8-.2-1.2 0-.4.2-.7.7-1 1.4-.4.8-.7 1.8-1 2.9l-1.9-.7c.1-.5.3-1.1.5-1.8s.5-1.3.8-1.9c.6-1.2 1.3-2.1 2.1-2.5s1.7-.4 2.8.1l4 1.9c.8.4 1.4.6 1.7.8l-1 2.1c-.4-.1-.7-.2-.9-.3.3 1 .3 2-.3 3.1-.4.7-.8 1.2-1.3 1.6zm0-4.4c-.1-.4-.3-.7-.7-.9l-.8-.4-1 2.1c-.2.3-.2.7-.2.9.1.3.2.5.5.6.4.2.7.2 1.1 0 .3-.2.6-.5.8-.9.3-.5.4-1 .3-1.4z"/></g><g class="st4"><path class="st5" d="M159.5 89.7c-.6.6-1.3 1-2.1 1.3-.8.2-1.7.2-2.7-.1-1-.3-1.7-.7-2.3-1.4-.6-.7-1-1.4-1.1-2.3-.2-.9-.1-1.8.1-2.7.1-.4.3-.9.6-1.3s.5-.7.8-.8l-3.6-1 .1-2.8 10.3 2.9c.8.2 1.6.5 2.6.7l-.6 2.2c-.3 0-.7 0-1-.1v.1c.2.4.4.8.5 1.4.1.5 0 1.1-.2 1.7-.4.9-.8 1.6-1.4 2.2zm-.6-4.6c-.1-.4-.2-.8-.4-1.1l-2.4-.7c-.6-.2-1.2-.1-1.6.1-.5.3-.8.7-1 1.4-.2.8-.1 1.4.2 2 .3.6.9 1 1.7 1.2.8.2 1.6.2 2.2-.1s1.1-.9 1.3-1.7c0-.2.1-.6 0-1.1z"/></g></g></svg>