<svg id="Capa_1" data-name="Capa 1" xmlns="http://www.w3.org/2000/svg" xmlns:xlink="http://www.w3.org/1999/xlink" viewBox="0 0 168.08 168.08"><defs><style>.cls-1{fill:#009ca6;}.cls-2{fill:#fff;}.cls-3{fill:url(#Degradado_sin_nombre_12);}.cls-4,.cls-5{fill:none;}.cls-4{stroke:#d2151a;stroke-miterlimit:10;stroke-width:2.09px;}.cls-5{stroke:#d21217;stroke-linecap:round;stroke-linejoin:round;stroke-width:1.39px;}.cls-6{fill:#d21217;}.cls-7{fill:#f2f2f2;}</style><linearGradient id="Degradado_sin_nombre_12" x1="-459.79" y1="1416.32" x2="-458.79" y2="1416.32" gradientTransform="matrix(110.71, 0, 0, -110.71, 50930.61, 156875.92)" gradientUnits="userSpaceOnUse"><stop offset="0" stop-color="#f9f9f9"/><stop offset="1" stop-color="#f2f2f2"/></linearGradient></defs><path class="cls-1" d="M0,84H0a84,84,0,1,1,84,84A84,84,0,0,1,0,84"/><path class="cls-2" d="M138.77,78.52A54.73,54.73,0,1,1,84,23.78a54.73,54.73,0,0,1,54.73,54.74"/><path class="cls-3" d="M138.77,78.52h0A54.73,54.73,0,1,1,84,23.78a54.73,54.73,0,0,1,54.73,54.74h0A54.73,54.73,0,1,0,84,133.25a54.73,54.73,0,0,0,54.73-54.73Z"/><circle class="cls-4" cx="84.04" cy="78.52" r="54.73" transform="translate(-30.9 82.42) rotate(-45)"/><path class="cls-5" d="M67.16,82.74,68.55,85a4.15,4.15,0,0,1,.56,2.88l-1.46,13.72"/><path class="cls-5" d="M81.33,102.24l-.65-14a6.33,6.33,0,0,1,2.17-5.06,4.13,4.13,0,0,0,1.27-2l1.17-7.28"/><path class="cls-5" d="M76.24,82s1.38-5.5-4.69-6.71V73.72L73,73.16a3.06,3.06,0,0,0,1.8-3.82,1.21,1.21,0,0,0-1.47-.79L70,69.49a3.57,3.57,0,0,0-.92.4l-4,2.51v8.19l2.07,2.15"/><path class="cls-5" d="M67,71.2A2.84,2.84,0,0,1,66.75,70V65.88a2.88,2.88,0,0,1,5.76,0v2.91"/><path class="cls-5" d="M72.28,64.56a2.88,2.88,0,0,1,5.73.53l-.48,5.15a2.88,2.88,0,0,1-3.13,2.61"/><path class="cls-5" d="M78,64.69a2.7,2.7,0,0,1,5.21,1.2l-.53,5.73a2.45,2.45,0,0,1-2.87,2.18,2.52,2.52,0,0,1-2.5-2.67"/><path class="cls-5" d="M83.15,66a2.57,2.57,0,0,1,1.07-.23c1.45,0,2.48.65,2.48,2.1l-.63,4.45c-.2,1.21-.6,1.94-2,1.94-1,0-1.71-.11-2.14-1"/><path class="cls-5" d="M88.39,90.6l.75,1.56a2.71,2.71,0,0,1,.17,1.92l-2.11,7.51"/><path class="cls-5" d="M96.74,102.24l.08-7.09A4.14,4.14,0,0,1,98.59,92a2.73,2.73,0,0,0,1-1.22l1.28-4.66"/><path class="cls-5" d="M94.36,90.75A3.55,3.55,0,0,0,91.78,86l.11-1,1-.27a2,2,0,0,0,1.44-2.36.79.79,0,0,0-.9-.61l-2.25.37a2,2,0,0,0-.63.2l-2.77,1.35-.57,5.34,1.19,1.55"/><path class="cls-5" d="M89.1,83.06a1.8,1.8,0,0,1-.08-.77l.29-2.71a1.89,1.89,0,0,1,3.75.4l-.2,1.9"/><path class="cls-5" d="M93,79.11a1.89,1.89,0,0,1,3.7.74L96,83.18a1.89,1.89,0,0,1-2.22,1.48"/><path class="cls-5" d="M96.74,79.59a1.77,1.77,0,0,1,3.31,1.15l-.75,3.7a1.6,1.6,0,0,1-2,1.22,1.64,1.64,0,0,1-1.44-1.92"/><path class="cls-5" d="M100,80.8a1.74,1.74,0,0,1,.72-.07c1,.1,1.57.6,1.47,1.54l-.73,2.86c-.21.77-.52,1.22-1.47,1.12-.67-.07-1.1-.19-1.33-.77"/><path class="cls-6" d="M90,54.39l6.23-.86a.51.51,0,0,1,.54.68L95,58.74a.49.49,0,0,0,.54.67l1.4-.22a.5.5,0,0,1,.41.87L90.3,66.3a.49.49,0,0,1-.79-.56l1.87-4.47a.51.51,0,0,0-.46-.69H89.25a.49.49,0,0,1-.49-.58l.82-5.19a.49.49,0,0,1,.42-.42"/><path class="cls-6" d="M97.65,65.12,100.76,67a.5.5,0,0,1,0,.86l-2.2,1.26a.51.51,0,0,0,0,.87.5.5,0,0,1-.23.93l-4.72.19a.5.5,0,0,1-.26-.94l1.85-1a.51.51,0,0,0,.08-.83L94.8,68a.5.5,0,0,1,0-.76l2.28-2a.5.5,0,0,1,.59,0"/><path class="cls-7" d="M28.35,111.38l3.84,7.32-2.17.47-2.41-4.6-2.49,1.31L27.26,120l-2,.9-2.09-4L21,118.05l2.7,5.14-2.18.48-3.57-6.81Z"/><path class="cls-7" d="M30.6,121.55,32,123.2l-.53.61a5.7,5.7,0,0,1,1.43.61,4.72,4.72,0,0,1,1.23,1,3.2,3.2,0,0,1,.66,1.21,2.57,2.57,0,0,1,.06,1.29,10,10,0,0,1,1.67.77,5.17,5.17,0,0,1,1.32,1.08,3.48,3.48,0,0,1,.65,1.11,2,2,0,0,1,.13,1.06,2.59,2.59,0,0,1-.48,1.16A7.37,7.37,0,0,1,37,134.31L32.67,138l-1.58-1.86,4.09-3.5a5.64,5.64,0,0,0,.64-.61,1.1,1.1,0,0,0,.26-.5,1.33,1.33,0,0,0-.42-1.09,3.24,3.24,0,0,0-.75-.61,5.07,5.07,0,0,0-.94-.46c-.15.15-.38.35-.68.6L29,133.65l-1.59-1.85,4.1-3.5a3.29,3.29,0,0,0,.56-.58,1.52,1.52,0,0,0,.27-.54A1.22,1.22,0,0,0,32,126.1a3.22,3.22,0,0,0-.76-.64,3.73,3.73,0,0,0-.94-.41l-5,4.27-1.59-1.86Z"/><path class="cls-7" d="M41.45,133.43l1.61,1.2-.49.83a4.71,4.71,0,0,1,3.12.94,4.3,4.3,0,0,1,1.44,1.75,3.92,3.92,0,0,1,.3,2.2,4.93,4.93,0,0,1-1,2.29,5.34,5.34,0,0,1-2.08,1.77,4,4,0,0,1-2.31.33,5.11,5.11,0,0,1-2.25-1,5,5,0,0,1-1-.94,4,4,0,0,1-.58-1L35.91,145,33.57,144Zm1.21,9a2.94,2.94,0,0,0,1.74-1.27,2.51,2.51,0,0,0,.6-1.89,2.18,2.18,0,0,0-.91-1.51,2.34,2.34,0,0,0-1.67-.54,2,2,0,0,0-1.39.82L39.59,140a2.41,2.41,0,0,0,.4,1,3.3,3.3,0,0,0,.85,1A2.26,2.26,0,0,0,42.66,142.46Z"/><path class="cls-7" d="M47.93,147.63a4.68,4.68,0,0,1,.41-3.66A5.21,5.21,0,0,1,50,142a4,4,0,0,1,2.22-.72,5.95,5.95,0,0,1,4.53,2.26,4,4,0,0,1,.75,2.2,5.13,5.13,0,0,1-.6,2.5,5.24,5.24,0,0,1-1.64,2,4,4,0,0,1-2.22.72,5.32,5.32,0,0,1-2.52-.62A4.78,4.78,0,0,1,47.93,147.63Zm5.27,1a3,3,0,0,0,1.46-1.52A2.93,2.93,0,0,0,55,145a2.1,2.1,0,0,0-1.16-1.37,2.13,2.13,0,0,0-1.79-.1,3,3,0,0,0-1.47,1.53,2.89,2.89,0,0,0-.33,2.08,2.16,2.16,0,0,0,1.17,1.38A2.13,2.13,0,0,0,53.2,148.65Z"/><path class="cls-7" d="M60,153.71a4,4,0,0,1-1.09-2,5.23,5.23,0,0,1,.15-2.58,4.87,4.87,0,0,1,1.33-2.22,4.3,4.3,0,0,1,2.12-1.1,4.86,4.86,0,0,1,2.42.11,3.87,3.87,0,0,1,1.12.54,2.25,2.25,0,0,1,.73.76h0l1-3.44,2.52.08-2.92,9.77c-.22.74-.45,1.56-.7,2.48l-2-.58c0-.31.06-.62.11-.93l0,0a2.79,2.79,0,0,1-1.25.45,3.63,3.63,0,0,1-1.55-.14A4.65,4.65,0,0,1,60,153.71Zm4.18-.61a2.15,2.15,0,0,0,1-.4l.7-2.32a1.82,1.82,0,0,0-1.34-2.47,2.19,2.19,0,0,0-1.86.2,2.58,2.58,0,0,0-1.16,1.59,2.87,2.87,0,0,0,.06,2.09A2.3,2.3,0,0,0,63,153,2.56,2.56,0,0,0,64.16,153.1Z"/><path class="cls-7" d="M71.27,155.9a4.6,4.6,0,0,1-.8-3.6,5.22,5.22,0,0,1,.86-2.34,4.06,4.06,0,0,1,1.8-1.47,4.83,4.83,0,0,1,2.55-.3,3.7,3.7,0,0,1,2.86,1.61,4.79,4.79,0,0,1,.59,3.2,7.66,7.66,0,0,1-.26,1.22l-6-.78a1.68,1.68,0,0,0,.56,1.44,3.38,3.38,0,0,0,1.87.74,6.86,6.86,0,0,0,2.63-.11l0,2a7.93,7.93,0,0,1-3.09.1A5.19,5.19,0,0,1,71.27,155.9Zm5.48-3.66a2.55,2.55,0,0,0-.3-1.65,1.47,1.47,0,0,0-1.11-.61,1.78,1.78,0,0,0-1.46.36,2.25,2.25,0,0,0-.71,1.43Z"/><path class="cls-7" d="M81.68,148.91l2.09,0,.18,1.22a6,6,0,0,1,3.27-1.44l0,2.32a6.2,6.2,0,0,0-1.55.32,7,7,0,0,0-1.45.65l.09,6-2.44,0Z"/><path class="cls-7" d="M90.88,157.49a3.07,3.07,0,0,1-1.33-1,3.15,3.15,0,0,1-.62-1.53,2.34,2.34,0,0,1,.63-2.09,5.06,5.06,0,0,1,2.83-1l.59-.07a13.15,13.15,0,0,1,1.32-.1l0-.4a1.12,1.12,0,0,0-.61-.94,2.85,2.85,0,0,0-1.56-.12,11.27,11.27,0,0,0-2.64.7l-.39-1.9a13.83,13.83,0,0,1,1.61-.53,16.84,16.84,0,0,1,1.8-.36,4.44,4.44,0,0,1,2.91.44,3,3,0,0,1,1.29,2.31l.52,4.16c.1.82.19,1.42.26,1.8l-2.09.26a6.59,6.59,0,0,1-.23-.85h0a3.46,3.46,0,0,1-2.43,1.36A3.73,3.73,0,0,1,90.88,157.49Zm3.36-2.29a1.14,1.14,0,0,0,.36-1l-.1-.83-2.09.26a1.29,1.29,0,0,0-.79.35.84.84,0,0,0-.22.73,1.12,1.12,0,0,0,.52.85,1.68,1.68,0,0,0,1.12.19A2,2,0,0,0,94.24,155.2Z"/><path class="cls-7" d="M98.56,147.66l2-.69.37.72a6,6,0,0,1,1.1-1.09,4.83,4.83,0,0,1,1.41-.76,3.39,3.39,0,0,1,1.36-.16,2.64,2.64,0,0,1,1.23.44,8.08,8.08,0,0,1,1.34-1.27,5.26,5.26,0,0,1,1.49-.82,3.79,3.79,0,0,1,1.28-.19,2.2,2.2,0,0,1,1,.28,2.67,2.67,0,0,1,.89.88,7.09,7.09,0,0,1,.66,1.53l1.8,5.37-2.31.77-1.71-5.11a5.69,5.69,0,0,0-.33-.82,1.13,1.13,0,0,0-.37-.43,1.39,1.39,0,0,0-1.16,0,3.33,3.33,0,0,0-.85.47,4.93,4.93,0,0,0-.78.7c.08.2.18.48.3.86l1.8,5.39-2.31.77-1.71-5.11a3.79,3.79,0,0,0-.32-.74,1.47,1.47,0,0,0-.41-.45,1.25,1.25,0,0,0-1.13-.08,3,3,0,0,0-.87.47,3.52,3.52,0,0,0-.73.71l2.08,6.23-2.32.78Z"/><path class="cls-7" d="M113,140.41a1.56,1.56,0,0,1-1-1.94,1.62,1.62,0,0,1,2-1,1.42,1.42,0,0,1,.92.76,1.41,1.41,0,0,1,.11,1.18,1.62,1.62,0,0,1-.78.91A1.55,1.55,0,0,1,113,140.41Zm.67,1.48,2.16-1.14,4.25,8.05L118,149.94Z"/><path class="cls-7" d="M123.39,145.71a4.63,4.63,0,0,1-3-2.13,5.2,5.2,0,0,1-.93-2.31,4.05,4.05,0,0,1,.34-2.3,4.87,4.87,0,0,1,1.69-1.93,3.69,3.69,0,0,1,3.21-.73,4.74,4.74,0,0,1,2.58,2,6.05,6.05,0,0,1,.62,1.08L123,142.78a1.65,1.65,0,0,0,1.38.69,3.38,3.38,0,0,0,1.88-.7,6.75,6.75,0,0,0,1.87-1.86l1.3,1.5a8.19,8.19,0,0,1-2.22,2.16A5.22,5.22,0,0,1,123.39,145.71Zm1.61-6.4-.21-.26a2.19,2.19,0,0,0-1.13-.75,1.48,1.48,0,0,0-1.23.29,1.78,1.78,0,0,0-.83,1.25,2.2,2.2,0,0,0,.43,1.53Z"/><path class="cls-7" d="M126.42,133.58l1.55-1.52.64.49a6,6,0,0,1,.55-1.51,4.75,4.75,0,0,1,.89-1.24,3,3,0,0,1,2.3-1,3.77,3.77,0,0,1,2.4,1.33l4,4.08L137,135.94l-3.81-3.89a2.91,2.91,0,0,0-.68-.55,1.32,1.32,0,0,0-.6-.14,1.61,1.61,0,0,0-1,.54,3,3,0,0,0-.61.83,3.93,3.93,0,0,0-.33.94l4.6,4.69-1.75,1.71Z"/><path class="cls-7" d="M141,130.41a3.08,3.08,0,0,1-2.47-.82l-6.39-4.82,1.18-2.17,2,1.5,1.9-2.52,1.38,1.59L137,125.34l2.7,2a1.79,1.79,0,0,0,1.12.45,1.24,1.24,0,0,0,.89-.57,7.4,7.4,0,0,0,.84-1.35l1.61,1a5.65,5.65,0,0,1-.43.94,9.6,9.6,0,0,1-.66,1A3.63,3.63,0,0,1,141,130.41Z"/><path class="cls-7" d="M145.52,123.31a4.69,4.69,0,0,1-3.64-.52,5.18,5.18,0,0,1-1.94-1.71,3.87,3.87,0,0,1-.66-2.24,5.92,5.92,0,0,1,2.39-4.46,4,4,0,0,1,2.22-.69,5.67,5.67,0,0,1,4.43,2.38,3.89,3.89,0,0,1,.66,2.24,5.39,5.39,0,0,1-.7,2.5A4.76,4.76,0,0,1,145.52,123.31Zm1.17-5.24a2.87,2.87,0,0,0-1.47-1.5,3,3,0,0,0-2.09-.4,2.27,2.27,0,0,0-1.55,2.91,2.91,2.91,0,0,0,1.48,1.51,2.86,2.86,0,0,0,2.07.39,2.12,2.12,0,0,0,1.41-1.13A2.08,2.08,0,0,0,146.69,118.07Z"/></svg>