<svg id="Capa_1" data-name="Capa 1" xmlns="http://www.w3.org/2000/svg" xmlns:xlink="http://www.w3.org/1999/xlink" viewBox="0 0 168.08 168.08"><defs><style>.cls-1{fill:#009ca6;}.cls-2{fill:#fff;}.cls-3{fill:url(#Degradado_sin_nombre_12);}.cls-10,.cls-11,.cls-4,.cls-6,.cls-7,.cls-9{fill:none;}.cls-4{stroke:#d2151a;stroke-miterlimit:10;stroke-width:2.09px;}.cls-5{fill:#f2f2f2;}.cls-10,.cls-11,.cls-6,.cls-7,.cls-9{stroke:#d21217;stroke-linecap:round;stroke-linejoin:round;}.cls-6{stroke-width:1.39px;}.cls-7{stroke-width:0.93px;}.cls-8{fill:#d21217;}.cls-9{stroke-width:1.22px;}.cls-10{stroke-width:1.05px;}.cls-11{stroke-width:0.52px;}</style><linearGradient id="Degradado_sin_nombre_12" x1="-83.57" y1="1216.31" x2="-82.57" y2="1216.31" gradientTransform="matrix(110.71, 0, 0, -110.71, 9280.91, 134733.23)" gradientUnits="userSpaceOnUse"><stop offset="0" stop-color="#f9f9f9"/><stop offset="1" stop-color="#f2f2f2"/></linearGradient></defs><path class="cls-1" d="M0,84H0A84,84,0,0,1,84,0h0a84,84,0,0,1,0,168.08h0A84,84,0,0,1,0,84"/><path class="cls-2" d="M138.77,78.52A54.73,54.73,0,1,1,84,23.78a54.73,54.73,0,0,1,54.73,54.74"/><path class="cls-3" d="M138.77,78.52h0A54.73,54.73,0,1,1,84,23.78a54.73,54.73,0,0,1,54.73,54.74h0A54.73,54.73,0,1,0,84,133.25a54.73,54.73,0,0,0,54.73-54.73Z"/><circle class="cls-4" cx="84.04" cy="78.52" r="54.73" transform="translate(-30.9 82.42) rotate(-45)"/><path class="cls-5" d="M23.9,91.2l1,8.59-2.2-.39L22.05,94,19,94.38l.52,4.75-2.14.13-.52-4.65-4.38.49-.29-2.6Z"/><path class="cls-5" d="M14.93,104a4.53,4.53,0,0,1,2.92-2.27,4.92,4.92,0,0,1,2.59-.14,4,4,0,0,1,2.08,1.21,5.8,5.8,0,0,1,1.31,2.39,5.94,5.94,0,0,1,.24,2.73A4.06,4.06,0,0,1,23,110a4.87,4.87,0,0,1-2.22,1.32,4.92,4.92,0,0,1-2.59.14,4.13,4.13,0,0,1-2.08-1.21,5.93,5.93,0,0,1-1.31-2.39A5.23,5.23,0,0,1,14.93,104Zm3,4.81a2.78,2.78,0,0,0,2.12,0,2.81,2.81,0,0,0,1.74-1.22,2.48,2.48,0,0,0-1-3.34,2.81,2.81,0,0,0-2.13,0,2.81,2.81,0,0,0-1.73,1.22,2.33,2.33,0,0,0-.16,1.89A2.22,2.22,0,0,0,17.89,108.79Z"/><path class="cls-5" d="M25.51,111.52l1.17,2-.62.52a6.22,6.22,0,0,1,1.35.92,5.7,5.7,0,0,1,1.08,1.28,3.77,3.77,0,0,1,.49,1.37,2.87,2.87,0,0,1-.14,1.34A9.22,9.22,0,0,1,30.41,120a6.06,6.06,0,0,1,1.17,1.36,4.22,4.22,0,0,1,.49,1.27,2.25,2.25,0,0,1,0,1.11,2.69,2.69,0,0,1-.65,1.09,7.4,7.4,0,0,1-1.35,1l-4.86,2.9-1.32-2.22,4.63-2.75a5.38,5.38,0,0,0,.73-.51,1.19,1.19,0,0,0,.34-.45,1.52,1.52,0,0,0-.27-1.2,3.7,3.7,0,0,0-.66-.78,6,6,0,0,0-.88-.65l-.77.48-4.88,2.9-1.32-2.21,4.63-2.76a4.41,4.41,0,0,0,.65-.47,1.43,1.43,0,0,0,.34-.51,1.32,1.32,0,0,0-.19-1.17,3.32,3.32,0,0,0-.67-.8,3.66,3.66,0,0,0-.88-.61L19,118.39l-1.32-2.22Z"/><path class="cls-5" d="M29.19,131.53a4.46,4.46,0,0,1,1.6-3.35A5,5,0,0,1,33,126.92a4.32,4.32,0,0,1,2.39,0,5.4,5.4,0,0,1,2.26,1.48,4,4,0,0,1,1.34,3.18,4.6,4.6,0,0,1-1.52,2.9,6.4,6.4,0,0,1-1,.77l-4.37-4.58a1.62,1.62,0,0,0-.44,1.49A3.66,3.66,0,0,0,32.7,134a7.48,7.48,0,0,0,2.22,1.68l-1.28,1.52a9,9,0,0,1-2.59-2A5.78,5.78,0,0,1,29.19,131.53Zm6.77.81a2.32,2.32,0,0,0,.22-.25,2.16,2.16,0,0,0,.56-1.25,1.62,1.62,0,0,0-.53-1.22,2,2,0,0,0-1.42-.69,2.12,2.12,0,0,0-1.46.65Z"/><path class="cls-5" d="M41.62,132.67,43.45,134l-.37.72a6.29,6.29,0,0,1,1.64.36,5.33,5.33,0,0,1,1.43.73,3.26,3.26,0,0,1,1.43,2.2,3.61,3.61,0,0,1-.9,2.61l-3.41,4.59L41.2,143.7l3.24-4.37a2.32,2.32,0,0,0,.43-.76,1.23,1.23,0,0,0,0-.63,1.81,1.81,0,0,0-.74-1,3.3,3.3,0,0,0-1-.5,3.67,3.67,0,0,0-1-.22l-3.92,5.27L36.19,140Z"/><path class="cls-5" d="M47,146.67a3,3,0,0,1,.41-2.59l3.83-7,2.44.91-1.19,2.19,2.92,1.59-1.38,1.59L51.53,142l-1.61,3a1.68,1.68,0,0,0-.27,1.18,1.38,1.38,0,0,0,.75.83,8.2,8.2,0,0,0,1.54.68l-.81,1.74a6,6,0,0,1-1-.31,11,11,0,0,1-1.15-.54A4,4,0,0,1,47,146.67Z"/><path class="cls-5" d="M54.56,150.92a3.15,3.15,0,0,1-.79-1.48,3,3,0,0,1,.15-1.66,2.3,2.3,0,0,1,1.59-1.52,5.56,5.56,0,0,1,3.13.49l.58.22c.41.16.84.35,1.28.57l.15-.38a1.1,1.1,0,0,0-.12-1.12,3.32,3.32,0,0,0-1.41-.88,12,12,0,0,0-2.79-.67l.53-1.87a15.46,15.46,0,0,1,1.76.33,14.56,14.56,0,0,1,1.86.57A4.82,4.82,0,0,1,63,145.33a2.86,2.86,0,0,1,.1,2.66l-1.5,3.92c-.29.77-.5,1.34-.61,1.71l-2.08-.8a5.38,5.38,0,0,1,.19-.86h0a3.7,3.7,0,0,1-2.92,0A4,4,0,0,1,54.56,150.92Zm4.23-.36a1.12,1.12,0,0,0,.83-.73l.3-.78-2.08-.79a1.45,1.45,0,0,0-.9-.09.84.84,0,0,0-.55.54,1.07,1.07,0,0,0,.08,1,1.83,1.83,0,0,0,1,.72A2.2,2.2,0,0,0,58.79,150.56Z"/><path class="cls-5" d="M70.65,143.55l2.65-.14L70.88,156l-2.53-.49Z"/><path class="cls-5" d="M75.09,156.38a3.06,3.06,0,0,1-1.17-1.2,2.9,2.9,0,0,1-.32-1.63,2.25,2.25,0,0,1,1.09-1.9,5.56,5.56,0,0,1,3.14-.42l.62.05c.44,0,.91.1,1.39.18l0-.4a1.09,1.09,0,0,0-.43-1.05,3.26,3.26,0,0,0-1.59-.44,12.35,12.35,0,0,0-2.87.14v-1.94a13.31,13.31,0,0,1,1.77-.18,15.69,15.69,0,0,1,2,0,4.91,4.91,0,0,1,2.92,1,2.88,2.88,0,0,1,.84,2.53l-.33,4.18c-.07.82-.1,1.43-.11,1.81L79.79,157a5,5,0,0,1-.06-.88h0a3.68,3.68,0,0,1-2.8.83A4.18,4.18,0,0,1,75.09,156.38Zm4-1.54a1.13,1.13,0,0,0,.6-.93l.06-.83-2.22-.18a1.38,1.38,0,0,0-.89.18.81.81,0,0,0-.38.66,1.07,1.07,0,0,0,.36.94,1.77,1.77,0,0,0,1.12.42A2.15,2.15,0,0,0,79.05,154.84Z"/><path class="cls-5" d="M92.36,156a5.27,5.27,0,0,1-2.53-1.82,6.28,6.28,0,0,1-1.15-2.94,6,6,0,0,1,.38-3.27,5.54,5.54,0,0,1,2-2.46,7.6,7.6,0,0,1,3.38-1.24,10.35,10.35,0,0,1,3.44,0l.08,2.18a7.56,7.56,0,0,0-1.43-.16,9.15,9.15,0,0,0-1.66.09,4.79,4.79,0,0,0-2,.74,3.38,3.38,0,0,0-1.28,1.52,4,4,0,0,0-.24,2.14,3.8,3.8,0,0,0,1.48,2.69,4.2,4.2,0,0,0,3.18.64,11.91,11.91,0,0,0,1.59-.34A10.88,10.88,0,0,0,99,153.3l.49,2a8.18,8.18,0,0,1-1.47.58,13.32,13.32,0,0,1-1.84.39A7.89,7.89,0,0,1,92.36,156Z"/><path class="cls-5" d="M103.28,154a3.43,3.43,0,0,1-1.88-2.36l-1.66-5.32,2.46-.77,1.65,5.29a1.73,1.73,0,0,0,.82,1.12,1.78,1.78,0,0,0,2.58-2.18l-1.66-5.29,2.46-.77,1.67,5.32a3.39,3.39,0,0,1-.25,3,6.24,6.24,0,0,1-6.19,2Z"/><path class="cls-5" d="M109.84,142.83l2-.93.66,1a6.61,6.61,0,0,1,2.56-2.74l.9,2.14a7.58,7.58,0,0,0-1.35,1,7.74,7.74,0,0,0-1.14,1.23L116,150l-2.33,1.1Z"/><path class="cls-5" d="M115.62,138.14a1.5,1.5,0,0,1-1.12-1.89,1.82,1.82,0,0,1,2-1.2,1.42,1.42,0,0,1,1,.7,1.39,1.39,0,0,1,.14,1.19,1.78,1.78,0,0,1-2,1.2Zm.73,1.45,2.22-1.31,4.64,7.83L121,147.42Z"/><path class="cls-5" d="M126.08,143a4.52,4.52,0,0,1-3.17-1.9,4.94,4.94,0,0,1-1.06-2.37,4,4,0,0,1,.38-2.37A5.86,5.86,0,0,1,124,134.3a6.07,6.07,0,0,1,2.47-1.2,4,4,0,0,1,2.38.21,5.42,5.42,0,0,1,3.09,4,4.09,4.09,0,0,1-.38,2.37,6,6,0,0,1-1.76,2.09A5.23,5.23,0,0,1,126.08,143Zm3.43-4.49a2.83,2.83,0,0,0-.72-2,2.89,2.89,0,0,0-1.77-1.18,2.49,2.49,0,0,0-2.75,2.14,2.84,2.84,0,0,0,.72,2,2.74,2.74,0,0,0,1.76,1.17,2.5,2.5,0,0,0,2.76-2.14Z"/><path class="cls-5" d="M135.15,136.54,133.77,135a11.31,11.31,0,0,0,1.33-.84,7.78,7.78,0,0,0,1.12-1,2.91,2.91,0,0,0,.69-1.06.67.67,0,0,0-.16-.69.55.55,0,0,0-.38-.15,1.64,1.64,0,0,0-.59.17,10.6,10.6,0,0,0-1.06.6,5.05,5.05,0,0,1-2.32.86,2.35,2.35,0,0,1-1.75-.67A2.19,2.19,0,0,1,130,130a5.6,5.6,0,0,1,1.45-2.54,11.92,11.92,0,0,1,2.16-1.81l1.34,1.5a8,8,0,0,0-1.94,1.52c-.71.76-.9,1.29-.58,1.6.15.14.37.15.67,0a14.22,14.22,0,0,0,1.48-.79,5,5,0,0,1,2.23-.82,2.14,2.14,0,0,1,1.56.64,2.61,2.61,0,0,1,.93,2.4,4.85,4.85,0,0,1-1.35,2.57A11.41,11.41,0,0,1,135.15,136.54Z"/><path class="cls-5" d="M133.43,122.84a1.45,1.45,0,0,1-1.17-.27,1.43,1.43,0,0,1-.59-1,1.71,1.71,0,0,1,.36-1.21,1.67,1.67,0,0,1,1-.67,1.43,1.43,0,0,1,1.18.26,1.41,1.41,0,0,1,.58,1,1.79,1.79,0,0,1-1.4,1.88Zm1.23,1.06,1.54-2.06,7.29,5.45L142,129.35Z"/><path class="cls-5" d="M146.1,122.75a4.11,4.11,0,0,1-2.23.72,4.82,4.82,0,0,1-2.5-.67,4.65,4.65,0,0,1-1.88-1.79,4.57,4.57,0,0,1-.58-2.4,5.25,5.25,0,0,1,.69-2.46,4.44,4.44,0,0,1,.8-1,2.67,2.67,0,0,1,.92-.6h0l-3.14-1.73.68-2.57,8.93,4.92c.67.37,1.43.77,2.28,1.21l-1,1.9a7.16,7.16,0,0,1-.89-.3l0,0a3,3,0,0,1,.15,1.37,4,4,0,0,1-.51,1.56A5.15,5.15,0,0,1,146.1,122.75Zm.39-4.41a2.26,2.26,0,0,0-.16-1.08l-2.12-1.17a1.87,1.87,0,0,0-1.55-.22,2.15,2.15,0,0,0-1.2,1.1,2.4,2.4,0,0,0-.25,1.94,2.57,2.57,0,0,0,1.29,1.51,2.78,2.78,0,0,0,2.08.35,2.46,2.46,0,0,0,1.56-1.29A2.75,2.75,0,0,0,146.49,118.34Z"/><path class="cls-5" d="M151.58,111.85a3.06,3.06,0,0,1-1.44.85,2.86,2.86,0,0,1-1.66-.07,2.27,2.27,0,0,1-1.6-1.5,5.62,5.62,0,0,1,.33-3.15l.2-.6c.14-.42.3-.85.5-1.31l-.38-.12a1.08,1.08,0,0,0-1.12.18,3.08,3.08,0,0,0-.8,1.44,12,12,0,0,0-.54,2.83l-1.89-.45a14.12,14.12,0,0,1,.24-1.77,13,13,0,0,1,.48-1.89,4.88,4.88,0,0,1,1.68-2.6,2.88,2.88,0,0,1,2.65-.22l4,1.3c.79.26,1.36.43,1.74.53l-.7,2.12a6,6,0,0,1-.86-.15v0a3.72,3.72,0,0,1,.14,2.92A4.11,4.11,0,0,1,151.58,111.85Zm-.57-4.22a1.12,1.12,0,0,0-.77-.79l-.79-.26-.69,2.12a1.35,1.35,0,0,0,0,.9.83.83,0,0,0,.56.53,1.1,1.1,0,0,0,1-.13,1.88,1.88,0,0,0,.67-1A2.2,2.2,0,0,0,151,107.63Z"/><path class="cls-5" d="M154.65,100a4.13,4.13,0,0,1-1.81,1.49,4.83,4.83,0,0,1-2.57.31,4.7,4.7,0,0,1-2.41-1,4.55,4.55,0,0,1-1.42-2,5.29,5.29,0,0,1-.27-2.54,4,4,0,0,1,.36-1.26,2.38,2.38,0,0,1,.63-.9v0l-3.56-.44L143.28,91l10.12,1.27c.76.1,1.61.19,2.56.29l-.27,2.15a7.3,7.3,0,0,1-.94,0v.06a3.08,3.08,0,0,1,.64,1.22,4,4,0,0,1,.1,1.63A5.26,5.26,0,0,1,154.65,100Zm-1.27-4.24a2.19,2.19,0,0,0-.55-.95l-2.4-.3a1.88,1.88,0,0,0-1.52.37,2.17,2.17,0,0,0-.71,1.46,2.4,2.4,0,0,0,.49,1.9,2.59,2.59,0,0,0,1.75.93,2.81,2.81,0,0,0,2.06-.45,2.47,2.47,0,0,0,1-1.77A2.8,2.8,0,0,0,153.38,95.71Z"/><path class="cls-6" d="M95,73.72a105.85,105.85,0,0,1-13.27.78,105,105,0,0,1-13.67-.83,15.38,15.38,0,0,0-1.81,7.24c0,8.54,7.05,14,15.46,15.46,5.24.92,17.67,6.61,15.45-15.46A19.43,19.43,0,0,0,95,73.72Z"/><path class="cls-6" d="M68.05,73.67c1.5-4.2,23.82-4.46,26.94.06"/><path class="cls-7" d="M92.44,82.53s.54,3.09,1.91,4.07a3.31,3.31,0,0,1-3.18.47"/><path class="cls-7" d="M89.28,80.47h0a2,2,0,0,1-4,0"/><path class="cls-7" d="M96.14,80a1.45,1.45,0,0,1-2.89,0"/><path class="cls-6" d="M73.6,93.38s1.86,6.29,1.41,8.1"/><path class="cls-6" d="M84.61,97a18.84,18.84,0,0,0,0,4.45"/><path class="cls-8" d="M73.6,93.38S69,82.74,73.07,81.15c4.4-1.71,5.43,4.54,5.43,4.54h2.15s-1.47-7.45,2.82-8.13L84.61,75v-.51s-10.32.14-15.73-.68a3.66,3.66,0,0,0-1.62,1.63s-4.53,11.78,6.34,18"/><path class="cls-2" d="M75.75,86.53a3.72,3.72,0,1,1,.7-5.2"/><path class="cls-9" d="M75.75,86.53a3.72,3.72,0,1,1,.7-5.2"/><path class="cls-6" d="M75.28,61.81a1.42,1.42,0,0,1,1.41,1.42,1.35,1.35,0,0,1-1.36,1.38,1.53,1.53,0,0,1-.85-.23h0a3.21,3.21,0,1,1,4.8-2.78,3.3,3.3,0,0,1-.17,1"/><path class="cls-6" d="M73.7,63.79a1.94,1.94,0,0,0-1.47-.66,2,2,0,0,0-2,2,1.66,1.66,0,0,0,0,.32,1.79,1.79,0,1,0-.94,3.31H84a1.49,1.49,0,0,0-.14-3,1.32,1.32,0,0,0-.39.06h-.12a2.89,2.89,0,0,0,.12-.78,2.83,2.83,0,0,0-5.66,0,2.89,2.89,0,0,0,.12.78"/><path class="cls-6" d="M87.25,65.93h0a2,2,0,0,1,2-2h4.15a2,2,0,1,1,0,4.07H89.29"/><path class="cls-10" d="M89.29,68c-.55.37-.11,1.17-.11,1.17s-1.86-.44-1.93-3"/><path class="cls-8" d="M85.84,55.47a2.68,2.68,0,1,1-2.68,2.68,2.68,2.68,0,0,1,2.68-2.68m0-1.39a4.07,4.07,0,1,0,4.07,4.07,4.08,4.08,0,0,0-4.07-4.07"/><path class="cls-8" d="M85.92,65.45h-.16a.49.49,0,0,1-.48-.48V62.83a.49.49,0,0,1,.48-.49h.16a.49.49,0,0,1,.48.49V65a.49.49,0,0,1-.48.48"/><line class="cls-11" x1="85.84" y1="61.93" x2="85.84" y2="62.6"/><line class="cls-10" x1="85.29" y1="56.73" x2="84.25" y2="57.89"/><line class="cls-10" x1="85.99" y1="57.7" x2="84.95" y2="58.87"/></svg>