<svg id="Capa_1" data-name="Capa 1" xmlns="http://www.w3.org/2000/svg" xmlns:xlink="http://www.w3.org/1999/xlink" viewBox="0 0 168.08 168.08"><defs><style>.cls-1{fill:#009ca6;}.cls-2{fill:#fff;}.cls-3{fill:url(#Degradado_sin_nombre_12);}.cls-4,.cls-6{fill:none;}.cls-4{stroke:#d2151a;stroke-miterlimit:10;stroke-width:2.09px;}.cls-5{fill:#f2f2f2;}.cls-6{stroke:#d21217;stroke-linecap:round;stroke-linejoin:round;stroke-width:1.39px;}.cls-7{fill:#d21217;}</style><linearGradient id="Degradado_sin_nombre_12" x1="-266.49" y1="1216.31" x2="-265.49" y2="1216.31" gradientTransform="matrix(110.71, 0, 0, -110.71, 29531.24, 134733.23)" gradientUnits="userSpaceOnUse"><stop offset="0" stop-color="#f9f9f9"/><stop offset="1" stop-color="#f2f2f2"/></linearGradient></defs><path class="cls-1" d="M0,84H0a84,84,0,1,1,84,84A84,84,0,0,1,0,84"/><path class="cls-2" d="M138.77,78.52A54.73,54.73,0,1,1,84,23.78a54.73,54.73,0,0,1,54.73,54.74"/><path class="cls-3" d="M138.77,78.52h0A54.73,54.73,0,1,1,84,23.78a54.73,54.73,0,0,1,54.73,54.74h0A54.73,54.73,0,1,0,84,133.25a54.73,54.73,0,0,0,54.73-54.73Z"/><circle class="cls-4" cx="84.04" cy="78.52" r="54.73" transform="translate(-30.9 82.42) rotate(-45)"/><path class="cls-5" d="M13.52,98.78a5.3,5.3,0,0,1,1.71-2.61,6.13,6.13,0,0,1,2.88-1.29,6.16,6.16,0,0,1,3.29.23A5.61,5.61,0,0,1,24,97a7.64,7.64,0,0,1,1.39,3.32,10.21,10.21,0,0,1,.14,3.43l-2.16.18a7.46,7.46,0,0,0,.09-1.43,10,10,0,0,0-.17-1.66,4.74,4.74,0,0,0-.83-2,3.43,3.43,0,0,0-1.58-1.21,4,4,0,0,0-2.15-.15,3.81,3.81,0,0,0-2.62,1.61,4.19,4.19,0,0,0-.49,3.2,11.87,11.87,0,0,0,.41,1.58,10.66,10.66,0,0,0,.58,1.37l-2,.58a7.71,7.71,0,0,1-.64-1.45,13,13,0,0,1-.48-1.81A8,8,0,0,1,13.52,98.78Z"/><path class="cls-5" d="M16.61,109.74a4.46,4.46,0,0,1,2.69-2.54,5,5,0,0,1,2.56-.39,4.14,4.14,0,0,1,2.18,1,6.07,6.07,0,0,1,1.54,2.26,5.87,5.87,0,0,1,.48,2.7,4,4,0,0,1-.84,2.23,4.88,4.88,0,0,1-2.09,1.52,4.94,4.94,0,0,1-2.57.38,4,4,0,0,1-2.18-1,5.83,5.83,0,0,1-1.53-2.25A5.19,5.19,0,0,1,16.61,109.74ZM20,114.25a2.82,2.82,0,0,0,2.11-.15,2.82,2.82,0,0,0,1.62-1.39,2.46,2.46,0,0,0-1.31-3.22,2.87,2.87,0,0,0-2.13.14A2.79,2.79,0,0,0,18.68,111a2.31,2.31,0,0,0,0,1.89A2.28,2.28,0,0,0,20,114.25Z"/><path class="cls-5" d="M28.3,116.46l1.26,1.91-.6.55a6,6,0,0,1,1.42.89,5.48,5.48,0,0,1,1.1,1.18,3.25,3.25,0,0,1,.6,2.55,3.67,3.67,0,0,1-1.74,2.15l-4.76,3.15-1.43-2.15,4.54-3a2.45,2.45,0,0,0,.66-.57,1.2,1.2,0,0,0,.25-.58,1.84,1.84,0,0,0-.36-1.18,3.73,3.73,0,0,0-.74-.8,3.91,3.91,0,0,0-.89-.55l-5.48,3.63-1.42-2.15Z"/><path class="cls-5" d="M27.89,131.13l1.65-1.27a12.32,12.32,0,0,0,.74,1.38,7.68,7.68,0,0,0,.89,1.19,2.79,2.79,0,0,0,1,.76.66.66,0,0,0,.7-.11.55.55,0,0,0,.18-.37,1.5,1.5,0,0,0-.13-.6c-.1-.26-.28-.63-.52-1.1a5,5,0,0,1-.7-2.37,2.35,2.35,0,0,1,.79-1.7,2.21,2.21,0,0,1,2.29-.53A5.68,5.68,0,0,1,37.2,128a11.49,11.49,0,0,1,1.66,2.29l-1.6,1.23a7.61,7.61,0,0,0-1.37-2c-.71-.77-1.23-1-1.55-.7a.57.57,0,0,0-.09.66,11.69,11.69,0,0,0,.68,1.53,5,5,0,0,1,.66,2.29,2.21,2.21,0,0,1-.74,1.52,2.64,2.64,0,0,1-2.47.75,5,5,0,0,1-2.47-1.52A11.64,11.64,0,0,1,27.89,131.13Z"/><path class="cls-5" d="M36,138.8a3,3,0,0,1,.9-2.46l5.08-6.18,2.22,1.35-1.58,1.93,2.57,2.12-1.66,1.29L41.27,135l-2.15,2.61a1.66,1.66,0,0,0-.48,1.11,1.33,1.33,0,0,0,.58.95,8,8,0,0,0,1.38,1l-1.12,1.56a5.07,5.07,0,0,1-1-.51,8.29,8.29,0,0,1-1-.74A4.06,4.06,0,0,1,36,138.8Z"/><path class="cls-5" d="M46.74,136.5l1.86,1.19-.51,1.12a6.54,6.54,0,0,1,3.68.7l-1.33,1.9a7.31,7.31,0,0,0-1.54-.63,8.76,8.76,0,0,0-1.64-.31L44,145.55l-2.17-1.38Z"/><path class="cls-5" d="M50.7,148.61a3.43,3.43,0,0,1,.15-3l2.28-5.09,2.35,1.05-2.26,5.07a1.78,1.78,0,0,0-.14,1.38,1.93,1.93,0,0,0,1.06.94,1.83,1.83,0,0,0,1.38.15,1.73,1.73,0,0,0,.94-1l2.26-5,2.36,1-2.28,5.09a3.38,3.38,0,0,1-2.15,2.06,5,5,0,0,1-3.36-.48A5,5,0,0,1,50.7,148.61Z"/><path class="cls-5" d="M61,157.44l2.83-3.39-1.64-9.53,2.8.73.79,6.14.07,0,3.5-5,2.78.72-9,11.43Z"/><path class="cls-5" d="M73.22,155.33a4.48,4.48,0,0,1-1-3.59,5,5,0,0,1,.82-2.36,4.14,4.14,0,0,1,1.84-1.51,5.22,5.22,0,0,1,2.69-.35,4,4,0,0,1,3.08,1.54,4.61,4.61,0,0,1,.73,3.19,6.15,6.15,0,0,1-.23,1.22l-6.3-.64a1.61,1.61,0,0,0,.64,1.42,3.61,3.61,0,0,0,2,.7,7.54,7.54,0,0,0,2.78-.17l0,2a8.83,8.83,0,0,1-3.26.18A5.73,5.73,0,0,1,73.22,155.33Zm5.65-3.79a2.12,2.12,0,0,0,0-.34,2.17,2.17,0,0,0-.4-1.31,1.6,1.6,0,0,0-1.19-.58,1.94,1.94,0,0,0-1.53.4,2.19,2.19,0,0,0-.69,1.44Z"/><path class="cls-5" d="M91.83,156.09a5.26,5.26,0,0,1-2.51-1.84,6.34,6.34,0,0,1-1.14-2.95,6,6,0,0,1,.41-3.27,5.68,5.68,0,0,1,2-2.45A7.7,7.7,0,0,1,94,144.37a10.27,10.27,0,0,1,3.44,0l.06,2.17a7.56,7.56,0,0,0-1.43-.16,9.3,9.3,0,0,0-1.67.08,4.78,4.78,0,0,0-2,.72,3.44,3.44,0,0,0-1.29,1.51,4.06,4.06,0,0,0-.26,2.14,3.81,3.81,0,0,0,1.47,2.7,4.21,4.21,0,0,0,3.17.66,10.22,10.22,0,0,0,1.59-.33,9.33,9.33,0,0,0,1.4-.5l.48,2a8.72,8.72,0,0,1-1.48.56,12,12,0,0,1-1.84.38A8,8,0,0,1,91.83,156.09Z"/><path class="cls-5" d="M102.77,153.72a4.45,4.45,0,0,1-2.3-2.89,4.94,4.94,0,0,1-.17-2.59,4.13,4.13,0,0,1,1.19-2.09,6.6,6.6,0,0,1,5.11-1.6,4.07,4.07,0,0,1,2.15,1,5.45,5.45,0,0,1,1.51,4.79,4,4,0,0,1-1.19,2.09,5.93,5.93,0,0,1-2.38,1.34A5.15,5.15,0,0,1,102.77,153.72Zm4.78-3a2.79,2.79,0,0,0,0-2.12,2.84,2.84,0,0,0-1.24-1.73,2.31,2.31,0,0,0-1.88-.16,2.24,2.24,0,0,0-1.44,1.2,2.82,2.82,0,0,0,0,2.13,2.76,2.76,0,0,0,1.24,1.72,2.29,2.29,0,0,0,1.89.15A2.25,2.25,0,0,0,107.55,150.72Z"/><path class="cls-5" d="M110.48,142.67l2-1,.48.65a6,6,0,0,1,1-1.32,5,5,0,0,1,1.29-1,3.27,3.27,0,0,1,2.61-.34,3.73,3.73,0,0,1,2,2l2.63,5.07-2.29,1.19-2.5-4.82a2.83,2.83,0,0,0-.5-.73,1.22,1.22,0,0,0-.56-.3,1.77,1.77,0,0,0-1.2.23,3.64,3.64,0,0,0-.88.65,3.94,3.94,0,0,0-.64.83l3,5.83-2.29,1.19Z"/><path class="cls-5" d="M120.36,137.57a3.83,3.83,0,0,1-1-3,4.71,4.71,0,0,1,1.91-2.82,9,9,0,0,1,1.86-1.16l1,1.65a8.26,8.26,0,0,0-1.44.94,2.3,2.3,0,0,0-.95,1.29,1.68,1.68,0,0,0,.45,1.35l.12.15,2.89-2.29.8,2-2.41,1.91,4.3,5.43-2,1.6Zm5.3-6.46a1.42,1.42,0,0,1-1.06-.56,1.45,1.45,0,0,1-.31-1.16,1.68,1.68,0,0,1,.66-1.08,1.66,1.66,0,0,1,1.18-.38,1.48,1.48,0,0,1,1.37,1.72,1.71,1.71,0,0,1-.65,1.07A1.68,1.68,0,0,1,125.66,131.11Zm.92,1.34,2-1.6,5.65,7.13-2,1.6Z"/><path class="cls-5" d="M137.71,134a3.11,3.11,0,0,1-1.66.23,2.89,2.89,0,0,1-1.5-.7,2.26,2.26,0,0,1-.89-2,5.54,5.54,0,0,1,1.51-2.78l.41-.47a13,13,0,0,1,1-1l-.31-.27a1.1,1.1,0,0,0-1.1-.27,3.29,3.29,0,0,0-1.29,1,11.91,11.91,0,0,0-1.59,2.4l-1.57-1.14a13.6,13.6,0,0,1,.9-1.54,16.68,16.68,0,0,1,1.17-1.56,4.84,4.84,0,0,1,2.55-1.75,2.89,2.89,0,0,1,2.54.81l3.18,2.74c.63.54,1.09.93,1.4,1.16L141,130.6a7,7,0,0,1-.74-.47l0,0a3.7,3.7,0,0,1-1,2.75A4.17,4.17,0,0,1,137.71,134Zm1.1-4.11a1.13,1.13,0,0,0-.4-1l-.63-.55L136.32,130a1.36,1.36,0,0,0-.38.82.82.82,0,0,0,.31.7,1.11,1.11,0,0,0,1,.27,1.93,1.93,0,0,0,1-.66A2.24,2.24,0,0,0,138.81,129.93Z"/><path class="cls-5" d="M136.84,121.2l1.15-2,.76.29a6.49,6.49,0,0,1,.17-1.67,5.65,5.65,0,0,1,.58-1.5,3.26,3.26,0,0,1,2-1.67,3.66,3.66,0,0,1,2.69.62l4.93,2.89-1.31,2.22-4.69-2.75a2.62,2.62,0,0,0-.8-.34,1.22,1.22,0,0,0-.63,0,1.72,1.72,0,0,0-.9.84,3.32,3.32,0,0,0-.39,1,3.88,3.88,0,0,0-.11,1l5.67,3.33-1.3,2.22Z"/><path class="cls-5" d="M149.31,114.85l-3.77-6.51-1.43,3.93-2.14-.13,2.89-7.94,1.16.42,3.76,6.66,1.77-4.88,1.73,1.27-2.77,7.62Z"/><path class="cls-5" d="M154.22,102.92a3.08,3.08,0,0,1-1.3,1.06,2.89,2.89,0,0,1-1.65.17,2.28,2.28,0,0,1-1.8-1.26,5.53,5.53,0,0,1-.13-3.16l.11-.62c.08-.44.18-.89.31-1.37l-.4-.07a1.09,1.09,0,0,0-1.08.34,3.2,3.2,0,0,0-.59,1.54,12.28,12.28,0,0,0-.12,2.88l-1.94-.17a15,15,0,0,1,0-1.79,14.3,14.3,0,0,1,.2-1.93,4.89,4.89,0,0,1,1.29-2.82,2.88,2.88,0,0,1,2.59-.6l4.14.71c.81.14,1.41.23,1.79.27l-.38,2.2a6,6,0,0,1-.88,0v0a3.74,3.74,0,0,1,.56,2.87A4,4,0,0,1,154.22,102.92Zm-1.17-4.08a1.14,1.14,0,0,0-.87-.68l-.82-.14-.38,2.19a1.35,1.35,0,0,0,.09.91.8.8,0,0,0,.63.43,1.06,1.06,0,0,0,1-.27,1.84,1.84,0,0,0,.52-1.08A2.17,2.17,0,0,0,153.05,98.84Z"/><path class="cls-6" d="M88.84,60.19l-2-2.32a3.37,3.37,0,0,0-4.73-.33l-5.4,4.67a2.16,2.16,0,0,0-.2,3.07,3.49,3.49,0,0,0,5,.22l1.73-1.63,13.64-3a2.12,2.12,0,0,1,2.51,1.6l.15.71a2.1,2.1,0,0,1-1.42,2.46l-.35.11.83,10.71a4.16,4.16,0,0,1-2.13,3.95l-8.89,5a3.11,3.11,0,0,1-1.19.36h-.13a4.87,4.87,0,0,0-3.2,1.6L71.68,99.87,59.42,89l3.32-3.69L74.72,96"/><path class="cls-6" d="M76.47,81.79h0a2.44,2.44,0,0,1-3.27,1l-5.65-2.94a2.42,2.42,0,1,1,2.24-4.29l5.64,2.93A2.44,2.44,0,0,1,76.47,81.79Z"/><path class="cls-6" d="M78.62,77.48h0a2.42,2.42,0,0,1-3.26,1l-6-3.11a2.42,2.42,0,0,1,2.23-4.3l6,3.12A2.42,2.42,0,0,1,78.62,77.48Z"/><path class="cls-6" d="M80.64,73.11h0a2.32,2.32,0,0,1-3.12,1l-6.18-3.21a2.31,2.31,0,1,1,2.13-4.1L79.65,70A2.33,2.33,0,0,1,80.64,73.11Z"/><path class="cls-6" d="M82.75,67.39a2.31,2.31,0,0,1-3.34,2.48l-6.18-3.21a2.32,2.32,0,0,1-1-3.12,2.29,2.29,0,0,1,1.23-1.09"/><polyline class="cls-6" points="67.36 81.9 66.46 82.96 63.73 86.21"/><line class="cls-6" x1="77.49" y1="92.75" x2="66.48" y2="83.09"/><polyline class="cls-6" points="84.87 88.2 86.42 88.89 96.3 99.87 108.64 89.11 105.2 85.41 93.38 95.9"/><line class="cls-6" x1="99.55" y1="80.85" x2="104.08" y2="86.01"/><line class="cls-6" x1="101.12" y1="83.43" x2="90.54" y2="92.75"/><polygon class="cls-7" points="62.35 85.78 59.68 88.74 59.68 89.27 71.69 99.87 74.83 96.37 75.1 96.08 62.58 85.52 62.35 85.78"/><polygon class="cls-7" points="92.98 96.18 96.3 99.87 108.64 89.11 105.2 85.41 92.98 96.18"/></svg>