<svg id="Capa_1" data-name="Capa 1" xmlns="http://www.w3.org/2000/svg" xmlns:xlink="http://www.w3.org/1999/xlink" viewBox="0 0 168.08 168.08"><defs><style>.cls-1{fill:#009ca6;}.cls-2{fill:#fff;}.cls-3{fill:url(#Degradado_sin_nombre_12);}.cls-4,.cls-5,.cls-7{fill:none;}.cls-4{stroke:#d2151a;stroke-miterlimit:10;stroke-width:2.09px;}.cls-5,.cls-7{stroke:#d21217;stroke-linecap:round;stroke-linejoin:round;}.cls-5{stroke-width:1.39px;}.cls-6{fill:#d21217;}.cls-7{stroke-width:1.57px;}</style><linearGradient id="Degradado_sin_nombre_12" x1="-83.57" y1="1416.32" x2="-82.57" y2="1416.32" gradientTransform="matrix(110.86, 0, 0, -110.86, 9293.6, 157092.68)" gradientUnits="userSpaceOnUse"><stop offset="0" stop-color="#f9f9f9"/><stop offset="1" stop-color="#f2f2f2"/></linearGradient></defs><path class="cls-1" d="M0,84H0A84,84,0,0,1,84,0h0a84,84,0,0,1,0,168.08h0A84,84,0,0,1,0,84"/><path class="cls-2" d="M138.77,78.52A54.73,54.73,0,1,1,84,23.78a54.73,54.73,0,0,1,54.73,54.74"/><path class="cls-3" d="M138.77,78.52h0A54.73,54.73,0,1,1,84,23.78a54.73,54.73,0,0,1,54.73,54.74h0A54.73,54.73,0,1,0,84,133.25a54.73,54.73,0,0,0,54.73-54.73Z"/><circle class="cls-4" cx="84.04" cy="78.52" r="54.73" transform="translate(-30.9 82.42) rotate(-45)"/><path class="cls-5" d="M98.85,69a15.25,15.25,0,1,0-27.22,9.43A21.08,21.08,0,0,1,76,88.69a3.68,3.68,0,0,0,.26,1.09,8.25,8.25,0,0,0,15.32-1.36s0-.08,0-.14a21.77,21.77,0,0,1,4.11-10A15.12,15.12,0,0,0,98.85,69Z"/><path class="cls-5" d="M81.71,94.16S79.3,69.48,78.4,67.65A1.32,1.32,0,1,0,76,68.79c.86,1.59,2.2,2.22,4.36.89s4-2.63,4.07-4.63c0-1-.47-1.42-1-1.41"/><path class="cls-5" d="M85,94.26s2.7-24.78,3.6-26.61A1.32,1.32,0,1,1,91,68.79c-.86,1.59-2.2,2.22-4.36.89s-4-2.63-4.08-4.63c0-1,.47-1.42,1-1.41"/><path class="cls-6" d="M91.56,88.28c0,.06,0,.1,0,.14a8.25,8.25,0,0,1-15.32,1.36.93.93,0,0,1-.08-.2v4.53a7.79,7.79,0,1,0,15.57,0V87.48c0,.26-.1.53-.14.8"/><path class="cls-7" d="M91.56,88.28c0,.06,0,.1,0,.14a8.25,8.25,0,0,1-15.32,1.36.93.93,0,0,1-.08-.2v4.53a7.79,7.79,0,1,0,15.57,0V87.48C91.65,87.74,91.6,88,91.56,88.28Z"/><path class="cls-7" d="M89.62,94.69a8.25,8.25,0,0,1-13.41-2"/><path class="cls-7" d="M91.7,93.07c0,.27-.1.53-.14.8,0,.06,0,.1,0,.14a8.24,8.24,0,0,1-13,4.2"/><path class="cls-2" d="M42.07,130.2l2,1.72-7.75,8.87-2-1.72Z"/><path class="cls-2" d="M44.32,135.75,46.23,137l-.34.74a6.16,6.16,0,0,1,1.66.26,5.54,5.54,0,0,1,1.47.66,3.21,3.21,0,0,1,1.55,2.11,3.63,3.63,0,0,1-.76,2.66l-3.15,4.77-2.15-1.43,3-4.53a3,3,0,0,0,.39-.79,1.22,1.22,0,0,0,0-.63,1.77,1.77,0,0,0-.79-.94,3.31,3.31,0,0,0-1-.45,4,4,0,0,0-1-.16l-3.63,5.48-2.15-1.42Z"/><path class="cls-2" d="M53.87,141.79l2.1.91-.2.78a6.69,6.69,0,0,1,1.68,0,5.1,5.1,0,0,1,1.56.39,3.23,3.23,0,0,1,1.91,1.81,3.65,3.65,0,0,1-.28,2.74l-2.27,5.25-2.37-1,2.16-5a2.78,2.78,0,0,0,.24-.85,1.19,1.19,0,0,0-.11-.62,1.82,1.82,0,0,0-.95-.78,3.59,3.59,0,0,0-1.06-.27,4,4,0,0,0-1,0l-2.6,6-2.37-1Z"/><path class="cls-2" d="M63.32,154.07a4.52,4.52,0,0,1-.52-3.67A5.07,5.07,0,0,1,64,148.09a4,4,0,0,1,2.09-1.19,6.63,6.63,0,0,1,5.21,1.22,4.14,4.14,0,0,1,1.33,2A5.48,5.48,0,0,1,71.46,155a4.08,4.08,0,0,1-2.09,1.2,6,6,0,0,1-2.73-.06A5.17,5.17,0,0,1,63.32,154.07Zm5.64-.15a3.36,3.36,0,0,0,.91-3.93,2.46,2.46,0,0,0-3.38-.8,3.37,3.37,0,0,0-.93,3.93,2.35,2.35,0,0,0,1.55,1.09A2.31,2.31,0,0,0,69,153.92Z"/><path class="cls-2" d="M74.47,148.39l2.79.18,2,6h.09L82,148.88l2.8.18-4.62,8.82L78,157.74Z"/><path class="cls-2" d="M87.84,157.7a3.09,3.09,0,0,1-1.35-1,2.92,2.92,0,0,1-.59-1.55,2.29,2.29,0,0,1,.76-2.06,5.47,5.47,0,0,1,3-.93l.62-.06c.44,0,.91-.05,1.4-.05l0-.4a1.09,1.09,0,0,0-.6-1,3.14,3.14,0,0,0-1.64-.17,12.34,12.34,0,0,0-2.82.61l-.33-1.91a14.69,14.69,0,0,1,1.73-.48,18,18,0,0,1,1.92-.3,4.93,4.93,0,0,1,3,.53,2.89,2.89,0,0,1,1.25,2.35l.36,4.19c.08.82.14,1.42.2,1.8l-2.22.2a6.17,6.17,0,0,1-.21-.86h0a3.71,3.71,0,0,1-2.63,1.28A4.09,4.09,0,0,1,87.84,157.7Zm3.66-2.17a1.15,1.15,0,0,0,.43-1l-.07-.83-2.23.19a1.43,1.43,0,0,0-.85.32.83.83,0,0,0-.26.72,1.13,1.13,0,0,0,.51.87,1.9,1.9,0,0,0,1.18.23A2.27,2.27,0,0,0,91.5,155.53Z"/><path class="cls-2" d="M100.47,155.8a4.2,4.2,0,0,1-2.2-1.13,4.63,4.63,0,0,1-1.24-2.3,4.52,4.52,0,0,1,.07-2.61,4.47,4.47,0,0,1,1.47-2,6.54,6.54,0,0,1,2.56-1.21,9.76,9.76,0,0,1,2.7-.27l.19,2a6.45,6.45,0,0,0-2.19.18,3.24,3.24,0,0,0-1.9,1.16,2.37,2.37,0,0,0-.35,2.12,2.41,2.41,0,0,0,1.3,1.73,3.25,3.25,0,0,0,2.26.18,5.94,5.94,0,0,0,2.1-.93l.68,1.86a5.18,5.18,0,0,1-1.1.62,8.69,8.69,0,0,1-1.49.5A6.68,6.68,0,0,1,100.47,155.8Z"/><path class="cls-2" d="M105.49,143.64a1.47,1.47,0,0,1-.84-.87,1.41,1.41,0,0,1,.07-1.19,1.65,1.65,0,0,1,1-.82,1.69,1.69,0,0,1,1.25,0,1.38,1.38,0,0,1,.84.86,1.44,1.44,0,0,1-.07,1.2,1.73,1.73,0,0,1-1,.81A1.64,1.64,0,0,1,105.49,143.64Zm.46,1.55,2.41-.9,3.18,8.53-2.42.9Z"/><path class="cls-2" d="M115.45,150.06a4.52,4.52,0,0,1-2.8-2.42,4.86,4.86,0,0,1-.64-2.51,4,4,0,0,1,.78-2.28,6.62,6.62,0,0,1,4.72-2.51,4,4,0,0,1,2.31.61,5,5,0,0,1,1.73,1.93,5.07,5.07,0,0,1,.64,2.51,4.11,4.11,0,0,1-.78,2.27,6.05,6.05,0,0,1-2.1,1.76A5.21,5.21,0,0,1,115.45,150.06ZM112,140l2.33-3.71,1.84,1.11-2.75,3.5Zm7.56,6.27a3.39,3.39,0,0,0-1.9-3.56,2.48,2.48,0,0,0-3.08,1.64,2.85,2.85,0,0,0,.36,2.1,2.81,2.81,0,0,0,1.54,1.46,2.35,2.35,0,0,0,1.89-.2A2.28,2.28,0,0,0,119.59,146.22Z"/><path class="cls-2" d="M121.12,137.67l1.78-1.42.6.55a6.28,6.28,0,0,1,.77-1.5,5.68,5.68,0,0,1,1.07-1.19,3.25,3.25,0,0,1,2.5-.82,3.67,3.67,0,0,1,2.29,1.54l3.55,4.48-2,1.6-3.38-4.25a2.57,2.57,0,0,0-.63-.62,1.21,1.21,0,0,0-.6-.19,1.83,1.83,0,0,0-1.14.46,3.35,3.35,0,0,0-.73.81,3.7,3.7,0,0,0-.47.93l4.08,5.14-2,1.61Z"/></svg>