<svg version="1.1" id="Capa_1" xmlns="http://www.w3.org/2000/svg" x="0" y="0" viewBox="0 0 127.6 127.6" style="enable-background:new 0 0 127.6 127.6" xml:space="preserve"><style>.st0{fill:#009ca6}</style><path class="st0" d="M98.4 65.7c-1.1 0-2.2.2-3.2.6-1.4-2.5-4.1-4.3-7.3-4.3-1.8 0-3.4.5-4.7 1.5-1.5-2.2-4-3.7-6.9-3.7-4.6 0-8.4 3.8-8.4 8.4V35.4c0-4.6-3.8-8.4-8.4-8.4s-8.4 3.8-8.4 8.4v53.7L39.3 80c-4-3.1-9.8-2.5-13 1.3l-.1.1c-1.7 1.9-1.5 4.9.4 6.6l33.1 30.4c6.3 5.8 14.6 9.1 23.2 9.1h4.7c10.6 0 19.2-8.6 19.2-19.2V74.1c-.1-4.6-3.8-8.4-8.4-8.4z"/><path class="st0" d="M69.9 53c.4.4.9.6 1.4.6.4 0 .9-.2 1.2-.5 4-3.7 6.4-8.9 6.4-14.4 0-10.7-8.7-19.4-19.4-19.4S40.1 28 40.1 38.7c0 5.1 1.9 9.8 5.5 13.5.7.7 1.9.7 2.6.1.7-.7.7-1.9.1-2.6-2.8-2.9-4.4-6.8-4.4-11C43.8 30 50.8 23 59.5 23s15.8 7 15.8 15.7c0 4.4-1.9 8.7-5.2 11.7-.8.7-.8 1.8-.2 2.6z"/><path class="st0" d="M80.5 55.6c.8.6 2 .4 2.5-.4 3.4-4.8 5.2-10.5 5.2-16.4C88.2 22.9 75.3 10 59.5 10S30.8 22.9 30.8 38.7c0 10.3 5.6 19.8 14.5 24.9.3.2.6.2.9.2.6 0 1.3-.3 1.6-.9.5-.9.2-2-.7-2.5-7.8-4.4-12.6-12.7-12.6-21.7 0-13.8 11.2-25 25-25s25 11.2 25 25c0 5.2-1.6 10.1-4.5 14.4-.5.8-.3 2 .5 2.5z"/><path class="st0" d="M45.8 74.9c.2.1.4.1.7.1.7 0 1.4-.4 1.7-1.2.4-.9-.1-2-1.1-2.3-13.5-5.1-22.6-18.3-22.6-32.8 0-19.3 15.7-35 35-35s35 15.7 35 35c0 6.5-1.8 12.8-5.2 18.3-.5.9-.3 2 .6 2.5.9.5 2 .3 2.5-.6 3.7-6.1 5.7-13.1 5.7-20.2C98.1 17.3 80.8 0 59.5 0S20.8 17.3 20.8 38.7c0 16 10 30.5 25 36.2z"/></svg>