<svg xmlns="http://www.w3.org/2000/svg" viewBox="0 0 127.6 127.6" style="enable-background:new 0 0 127.6 127.6" xml:space="preserve"><path d="M104.8 41c0-11.1-4.4-21.5-12.3-29.3C84.5 3.9 73.9-.2 62.8 0c-22.4.5-40.3 19.2-40 41.6.1 9.1 3.2 17.6 8.8 24.8 5.8 7.4 9.5 16.2 10.7 25.5.1.6.2 1.2.3 1.6 0 .1-.1.3-.1.4v11.6c0 12.2 9.9 22 22 22s22-9.9 22-22v-17c0-.2-.1-.3-.1-.5 1.7-8.5 5-15.8 9.7-22 5.7-7.2 8.7-15.9 8.7-25zm-42-10.2c0-1.2.3-1.6.4-1.7.1-.1.2-.1.3-.1 0 0 .2 0 .3.1.1.1.4.5.4 1.7 0 .9-.3 1.8-.7 2.6-.4-.8-.7-1.7-.7-2.6zm.7 8.4c2 1.8 4.4 3.4 7.1 5.1.9.5 1.7 1 2.6 1.3-2.6 16.3-6.4 49.5-7.3 58.5-.7.1-1.4.2-2 .2-1.1 0-2.2-.1-3.3-.3-.9-8.8-4.2-42-6.7-58.3.8-.3 1.7-.8 2.6-1.3 2.7-1.8 5.1-3.5 7-5.2zM83 87.3c-.2.3-.4.5-.4.8-.1.7-.3 1.4-.4 2.1h.2v.1h-.2c-1.8 6.2-6.7 11-12.7 12.9 2-18.4 5.1-44 7.1-56.9.8 0 1.5-.1 2.2-.2 2.2-.6 4-2.2 5.5-4.8 1-1.8.9-3.8-.1-5.3-1-1.6-2.9-2.6-4.7-2.4-1.9.1-3.5 1.3-4.5 3.2-.4.7-.8 2.5-1.3 5.2-.4-.2-.8-.4-1.3-.7-2.5-1.6-4.8-3.1-6.6-4.7 1.2-1.6 1.9-3.5 1.9-5.6.1-2.3-.8-3.6-1.4-4.3-.7-.7-1.8-1.2-2.8-1.2h-.1c-1 .1-2 .4-2.8 1.2-.7.7-1.5 2-1.4 4.3.1 2.1.7 4 1.9 5.6-1.7 1.6-4 3.1-6.6 4.7-.5.3-.9.5-1.3.7-.5-2.6-.9-4.5-1.2-5.2-1-2-2.6-3.1-4.5-3.2-1.7-.2-3.5.8-4.5 2.4-1 1.6-1.1 3.6-.1 5.3 1.4 2.6 3.2 4.2 5.5 4.8.7.2 1.4.3 2.2.2 1.9 12.9 4.7 38.2 6.5 56.5-4.4-1.7-8.1-5-10.2-9.4 0-.1-.1-.2-.1-.3-.1-.3-.2-.5-.4-.7-.1-.3-.1-.7-.2-1.2-1.3-10-5.3-19.4-11.5-27.3-5.1-6.5-7.9-14.3-8-22.6C26.2 21.1 42.6 4.1 63 3.6h.9C73.7 3.6 83 7.4 90 14.2c7.3 7.1 11.3 16.6 11.3 26.8 0 8.4-2.7 16.3-7.8 22.9-5.1 6.5-8.6 14.3-10.5 23.4zm-5.8-44.5c.4-2.4.8-3.9 1.1-4.5.3-.5.7-1.2 1.5-1.2h.1c.5 0 1.1.3 1.4.8.3.5.3 1.1 0 1.7-.9 1.7-2 2.8-3.2 3.1-.4.1-.6.1-.9.1zm-27.4 0c-.2 0-.5-.1-.7-.1-1.2-.3-2.3-1.3-3.2-3.1-.3-.6-.4-1.2 0-1.7.3-.5.8-.8 1.4-.8h.1c.7.1 1.2.7 1.5 1.2.1.5.5 2.1.9 4.5z" style="fill:#009ca6"/></svg>