<svg version="1.1" id="Capa_1" xmlns="http://www.w3.org/2000/svg" x="0" y="0" viewBox="0 0 127.6 127.6" style="enable-background:new 0 0 127.6 127.6" xml:space="preserve"><style>.st0{fill:#009ca6}</style><path class="st0" d="M125.9 86.1h-15.7c-3.1 0-6.2.8-9 2.2l-24.4 12.9c-1.4.8-3 1.1-4.7 1.1h-44c-2.3 0-4.5-.8-6.3-2.3L5 86.3C3.1 84.7 2.7 82 4.1 80c2.4-3.5 7.2-4.5 10.7-2.2l15.4 10c.3.2.6.3.9.3h30.1c3.1 0 6.1-.9 8.7-2.7l7.2-4.9c.8-.5.9-1.5.4-2.3-.5-.8-1.5-.9-2.3-.4L68 82.7c-2 1.4-4.4 2.1-6.9 2.1h-15c-3.5 0-6.3-2.8-6.3-6.3s2.8-6.3 6.3-6.3h10.5c5.7 0 11.2-2.8 15-7.6 3-3.8 8.7-6.5 16.1-7.6 4.6-.7 9.5-.1 14.2 1.7 1.7.7 3.5 1 5.3 1H126c.9 0 1.6-.7 1.6-1.6s-.7-1.6-1.6-1.6h-18.8c-1.4 0-2.8-.3-4.1-.8-5.2-2-10.7-2.7-15.9-1.9C79 55 72.5 58.1 69 62.5c-3.2 4-7.7 6.4-12.5 6.4H46.1c-5.3 0-9.6 4.3-9.6 9.6 0 2.4.9 4.6 2.4 6.3h-7.3l-15-9.8c-5-3.3-11.9-1.9-15.2 3.1-2.3 3.4-1.7 8 1.5 10.7l16.7 13.8c2.4 1.9 5.3 3 8.4 3h44.1c2.2 0 4.3-.5 6.2-1.5l24.4-12.9c2.3-1.2 4.9-1.9 7.4-1.9h15.7c.9 0 1.6-.7 1.6-1.6.1-1-.6-1.7-1.5-1.6zM18.5 45.7c.4 3.4 1.5 6.8 3.8 9.8 5.3 7 14.8 9.7 23 6.4 8.2-3.3 12.8-11.3 12.3-19.5 0-.8-1.2-1-1.5-.3-1.3 3-3.3 5.6-5.9 7.7 0 0 .1-.1.1-.2 8.4-11.4-1.5-27.7-15.4-25.4-.8.1-1.7.3-2.5.6.5.6.9 1.3 1.3 2 3.3 6.5.7 14.5-5.8 17.8-3.1 1.5-6.4 1.8-9.4 1.1z"/><path class="st0" d="M27 31.8c-2.6-3.6-6.7-4-8.5-9.9 0 0-7.2 8.2-.7 15.4 6.9 5.7 11.8-1.9 9.2-5.5z"/></svg>