<svg version="1.1" id="Capa_1" xmlns="http://www.w3.org/2000/svg" x="0" y="0" viewBox="0 0 127.6 127.6" style="enable-background:new 0 0 127.6 127.6" xml:space="preserve"><style>.st0{fill:#009ca6}</style><path class="st0" d="M61.9 97.4v-9L45.7 107l16.1 18.7v-8.6c21.2 0 39.5-12.5 47.9-30.5l-18-8.1c-5.2 11.2-16.6 18.9-29.8 18.9zm43.3-9.2c-8.7 15.6-25.3 25.5-43.3 25.6h-3.4v2.9l-8.4-9.7 8.4-9.7v3.4h3.4c12.9 0 24.9-6.9 31.4-17.9l11.9 5.4zM61.9 31v8.2L78 20.6 61.9 1.9v9.4c-21.7 0-40.4 13.2-48.5 31.9l18 8.1C36.4 39.4 48.2 31 61.9 31zM17.8 41.6c8.5-16.5 25.4-26.9 44.1-26.9h3.3v-3.8l8.4 9.7-8.4 9.7v-2.6h-3.4C48.2 27.7 36 35.2 29.7 47l-11.9-5.4zM28.7 64.2s0-.1 0 0l8.6-.1-18.8-16L0 64.4l9-.1c0 21.5 13 40 31.5 48.2l8.1-18c-11.7-5.1-19.9-16.7-19.9-30.3zM38.9 108c-16.2-8.5-26.5-25.3-26.5-43.8v-3.4H9l9.6-8.5 9.7 8.3-2.9-.1V64c0 13.3 7.3 25.6 18.9 32l-5.4 12zM109 73.7l-3.3 8.3 21.8-11.5-8.3-23.2-3.1 8C103.9 50.5 96.2 39 95.5 26.6l-19.7 1c1.1 19.9 13.5 38.3 33.2 46.1z"/></svg>