<svg version="1.1" id="Capa_1" xmlns="http://www.w3.org/2000/svg" x="0" y="0" viewBox="0 0 159.5 150" style="enable-background:new 0 0 159.5 150" xml:space="preserve"><style>.st3{fill:#fff}.st4{enable-background:new}.st5{fill:#d2010d}</style><g id="Capa_1-2"><circle cx="79.7" cy="61" r="57.4" style="fill:#d2151a"/><circle cx="79.7" cy="61" r="60.4" style="fill:none;stroke:#d2151a;stroke-width:.87;stroke-miterlimit:10"/><radialGradient id="SVGID_1_" cx="56.837" cy="145.24" r="114.817" gradientTransform="matrix(1 0 0 -1 0 152.57)" gradientUnits="userSpaceOnUse"><stop offset="0" style="stop-color:#fff"/><stop offset="1" style="stop-color:#f9f9f9;stop-opacity:0"/></radialGradient><circle cx="79.7" cy="61" r="57.3" style="opacity:.69;fill:url(#SVGID_1_);enable-background:new"/><path class="st3" d="M82.4 70.5c.6 0 1.2-.2 1.7-.5l10.2-5.7c1.9-1.1 3-3.1 2.8-5.3l-.9-11.6c1.5-.6 2.3-2.1 2-3.7l-.3-.7c-.2-.8-.7-1.5-1.4-2s-1.6-.6-2.4-.4L78.5 44c-.1 0-.3.1-.4.2l-2 1.9c-.6.6-1.5.9-2.3.9-.9 0-1.7-.4-2.2-1.1-.3-.3-.4-.8-.4-1.2 0-.5.2-.9.6-1.2l6.2-5.3c1.3-1.1 3.2-1 4.3.3l2.3 2.6c.3.3.8.4 1.1.1.3-.3.4-.8.1-1.1l-2.3-2.6c-1.7-1.9-4.6-2.1-6.5-.4l-6.2 5.3c-.7.6-1.1 1.4-1.1 2.3-.1.9.2 1.7.8 2.4.9 1 2.1 1.5 3.4 1.6 1.3.1 2.5-.4 3.5-1.3l1.8-1.7 15.4-3.4c.4-.1.8 0 1.2.2.4.2.6.6.7 1l.2.8c.2.8-.3 1.6-1.1 1.9l-.4.1c-.4.1-.6.5-.6.8l.9 12.2c.1 1.5-.7 3-2 3.8l-10.2 5.7c-.3.2-.7.3-1 .3h-.1c-1.6.2-3.1.9-4.2 2.1l-5.4 6-11.9-10.6.6-.7c.3-.3.2-.8-.1-1.1-.3-.3-.8-.2-1.1.1l-3.6 4.3-.5-.5c-.3-.3-.8-.3-1.1.1L51 73c-.1.2-.2.4-.2.6 0 .2.1.4.3.5l14 12.4c.1.1.3.2.5.2s.4-.1.6-.3l12.9-14.3c.8-.9 1.9-1.5 3.1-1.6h.2zm-22.8-2.7 11.8 10.4-2.2 2.4-11.6-10.4 2-2.4z"/><path class="st3" d="m60.5 63.8 6.5 3.3c.5.3 1.1.4 1.6.4.4 0 .7-.1 1.1-.2.9-.3 1.6-.9 2.1-1.7.4-.8.5-1.8.2-2.7 0-.1-.1-.3-.2-.4.1 0 .2 0 .3-.1.9-.3 1.7-.9 2.1-1.7.4-.8.5-1.8.2-2.7-.1-.2-.1-.4-.2-.5.9-.2 1.8-.8 2.3-1.7.5-1 .5-2.1 0-3.1h.1c.9-.3 1.6-.9 2-1.7.4-.7.5-1.5.3-2.2-.1-.4-.5-.7-.9-.6-.4.1-.7.5-.6.9.1.4 0 .8-.2 1.2-.5.9-1.5 1.2-2.4.8L68 47.4h-.1l-.2-.1c-.9-.5-1.3-1.6-.8-2.5.2-.4.6-.7 1-.9.4-.2.6-.6.5-1-.2-.4-.6-.6-1-.5-.8.3-1.5.9-1.8 1.6-.5 1-.5 2.2 0 3.1-.9.3-1.7.8-2.1 1.7-.4.8-.5 1.7-.2 2.6.1.2.1.4.2.6h-.2c-.9.3-1.7.9-2.1 1.7-.4.8-.5 1.8-.2 2.7.1.2.2.4.3.7-.9.3-1.7.9-2.1 1.7-.4.8-.5 1.8-.2 2.7 0 1.1.6 1.8 1.5 2.3zm4.3-14.2c.3-.6 1-1 1.6-1 .3 0 .5.1.8.2l6.9 3.6h.1l.2.1c.9.5 1.3 1.6.8 2.5-.5.9-1.6 1.3-2.5.8l-7.1-3.7c-.4-.2-.8-.6-.9-1.1-.2-.4-.2-.9.1-1.4zm-2.3 5c.2-.5.7-.8 1.2-1 .2-.1.4-.1.6-.1.3 0 .6.1.9.2l6.8 3.6c.5.2.8.7 1 1.2s.1 1-.1 1.5-.7.8-1.2 1c-.4.1-.9.1-1.3-.1 0 0-.1 0-.1-.1l-6.5-3.3c-.1 0-.2-.1-.3-.1l-.2-.1c-.5-.2-.8-.7-1-1.2-.1-.5-.1-1 .2-1.5zm-2.1 5.1c.2-.5.7-.8 1.2-1 .2-.1.4-.1.6-.1.2 0 .4.1.7.1l6.6 3.4s.1 0 .2.1c.4.3.7.6.9 1.1.2.5.1 1-.1 1.5s-.7.8-1.2 1-1 .1-1.5-.1l-6.5-3.3c-.5-.2-.8-.7-1-1.2s-.2-1 .1-1.5zM108.4 73.1l-3.9-4.2c-.3-.3-.8-.3-1.1-.1l-.5.4-4.9-5.5c-.3-.3-.8-.4-1.1-.1-.3.3-.4.8-.1 1.1l1.7 2L86.8 77 83 72.8c-.1-.1-.2-.1-.3-.2l-1.7-.7c-.4-.2-.9 0-1.1.4-.2.4 0 .9.4 1.1l1.6.7 11.2 12.4c.2.2.4.3.6.3.2 0 .4-.1.5-.2l14.1-12.3c.2-.1.3-.3.3-.6 0-.2-.1-.5-.2-.6zm-8.8-5.2 2.1 2.4L90 80.6l-2.2-2.4 11.8-10.3z"/><g class="st4"><path class="st5" d="M2.7 92.2c.1-1.2.5-2.2 1.2-3 .7-.8 1.6-1.5 2.7-1.9 1.2-.5 2.3-.6 3.4-.4 1.1.2 2.1.7 3 1.4.9.8 1.6 1.8 2.1 3.1s.8 2.5.9 3.5l-2.2.6c0-.4-.1-.9-.2-1.5s-.3-1.1-.5-1.7c-.3-.8-.7-1.4-1.3-1.9-.5-.5-1.2-.8-1.9-.9-.7-.1-1.5 0-2.2.3-1.2.5-2 1.2-2.4 2.2-.3 1-.3 2.1.2 3.4.2.5.5 1 .8 1.5.3.5.6.9.9 1.3l-2 1c-.3-.3-.6-.8-1-1.4-.3-.6-.6-1.1-.9-1.8-.5-1.3-.7-2.7-.6-3.8z"/></g><g class="st4"><path class="st5" d="M7.7 102.2c.3-1.3 1-2.3 2.3-3.1.9-.5 1.7-.8 2.6-.8.9 0 1.7.2 2.4.7.8.5 1.4 1.2 2 2.1.6.9.9 1.8 1 2.7.1.9-.1 1.7-.5 2.5s-1 1.4-1.9 1.9c-.9.5-1.7.8-2.6.8-.9 0-1.7-.2-2.4-.7-.8-.5-1.4-1.2-2-2.1-.8-1.4-1.1-2.7-.9-4zm4.4 4.1c.7.1 1.4 0 2.2-.5.8-.5 1.3-1.1 1.4-1.7.2-.7.1-1.3-.3-2-.4-.6-.9-1-1.6-1.2-.7-.1-1.4 0-2.2.5-.8.5-1.3 1.1-1.4 1.7-.2.7-.1 1.3.3 2s.9 1.1 1.6 1.2z"/></g><g class="st4"><path class="st5" d="m20.7 106.8 1.6 1.8-.5.7c.5.2 1.1.4 1.6.7.5.3 1 .7 1.3 1.1.7.8 1.1 1.7 1 2.6-.1.8-.6 1.7-1.5 2.5l-4.5 4-1.8-2 4.3-3.8c.3-.3.5-.5.6-.7.1-.2.2-.4.2-.6 0-.4-.2-.8-.5-1.2-.2-.3-.5-.5-.9-.7-.3-.2-.7-.4-1-.4l-5.2 4.5-1.8-2 7.1-6.5z"/></g><g class="st4"><path class="st5" d="m21.9 121.7 1.6-1.5c.3.5.6.9.9 1.4.3.4.7.8 1.1 1.1.4.4.8.6 1.1.7.3.1.5 0 .7-.2.1-.1.2-.3.1-.4 0-.2-.1-.4-.2-.6-.1-.3-.4-.6-.7-1.1-.6-.9-.9-1.7-1-2.4-.1-.7.1-1.3.6-1.9.6-.7 1.4-1 2.3-.8.9.2 1.8.7 2.7 1.4.7.6 1.4 1.4 2 2.2l-1.5 1.5c-.4-.7-1-1.4-1.7-2-.8-.7-1.4-.9-1.7-.5-.1.2-.1.4 0 .7.1.3.4.8.9 1.5.6.9.9 1.7 1 2.3 0 .6-.2 1.2-.6 1.7-.7.8-1.5 1.2-2.5 1.1-.9-.1-1.9-.5-2.8-1.3-.9-1-1.7-1.9-2.3-2.9z"/></g><g class="st4"><path class="st5" d="M30.7 128.4c-.2-.8 0-1.6.7-2.7l4.7-6.9 2.5 1.2-1.5 2.2 2.9 2-1.6 1.5-2.5-1.7-2 2.9c-.3.5-.4.9-.4 1.2 0 .3.3.7.7.9.6.4 1.1.7 1.5.9l-1 1.7c-.3-.1-.7-.2-1.1-.4-.4-.2-.8-.4-1.1-.7-1-.6-1.6-1.3-1.8-2.1z"/></g><g class="st4"><path class="st5" d="m41.3 124.8 2 1.1-.5 1.2c1.3-.2 2.6-.1 3.9.5l-1.2 2.1c-.5-.2-1.1-.4-1.7-.5-.6-.1-1.2-.2-1.7-.2l-3 5.6-2.4-1.3 4.6-8.5z"/></g><g class="st4"><path class="st5" d="M45.8 137c-.5-.9-.5-1.9 0-3.2l2.1-5.5 2.5 1-2.1 5.4c-.2.6-.2 1.1-.1 1.5.2.4.6.7 1.2.9.6.2 1.1.2 1.5.1.4-.2.7-.5.9-1.1l2.1-5.4 2.5 1-2.1 5.5c-.5 1.2-1.2 2-2.1 2.3-1 .3-2.2.2-3.6-.3-1.3-.7-2.3-1.4-2.8-2.2z"/></g><g class="st4"><path class="st5" d="m56.4 145.5 2.9-3.6-2-9.9 3 .7 1 6.4h.1l3.5-5.4 2.9.7-9.1 12.3-2.3-1.2z"/></g><g class="st4"><path class="st5" d="M68.6 142.9c-.9-.9-1.2-2.2-1.1-3.7.1-.9.4-1.8.8-2.5.5-.7 1.1-1.2 1.9-1.6.8-.4 1.7-.5 2.8-.4 1.5.1 2.6.7 3.3 1.6.7.9.9 2 .8 3.3 0 .5-.1.9-.2 1.3l-6.6-.6c0 .6.2 1.1.7 1.5.5.4 1.2.6 2.1.7 1.1.1 2.1 0 2.9-.2v2.1c-.9.3-2.1.3-3.4.2-1.8-.3-3.2-.8-4-1.7zm5.9-4.1v-.3c0-.6-.2-1-.4-1.4-.3-.3-.7-.5-1.3-.6-.7-.1-1.2.1-1.6.4-.4.4-.6.9-.7 1.5l4 .4z"/></g><g class="st4"><path class="st5" d="M87.1 143.7c-1.1-.4-2-1.1-2.6-2-.6-.9-1-1.9-1.1-3.1-.1-1.2 0-2.4.5-3.4s1.2-1.9 2.2-2.5c1-.6 2.2-1 3.6-1.2 1.4-.2 2.6-.1 3.6.1v2.3c-.4-.1-.9-.2-1.5-.2H90c-.8.1-1.5.3-2.2.7-.6.4-1.1.9-1.4 1.6-.3.7-.4 1.4-.3 2.2.1 1.3.6 2.2 1.5 2.9.9.7 2 .9 3.3.8.6-.1 1.1-.2 1.7-.3.6-.1 1.1-.3 1.5-.5l.5 2.2c-.4.2-.9.4-1.6.6-.6.2-1.3.3-1.9.4-1.6-.1-2.9-.2-4-.6z"/></g><g class="st4"><path class="st5" d="M98 141.6c-1.1-.6-1.9-1.7-2.3-3.1-.3-1-.3-1.9-.1-2.7.2-.8.7-1.5 1.3-2.1.7-.6 1.5-1 2.6-1.3 1-.3 2-.3 2.9-.2.9.2 1.6.6 2.2 1.2.6.6 1 1.4 1.3 2.4.3 1 .3 1.9.1 2.7-.2.8-.7 1.5-1.3 2.1-.7.6-1.5 1-2.6 1.3-1.6.4-3 .3-4.1-.3zm5.2-3c.3-.6.4-1.3.1-2.2-.2-.9-.6-1.5-1.2-1.9-.6-.4-1.2-.4-2-.3-.7.2-1.2.6-1.6 1.2-.3.6-.4 1.3-.1 2.2.2.9.6 1.5 1.2 1.9.6.4 1.2.4 2 .2.7-.1 1.2-.5 1.6-1.1z"/></g><g class="st4"><path class="st5" d="m106.2 130.5 2.2-1 .5.7c.3-.5.7-.9 1.2-1.3s.9-.7 1.4-.9c1-.5 1.9-.5 2.8-.2.8.3 1.4 1 1.9 2.2l2.4 5.5-2.5 1.1-2.3-5.2c-.2-.4-.3-.6-.5-.8-.2-.2-.3-.3-.6-.4-.4-.1-.8 0-1.3.2-.3.2-.7.4-1 .6-.3.3-.5.5-.7.8l2.8 6.3-2.5 1.1-3.8-8.7z"/></g><g class="st4"><path class="st5" d="M116.5 126.1c-.7-1.1-1-2.2-.7-3.3.3-1 1-2 2.3-2.8.7-.5 1.4-.8 2.1-1l.9 1.8c-.5.2-1 .5-1.6.8-.6.4-1 .8-1.1 1.3-.1.4 0 .9.4 1.5l.1.2 3.2-2.1.6 2.2-2.7 1.8 4 6.1-2.3 1.5-5.2-8zm6.1-6.3c-.4-.1-.8-.3-1.1-.7-.3-.4-.3-.8-.2-1.2.1-.4.4-.8.8-1.1.4-.3.8-.4 1.3-.3.5.1.8.3 1.1.7.3.4.3.8.2 1.2-.1.4-.4.8-.8 1.1-.4.3-.8.4-1.3.3zm.9 1.5 2.3-1.5 5.2 8-2.3 1.5-5.2-8z"/></g><g class="st4"><path class="st5" d="M134.5 124.5c-.6.2-1.2.2-1.8 0-.6-.1-1.1-.5-1.5-.9-.6-.7-.9-1.4-.7-2.2.2-.8.8-1.7 1.9-2.7l.5-.4c.3-.3.7-.6 1.1-.9l-.3-.3c-.3-.4-.7-.5-1.1-.4-.4.1-.9.4-1.5.9-.7.6-1.3 1.4-2 2.3l-1.5-1.4c.3-.4.7-.9 1.1-1.5.5-.6.9-1 1.4-1.5 1-.9 2-1.4 2.9-1.5.9-.1 1.8.3 2.5 1.2l3 3.2c.6.6 1 1.1 1.3 1.4l-1.7 1.6c-.3-.2-.5-.4-.7-.6 0 1-.5 2-1.4 2.7-.4.5-.9.8-1.5 1zm1.6-4.2c.1-.4 0-.8-.3-1.1l-.6-.6-1.7 1.6c-.3.3-.5.5-.5.8-.1.3 0 .5.2.8.3.3.6.4 1 .4s.8-.2 1.1-.6c.5-.4.7-.8.8-1.3z"/></g><g class="st4"><path class="st5" d="m134.9 111.3 1.5-1.9.7.4c.1-.6.2-1.1.4-1.7.2-.6.5-1.1.8-1.5.7-.9 1.5-1.4 2.4-1.4.8-.1 1.7.3 2.7 1l4.7 3.7-1.7 2.1-4.5-3.6c-.3-.2-.6-.4-.8-.5-.2-.1-.4-.1-.7-.1-.4.1-.7.3-1.1.7-.2.3-.4.6-.6 1-.1.4-.2.7-.3 1.1l5.4 4.3-1.7 2.1-7.2-5.7z"/></g><g class="st4"><path class="st5" d="m148.4 107.2-2.7-7.4-2.2 3.8-2.2-.5 4.4-7.7 1.1.6 2.7 7.6 2.7-4.7 1.6 1.6-4.2 7.4-1.2-.7z"/></g><g class="st4"><path class="st5" d="M155.4 96.4c-.5.4-1 .7-1.6.8-.6.1-1.2.1-1.7-.2-.9-.3-1.4-.9-1.6-1.7-.2-.8 0-1.9.5-3.3l.2-.6c.2-.4.4-.9.6-1.3l-.4-.2c-.5-.2-.8-.1-1.2.1-.3.3-.6.7-.9 1.5-.3.9-.6 1.9-.7 2.9l-2-.6c.1-.5.2-1.1.4-1.8s.4-1.4.6-2c.5-1.3 1.1-2.2 1.9-2.6.8-.5 1.7-.5 2.8-.1l4.1 1.6c.8.3 1.4.5 1.8.7l-.8 2.2c-.4-.1-.7-.1-.9-.2.4 1 .4 2 0 3.1-.3.7-.6 1.3-1.1 1.7zm-.3-4.4c-.1-.4-.4-.7-.8-.9l-.8-.3-.8 2.2c-.1.4-.2.7-.1 1 .1.3.3.5.6.6.4.1.7.1 1.1-.1.3-.2.6-.5.8-1 0-.6.1-1.1 0-1.5z"/></g></g></svg>