<svg version="1.1" id="Capa_1" xmlns="http://www.w3.org/2000/svg" x="0" y="0" viewBox="0 0 150 150" style="enable-background:new 0 0 150 150" xml:space="preserve"><style>.st3{fill:#fff}.st4{enable-background:new}.st5{fill:#d2010d}</style><circle cx="75" cy="62.8" r="59.2" style="fill:#d2151a"/><circle cx="75" cy="62.8" r="62.4" style="fill:none;stroke:#d2151a;stroke-width:.87;stroke-miterlimit:10"/><radialGradient id="SVGID_1_" cx="51.455" cy="145.409" r="118.56" gradientTransform="matrix(1 0 0 -1 0 152.768)" gradientUnits="userSpaceOnUse"><stop offset="0" style="stop-color:#fff"/><stop offset="1" style="stop-color:#f9f9f9;stop-opacity:0"/></radialGradient><circle cx="75" cy="62.8" r="59.1" style="opacity:.69;fill:url(#SVGID_1_);enable-background:new"/><path class="st3" d="m78.7 55.9.8-5.4c0-2-1.4-3.3-3.8-3.3h-.4c-.3-1.8-1.7-3.2-3.6-3.3-1.1-.1-2.2.3-3 1-.1-.2-.3-.5-.5-.7-.7-.9-1.7-1.4-2.9-1.5-1.1-.1-2.2.2-3.1 1-.4.4-.8.8-1 1.3-.7-.6-1.7-1-2.7-1-2.3 0-4.2 1.9-4.2 4.2v4.9c0 .3.1.7.1 1l-1.7 1.1c-.2.2-.4.4-.4.7v9.7c0 .2.1.4.2.6l2.4 2.5 1.6 2.6c.5.8.7 1.9.6 2.9l-1.7 16.2c0 .4.3.9.7.9h.1c.4 0 .8-.3.8-.7l1.7-16.1c.2-1.4 0-2.8-.8-4l-1.6-2.7-.1-.1c-.1-.1 0 0 0-.1L54 65.3v-8.9l4.3-2.7c.3-.2.6-.3.9-.4l3.9-1.1c.3-.1.6.1.7.4.5 1.4-.2 2.9-1.6 3.5l-1.7.7c-.3.1-.5.4-.5.8v1.8c0 .4.3.7.7.8 2 .4 3.4 1.3 4.2 2.5 1.3 2 .7 4.4.7 4.4-.1.4.2.9.6 1 .4.1.9-.2 1-.6 0-.1.8-3.1-.9-5.7-1-1.5-2.5-2.6-4.6-3.1v-.6l1.2-.5c.3-.1.6-.3.9-.5.1.1.2.1.4.2h.4c1 0 1.9-.3 2.7-1l.6.9c.7.7 1.6 1.1 2.7 1.2h.4c.6 0 1.3-.2 1.8-.4.8.8 1.8.9 2.8.9h.5l-1.2 7.2c-.2.8-.6 1.4-1.2 2-1.9 1.7-3 4.1-2.8 6.6l.8 16.5c0 .4.4.8.8.8s.8-.4.8-.9l-.8-16.5c-.1-2 .7-4 2.3-5.3.8-.7 1.4-1.7 1.8-2.8l1.3-8.3c.5-.6.7-1.4.8-2.3zm-20-4.2c-.5.1-.9.3-1.3.6l-1.5.9v-5c0-1.4 1.2-2.6 2.6-2.6 1.4 0 2.6 1.2 2.6 2.6V51l-2.4.7zm6.4 3.9c.6-1 .7-2.3.3-3.5-.4-1.1-1.5-1.8-2.7-1.5v-2.3c0-.5-.1-1-.3-1.5.1-.7.4-1.3.9-1.7.5-.4 1.2-.6 1.9-.6.7.1 1.3.4 1.7.9.4.5.6 1.2.6 1.9l-.5 6c-.1.7-.4 1.3-.9 1.7-.3.3-.7.5-1 .6zm5.5 1.2c-.7-.1-1.3-.3-1.7-.7-.4-.4-.6-.9-.5-1.5.1-.3.2-.7.2-1l.6-6.1v-.3c.4-.9 1.4-1.5 2.4-1.4 1.2.1 2.2 1.2 2.1 2.4-.1.2-.1.4 0 .6l-.6 6.3c-.1 1.2-1.3 1.8-2.5 1.7zm6.5-1.1c-.2 1.3-.5 1.6-1.6 1.6-.8 0-1.2-.1-1.5-.3.4-.5.7-1.2.7-1.9l.6-6.1h.4c2.1 0 2.1 1.3 2.1 1.5l-.7 5.2zM95.2 64.9c-.2-1.2-1.1-2.2-2.3-2.4-.7-.1-1.4 0-2 .3-.4-.8-1.1-1.4-2.1-1.5-1.1-.2-2.2.2-2.9 1-.5-.4-1-.7-1.7-.7-1.7-.2-3.2 1-3.4 2.7l-.3 3.2v.5l-1 .5c-.2.1-.4.4-.5.6l-.7 6.3c0 .2 0 .4.2.6l1.4 1.8.8 1.8c.2.5.3 1.1.1 1.7l-2.5 8.9c-.1.4.1.9.6 1h.2c.4 0 .7-.2.8-.6l2.5-8.9c.3-.9.2-2-.2-2.8l-.8-1.9-.1-.1v-.1l-1.2-1.6.6-5.5 2.9-1.4c.2-.1.3-.1.5-.2l2.7-.4c.1 0 .1 0 .1.1.2.8-.3 1.6-1.1 1.8l-1.2.4c-.3.1-.6.4-.6.7l-.1 1.2c0 .4.2.8.6.9 1.2.4 2 1 2.4 1.8.6 1.3.1 2.7.1 2.7-.2.4.1.9.5 1h.3c.3 0 .6-.2.8-.5 0-.1.7-2.1-.2-4-.5-1.1-1.5-1.9-2.7-2.4l.6-.2c.2 0 .4-.1.5-.2.1 0 .1.1.2.1.2 0 .4.1.6.1.5 0 1-.1 1.4-.4.4.7 1.1 1.3 2.1 1.5.2 0 .5.1.7.1.3 0 .5 0 .8-.1.5.6 1.3.7 1.8.7L93 77.3c-.2.4-.5.8-.8 1.1-1.4 1-2.3 2.6-2.4 4.4l-.1 8.4c0 .4.4.8.8.8s.8-.4.8-.8l.1-8.3c.1-1.3.7-2.4 1.7-3.1.6-.4 1.1-1.1 1.5-1.9l1.4-5.2c.5-.5.7-1.1.8-1.5l.9-3.5c.2-1.6-.8-2.6-2.5-2.8zm.9 2.5-.8 3.3c-.2.7-.3.8-.9.7-.2 0-.4-.1-.5-.1.2-.3.4-.6.5-1.1l.8-3.7c1 .2.9.7.9.9zm-12.3-.8c-.3.1-.7.2-1 .3l-.6.3.3-2.7c.1-.8.8-1.3 1.5-1.3.4 0 .7.2.9.5.2.3.3.7.3 1l-.2 1.6-1.2.3zm3-.4L87 65c0-.3 0-.7-.1-1 .2-.7.9-1.2 1.6-1.1.8.2 1.3.9 1.1 1.7l-.8 3.9c-.1.3-.3.6-.5.8.2-.5.2-1.1.1-1.7-.1-.8-.8-1.4-1.6-1.4zm4.5 4.6c-.6-.1-1.2-.6-1.1-1.3.1-.2.2-.4.2-.7l.8-3.9v-.2c.3-.5.8-.7 1.3-.6.6.1 1 .7 1 1.4-.1.1-.1.3-.1.4l-.8 4c-.1.9-.8 1-1.3.9zM81.6 42h2c.4 0 .7.4.5.8l-2.2 5.3c-.2.6.5 1.1.9.7l8.4-7.4c.4-.4.1-1.1-.5-1l-1.7.3c-.4.1-.8-.4-.6-.8l2.1-5.3c.2-.4-.2-.9-.6-.8l-7.3 1c-.3 0-.5.2-.5.5l-1 6.1c-.1.3.2.6.5.6zM90.9 47.4l-2.7 2.4c-.3.2-.3.7 0 .9l.6.4c.3.3.3.8-.1 1l-2.2 1.2c-.6.3-.3 1.1.3 1.1l5.6-.2c.6 0 .8-.8.3-1.1-.4-.2-.4-.8 0-1l2.6-1.5c.4-.2.4-.8 0-1l-3.7-2.2c-.2-.2-.5-.2-.7 0z"/><g class="st4"><path class="st5" d="M11.7 96.1 17 104l-2.3.7-3.3-4.9-2.5 1.7 2.9 4.4-2 1.2-2.9-4.3-2.3 1.5 3.7 5.5-2.3.8-4.9-7.3 10.6-7.2z"/></g><g class="st4"><path class="st5" d="m15.2 106.8 1.8 1.7-.5.7c.5.1 1.1.3 1.7.6.6.3 1.1.6 1.5 1.1.4.4.7.8.9 1.3.2.5.3 1 .2 1.4.7.2 1.3.4 2 .8.6.3 1.2.7 1.6 1.1.4.4.7.8.9 1.2.2.4.3.8.3 1.2 0 .5-.1.9-.4 1.3-.2.4-.6.9-1.1 1.4l-4.3 4.4-2-2 4.1-4.1c.3-.3.5-.5.6-.7.1-.2.2-.4.2-.6 0-.4-.2-.8-.6-1.2-.2-.2-.5-.4-.9-.6-.4-.2-.8-.4-1.1-.5l-.7.7-4.3 4.4-2-2 4.1-4.1c.2-.3.4-.5.6-.7.1-.2.2-.4.2-.6 0-.4-.1-.8-.5-1.2-.3-.3-.6-.5-.9-.7-.4-.2-.7-.3-1.1-.4l-5 5.1-2-2 6.7-7z"/></g><g class="st4"><path class="st5" d="m28.2 118.9 1.9 1.3-.5.9c.5-.1 1.1 0 1.8.1s1.3.4 1.8.8c.8.5 1.4 1.1 1.8 1.9.4.7.6 1.5.6 2.4 0 .9-.3 1.7-.9 2.6-.6.9-1.3 1.6-2.2 2-.8.4-1.7.6-2.6.5-.9-.1-1.8-.4-2.6-1-.4-.3-.8-.6-1.2-1-.3-.4-.6-.7-.8-1.1l-2.3 3.6-2.7-.9 7.9-12.1zm2.2 9.9c.7-.2 1.3-.6 1.8-1.5.5-.7.6-1.4.5-2.1-.2-.7-.6-1.2-1.2-1.6-.7-.4-1.3-.6-1.9-.5s-1.1.4-1.5 1l-1.4 2.2c.1.3.2.7.5 1.1.3.4.7.8 1.1 1 .8.4 1.5.6 2.1.4z"/></g><g class="st4"><path class="st5" d="M36.1 133.9c-.5-1.2-.5-2.6.2-4 .4-1 1-1.7 1.7-2.2.7-.5 1.5-.8 2.5-.9.9 0 1.9.2 2.9.6 1 .5 1.8 1 2.4 1.7.6.7.9 1.5 1 2.4.1.9-.1 1.8-.5 2.8-.4 1-1 1.7-1.7 2.2-.7.5-1.5.8-2.5.9-.9 0-1.9-.2-2.9-.6-1.5-.8-2.6-1.7-3.1-2.9zm6 .9c.6-.3 1.2-.8 1.5-1.7s.5-1.6.2-2.3c-.2-.7-.7-1.2-1.4-1.5-.7-.3-1.4-.3-2-.1-.7.3-1.2.8-1.5 1.7s-.5 1.6-.2 2.3c.2.7.7 1.2 1.4 1.5.7.4 1.4.4 2 .1z"/></g><g class="st4"><path class="st5" d="M49.4 139.9c-.7-.6-1.1-1.3-1.3-2.2-.2-.9-.2-1.8 0-2.8.3-1 .7-1.8 1.4-2.4s1.5-1 2.4-1.2c.9-.2 1.8-.2 2.8.1.5.1.9.3 1.3.6s.7.5.9.8l1-3.8h2.9L58 139.7c-.2.8-.4 1.7-.7 2.7l-2.3-.6c0-.3 0-.7.1-1H55c-.4.3-.9.4-1.4.5-.6.1-1.1 0-1.8-.1-1-.3-1.8-.7-2.4-1.3zm4.7-.7c.4-.1.8-.2 1.1-.5l.7-2.5c.2-.7.1-1.2-.2-1.7-.3-.5-.8-.8-1.5-1-.8-.2-1.5-.1-2.1.3-.6.4-1 1-1.2 1.7-.2.9-.2 1.6.2 2.3.4.7.9 1.1 1.8 1.3.3.1.8.1 1.2.1z"/></g><g class="st4"><path class="st5" d="M61.5 141.9c-.9-1-1.2-2.3-1-3.9.1-1 .4-1.8.9-2.5s1.2-1.3 2-1.6c.8-.4 1.8-.5 2.9-.3 1.6.2 2.7.7 3.3 1.7.7 1 .9 2.1.8 3.5-.1.5-.1.9-.3 1.3l-6.8-.8c0 .6.2 1.1.7 1.5.5.4 1.2.7 2.2.8 1.1.1 2.1.1 3-.2v2.1c-1 .3-2.1.3-3.5.1-2-.1-3.4-.7-4.2-1.7zm6.2-4v-.4c0-.6-.1-1.1-.4-1.4-.3-.4-.7-.6-1.3-.6-.7-.1-1.2.1-1.7.4-.4.4-.7.9-.8 1.6l4.2.4z"/></g><g class="st4"><path class="st5" d="M72.5 134.2h2.4l.2 1.3c1.1-.9 2.3-1.4 3.8-1.6l-.1 2.5c-.6 0-1.2.2-1.8.3-.6.2-1.2.4-1.7.7l.1 6.5h-2.8l-.1-9.7z"/></g><g class="st4"><path class="st5" d="M82.4 143.5c-.6-.2-1.1-.6-1.5-1-.4-.5-.6-1-.7-1.7-.1-1 .1-1.7.8-2.3.6-.6 1.7-.9 3.3-1.1l.7-.1c.5-.1 1-.1 1.5-.1l-.1-.4c-.1-.5-.3-.8-.7-1-.4-.2-1-.2-1.8-.1-1 .1-2 .4-3 .8l-.4-2.1c.5-.2 1.1-.4 1.9-.6.7-.2 1.4-.3 2.1-.4 1.4-.2 2.5 0 3.3.5.8.5 1.3 1.3 1.4 2.5l.5 4.5c.1.9.2 1.5.3 1.9l-2.4.3c-.1-.4-.2-.7-.2-.9-.7.8-1.6 1.3-2.8 1.5-.9.1-1.6.1-2.2-.2zm3.9-2.4c.3-.3.5-.7.4-1.1l-.1-.9-2.4.3c-.4 0-.7.2-.9.4-.2.2-.3.5-.3.8 0 .4.2.7.6.9s.8.3 1.3.2c.6-.1 1.1-.3 1.4-.6z"/></g><g class="st4"><path class="st5" d="m90.7 133 2.4-.7.4.8c.4-.4.8-.8 1.3-1.2.5-.4 1.1-.6 1.6-.8.5-.2 1.1-.2 1.6-.2.5.1 1 .2 1.4.5.5-.5 1-1 1.6-1.4.6-.4 1.2-.7 1.7-.9.5-.2 1-.2 1.5-.2s.9.1 1.2.3c.4.2.7.6 1 1 .2.4.5 1 .7 1.7l1.8 5.9-2.7.8-1.7-5.6c-.1-.4-.2-.7-.3-.9-.1-.2-.2-.4-.4-.5-.3-.2-.8-.2-1.3 0-.3.1-.6.3-1 .5s-.7.5-.9.8c.1.2.2.5.3.9l1.8 5.9-2.7.8-1.7-5.6c-.1-.3-.2-.6-.3-.8-.1-.2-.3-.4-.4-.5-.3-.2-.8-.3-1.3-.1-.3.1-.7.3-1 .5-.3.2-.6.5-.9.8l2.1 6.8-2.7.8-3.1-9.4z"/></g><g class="st4"><path class="st5" d="M107 125.6c-.4-.1-.8-.4-1-.9-.2-.4-.2-.9 0-1.3s.5-.8 1-1c.4-.2.9-.3 1.3-.1.5.1.8.4 1 .8.2.4.2.9 0 1.3s-.5.8-.9 1c-.5.3-1 .3-1.4.2zm.6 1.6 2.5-1.2 4.2 8.9-2.5 1.2-4.2-8.9z"/></g><g class="st4"><path class="st5" d="M117.6 132c-1.3-.2-2.3-1.1-3.2-2.4-.5-.8-.8-1.7-.8-2.6 0-.9.2-1.7.6-2.5.4-.8 1.1-1.5 2.1-2.1 1.3-.8 2.6-1.1 3.7-.7 1.1.4 2 1.1 2.7 2.3.3.4.5.8.6 1.2l-5.9 3.6c.3.5.8.8 1.5.8.6 0 1.4-.2 2.2-.7 1-.6 1.7-1.3 2.3-2l1.3 1.7c-.6.8-1.5 1.6-2.7 2.3-1.6.9-3.1 1.3-4.4 1.1zm2.4-7c-.1-.1-.1-.2-.2-.3-.4-.5-.8-.7-1.2-.9-.4-.1-.9 0-1.4.3-.6.4-.9.8-1.1 1.4-.1.5 0 1.1.4 1.7l3.5-2.2z"/></g><g class="st4"><path class="st5" d="m121.6 119.1 1.9-1.6.7.6c.2-.6.4-1.1.8-1.6.3-.5.7-1 1.1-1.3.9-.8 1.8-1.1 2.7-1 .9.1 1.7.6 2.5 1.6l4 4.7-2.1 1.8-3.8-4.5c-.3-.3-.5-.5-.7-.6-.2-.1-.4-.2-.7-.2-.4 0-.8.2-1.2.5-.3.3-.6.6-.8.9-.2.4-.4.7-.5 1l4.6 5.4-2.1 1.8-6.4-7.5z"/></g><g class="st4"><path class="st5" d="M137.6 117c-.8.1-1.7-.2-2.6-1.1l-6.4-5.8 1.6-2.3 2 1.8 2.4-2.7 1.3 1.9-2.1 2.3 2.7 2.5c.4.4.8.6 1.2.6.4 0 .7-.2 1.1-.6.5-.6.9-1 1.1-1.5l1.6 1.3c-.1.3-.3.6-.6 1s-.6.7-.9 1.1c-.8.8-1.6 1.3-2.4 1.5z"/></g><g class="st4"><path class="st5" d="M143 110c-1.3.3-2.6 0-3.9-.9-.9-.6-1.5-1.3-1.9-2.1-.4-.8-.5-1.7-.4-2.6.1-.9.5-1.8 1.1-2.7.6-.9 1.3-1.6 2.1-2.1.8-.4 1.6-.6 2.5-.6.9.1 1.8.4 2.6 1 .9.6 1.5 1.3 1.9 2.1.4.8.5 1.7.4 2.6-.1.9-.5 1.8-1.1 2.7-.9 1.5-2 2.3-3.3 2.6zm2-5.8c-.1-.7-.6-1.3-1.4-1.8-.8-.5-1.5-.7-2.2-.6-.7.1-1.3.5-1.7 1.1-.4.6-.6 1.3-.4 2 .1.7.6 1.3 1.4 1.8.8.5 1.5.7 2.2.6.7-.1 1.3-.5 1.7-1.1.4-.6.6-1.3.4-2z"/></g></svg>