<svg version="1.1" id="Capa_1" xmlns="http://www.w3.org/2000/svg" x="0" y="0" viewBox="0 0 150 150" style="enable-background:new 0 0 150 150" xml:space="preserve"><style>.st3{fill:#fff}.st4{enable-background:new}.st5{fill:#d2010d}</style><g id="Capa_1-2"><circle cx="75" cy="62.9" r="59.1" style="fill:#d2151a"/><circle cx="75" cy="62.9" r="62.3" style="fill:none;stroke:#d2151a;stroke-width:.87;stroke-miterlimit:10"/><radialGradient id="SVGID_1_" cx="51.46" cy="145.351" r="118.394" gradientTransform="matrix(1 0 0 -1 0 152.83)" gradientUnits="userSpaceOnUse"><stop offset="0" style="stop-color:#fff"/><stop offset="1" style="stop-color:#f9f9f9;stop-opacity:0"/></radialGradient><circle cx="75" cy="62.9" r="59" style="opacity:.69;fill:url(#SVGID_1_);enable-background:new"/><path class="st3" d="M75 47.6c-8.4 0-15.3 6.8-15.3 15.3S66.6 78.1 75 78.1s15.3-6.8 15.3-15.3S83.4 47.6 75 47.6zm0 28.9c-7.5 0-13.6-6.1-13.6-13.6S67.5 49.3 75 49.3s13.6 6.1 13.6 13.6S82.5 76.5 75 76.5z"/><circle class="st3" cx="75" cy="62.9" r="6.2"/><path class="st3" d="M104.2 62h-5.4c-.4-12.4-10.5-22.5-22.9-22.9v-5.4c0-.4-.4-.8-.8-.8s-.8.4-.8.8v5.4c-12.6.5-22.6 10.5-23 22.9h-5.4c-.5 0-.8.4-.8.8 0 .5.4.8.8.8h5.4c.4 12.4 10.5 22.5 22.9 22.9V92c0 .4.4.8.8.8s.8-.4.8-.8v-5.4c12.4-.4 22.5-10.5 22.9-22.9h5.4c.5 0 .8-.4.8-.8.1-.5-.3-.9-.7-.9zM75.8 85v-1.8c0-.4-.4-.8-.8-.8s-.8.4-.8.8V85c-11.5-.4-20.8-9.7-21.3-21.3h1.8c.5 0 .8-.4.8-.8 0-.5-.4-.8-.8-.8h-1.8c.4-11.5 9.7-20.8 21.3-21.3v1.8c0 .4.4.8.8.8s.8-.4.8-.8v-1.8c11.5.4 20.8 9.7 21.3 21.3h-1.8c-.5 0-.8.4-.8.8 0 .5.4.8.8.8h1.8c-.4 11.5-9.7 20.8-21.3 21.3z"/><g class="st4"><path class="st5" d="m40.2 123 8.6 3.9-1.6 1.8-5.4-2.4-1.2 2.8 4.8 2.1-1.1 2.1-4.7-2.1-1.1 2.5 6.1 2.7-1.6 1.8-8-3.6 5.2-11.6z"/></g><g class="st4"><path class="st5" d="m49 129.9 2.4.7-.1.9c.6-.2 1.2-.3 1.8-.3.6 0 1.2 0 1.7.2 1.1.3 1.9.9 2.3 1.7.4.8.4 1.8.1 3l-1.7 6-2.7-.8 1.6-5.7c.1-.4.2-.7.1-.9 0-.2-.1-.5-.2-.6-.2-.3-.6-.6-1.1-.7-.4-.1-.8-.1-1.2-.1-.4 0-.8.1-1.1.2l-1.9 6.8-2.7-.8 2.7-9.6z"/></g><g class="st4"><path class="st5" d="M60.3 133c.2-1.4.8-2.4 1.7-3 .9-.6 2.1-.8 3.6-.6.8.1 1.6.3 2.3.6l-.6 2c-.5-.2-1.1-.3-1.8-.4-.8-.1-1.3 0-1.7.2-.4.2-.6.7-.7 1.4v.2l4 .6-1 2.1-3.3-.5-1.1 7.4-2.8-.4 1.4-9.6z"/></g><g class="st4"><path class="st5" d="M68.4 142.6c-.9-.9-1.4-2.2-1.3-3.8 0-1 .3-1.9.7-2.7.5-.8 1.1-1.3 2-1.7.8-.4 1.8-.6 2.9-.5 1.1 0 2.1.3 2.9.7.8.4 1.4 1 1.8 1.8.4.8.6 1.7.6 2.7 0 1-.3 1.9-.7 2.7-.5.8-1.1 1.3-2 1.7-.8.4-1.8.6-2.9.5-1.7.1-3-.4-4-1.4zm6-1.3c.5-.5.8-1.2.8-2.2s-.2-1.7-.7-2.2-1.1-.8-1.9-.8c-.8 0-1.4.2-1.9.7S70 138 70 139c0 .9.2 1.7.7 2.2.5.5 1.1.8 1.9.8.7 0 1.3-.2 1.8-.7z"/></g><g class="st4"><path class="st5" d="M88.2 142.3c-.3.3-.7.6-1.1.8-.5.2-1 .4-1.6.4-.9.1-1.8 0-2.6-.3s-1.5-.8-2-1.5c-.6-.7-.9-1.6-1-2.6-.1-.9 0-1.8.4-2.7.4-.8 1-1.5 1.7-2 .8-.5 1.6-.9 2.6-1 .5-.1 1.1 0 1.6.1s1 .3 1.3.6l.1-.9 2.3-.3 1.7 13.5-2.7 1-.7-5.1zm-1.2-1.5c.4-.2.7-.5.9-.8l-.3-2.7c-.1-.6-.3-1.1-.8-1.4s-1-.5-1.6-.4c-.8.1-1.4.4-1.9 1s-.7 1.3-.6 2.1c.1.9.5 1.6 1 2 .6.4 1.3.6 2 .5.5.1 1-.1 1.3-.3z"/></g><g class="st4"><path class="st5" d="M95.4 140.9c-.9-.4-1.6-1.3-2-2.6l-1.6-5.8 2.7-.8 1.6 5.8c.2.6.5 1 .8 1.2s.9.2 1.5.1c.6-.2 1-.4 1.3-.8.2-.4.3-.9.1-1.5l-1.6-5.8 2.7-.8 1.6 5.8c.4 1.3.2 2.3-.4 3.2-.6.9-1.6 1.5-3.1 1.9-1.4.5-2.6.5-3.6.1z"/></g><g class="st4"><path class="st5" d="M107.2 136.8c-1.2-.4-2.2-1.4-2.8-2.8-.4-.9-.6-1.8-.5-2.7.1-.9.4-1.7.9-2.4s1.3-1.3 2.3-1.8c1.4-.6 2.7-.7 3.7-.2 1.1.5 1.9 1.4 2.4 2.6.2.4.3.9.4 1.3l-6.3 2.8c.3.6.7.9 1.4 1 .6.1 1.4 0 2.3-.4 1-.5 1.9-1 2.5-1.7l1.1 1.8c-.7.7-1.7 1.3-3 1.9-1.6.8-3.1 1-4.4.6zm3.3-6.6c-.1-.1-.1-.2-.2-.3-.3-.5-.7-.8-1.1-1-.4-.2-.9-.1-1.4.1-.6.3-1 .7-1.2 1.2-.2.5-.1 1.1.1 1.7l3.8-1.7z"/></g></g></svg>