<svg version="1.1" id="Capa_1" xmlns="http://www.w3.org/2000/svg" x="0" y="0" viewBox="0 0 150 150" style="enable-background:new 0 0 150 150" xml:space="preserve"><style>.st3{fill:#fff}.st4{enable-background:new}.st5{fill:#d2010d}</style><g id="Capa_1-2"><circle cx="75" cy="62.9" r="59" style="fill:#d2151a"/><circle cx="75" cy="62.9" r="62.2" style="fill:none;stroke:#d2151a;stroke-width:.87;stroke-miterlimit:10"/><radialGradient id="SVGID_1_" cx="51.502" cy="145.24" r="118.209" gradientTransform="matrix(1 0 0 -1 0 152.82)" gradientUnits="userSpaceOnUse"><stop offset="0" style="stop-color:#fff"/><stop offset="1" style="stop-color:#f9f9f9;stop-opacity:0"/></radialGradient><circle cx="75" cy="62.9" r="59" style="opacity:.69;fill:url(#SVGID_1_);enable-background:new"/><path class="st3" d="M90.6 63.8c-.5 0-1 .1-1.4.3-.6-1.1-1.9-1.9-3.3-1.9-.8 0-1.5.2-2.1.7-.7-1-1.8-1.7-3.1-1.7-2.1 0-3.8 1.7-3.8 3.8V50.1c0-2.1-1.7-3.8-3.8-3.8s-3.8 1.7-3.8 3.8v24.2L64 70.2c-1.8-1.4-4.4-1.1-5.9.6v.1c-.8.9-.7 2.2.2 3l14.9 13.7c2.9 2.6 6.6 4.1 10.5 4.1h2.1c4.8 0 8.7-3.9 8.7-8.7V67.5c-.1-2-1.8-3.7-3.9-3.7z"/><path class="st3" d="M77.8 58c.2.2.4.3.6.3.2 0 .4-.1.6-.2 1.8-1.7 2.9-4 2.9-6.5 0-4.8-3.9-8.7-8.7-8.7s-8.7 3.9-8.7 8.7c0 2.3.9 4.4 2.5 6.1.3.3.8.3 1.2 0 .3-.3.3-.8 0-1.2-1.3-1.3-2-3.1-2-4.9 0-3.9 3.2-7.1 7.1-7.1s7.1 3.2 7.1 7.1c0 2-.8 3.9-2.3 5.3-.6.3-.6.8-.3 1.1z"/><path class="st3" d="M82.5 59.2c.4.3.9.2 1.1-.2 1.5-2.2 2.3-4.7 2.3-7.4 0-7.1-5.8-12.9-12.9-12.9-7.1 0-12.9 5.8-12.9 12.9 0 4.6 2.5 8.9 6.5 11.2.1.1.3.1.4.1.3 0 .6-.2.7-.4.2-.4.1-.9-.3-1.1-3.5-2-5.7-5.8-5.7-9.8 0-6.2 5.1-11.3 11.3-11.3s11.3 5.1 11.3 11.3c0 2.3-.7 4.6-2 6.5-.2.3-.1.8.2 1.1z"/><path class="st3" d="M66.9 67.9h.3c.3 0 .6-.2.8-.5.2-.4-.1-.9-.5-1.1-6.1-2.3-10.2-8.2-10.2-14.8 0-8.7 7.1-15.8 15.8-15.8s15.8 7.1 15.8 15.8c0 2.9-.8 5.8-2.3 8.3-.2.4-.1.9.3 1.1s.9.1 1.1-.3c1.7-2.7 2.6-5.9 2.6-9.1 0-9.6-7.8-17.4-17.4-17.4S55.6 42 55.6 51.6c0 7.2 4.6 13.7 11.3 16.3z"/><g class="st4"><path class="st5" d="m15.2 101.1 1.7 2.3L6.7 111 5 108.7l10.2-7.6z"/></g><g class="st4"><path class="st5" d="m15.9 107 1.7 1.8-.5.7c.6.1 1.1.4 1.7.7.6.3 1 .7 1.4 1.1.8.8 1.2 1.7 1.1 2.6 0 .9-.5 1.7-1.4 2.6l-4.5 4.2-1.9-2 4.3-4c.3-.3.5-.5.6-.7.1-.2.2-.4.1-.7 0-.4-.2-.8-.6-1.2-.3-.3-.6-.5-.9-.7-.4-.2-.7-.3-1-.4l-5.2 4.9-1.9-2 7-6.9z"/></g><g class="st4"><path class="st5" d="m24.2 115.3 2.1 1.8-6.3 7.5-2.1-1.8 6.3-7.5zm1.2-1.3c-.1-.5.1-.9.4-1.2s.7-.6 1.2-.6.9.1 1.3.5c.4.3.6.7.7 1.2.1.5-.1.9-.4 1.2-.3.4-.7.6-1.2.6s-.9-.1-1.3-.5c-.4-.3-.6-.7-.7-1.2z"/></g><g class="st4"><path class="st5" d="M24.7 127.6c-.5-.8-.7-1.7-.7-2.6 0-.9.3-1.8.9-2.7.6-.9 1.3-1.5 2.1-1.8.8-.4 1.7-.5 2.7-.3s1.9.6 2.8 1.2c.8.6 1.5 1.2 2.2 2l-1.5 1.6c-.4-.6-1-1.1-1.7-1.6-.8-.5-1.5-.8-2.3-.7-.8.1-1.4.5-1.9 1.2-.5.8-.7 1.5-.5 2.3.2.8.7 1.4 1.5 1.9s1.5.9 2.3 1l-1 1.9c-.4-.1-.8-.2-1.3-.4s-1-.5-1.5-.8c-.9-.6-1.6-1.4-2.1-2.2z"/></g><g class="st4"><path class="st5" d="m36.6 124 2.5 1.3-4.7 8.6-2.5-1.3 4.7-8.6zm.9-1.4c-.2-.4-.1-.9.1-1.3s.6-.7 1-.8c.5-.1.9 0 1.3.2s.7.6.9 1c.2.4.1.9-.1 1.3s-.6.7-1 .8-.9 0-1.3-.2c-.5-.3-.8-.6-.9-1z"/></g><g class="st4"><path class="st5" d="M38.4 135.8c-.4-.5-.7-1-.8-1.6-.1-.6 0-1.2.2-1.8.4-.9 1-1.4 1.8-1.6.8-.2 1.9 0 3.4.6l.6.3c.4.2.9.4 1.4.6l.2-.4c.2-.5.2-.9-.1-1.2-.3-.4-.8-.7-1.5-1-.9-.4-1.9-.6-3-.8l.6-2c.5.1 1.2.2 1.9.4s1.4.4 2 .7c1.3.5 2.2 1.2 2.7 2s.5 1.8 0 2.9l-1.7 4.2c-.3.8-.6 1.4-.7 1.8l-2.2-.9c.1-.4.1-.7.2-.9-1 .4-2 .4-3.2-.1-.8-.3-1.3-.7-1.8-1.2zm4.6-.3c.4-.1.8-.4.9-.8l.3-.8-2.2-.9c-.4-.2-.7-.2-1-.1-.3.1-.5.3-.6.6-.2.4-.1.7.1 1.1.2.3.5.6 1 .8.6.2 1.1.2 1.5.1z"/></g><g class="st4"><path class="st5" d="M49.3 139.4c-.5-.7-.5-1.6-.2-2.8l2.3-8.3 2.8.4-.7 2.6 3.5 1-1.1 2-3-.8-1 3.5c-.2.6-.2 1 0 1.3.2.3.5.5 1 .7.7.2 1.3.3 1.8.3l-.4 2c-.3 0-.7 0-1.2-.1s-.9-.2-1.3-.3c-1.2-.4-2.1-.9-2.5-1.5z"/></g><g class="st4"><path class="st5" d="m58.5 132.3 2.7.5-1.9 9.6-2.7-.5 1.9-9.6zm.5-1.7c-.3-.4-.4-.8-.3-1.3.1-.5.3-.8.7-1.1.4-.2.8-.3 1.3-.2.5.1.9.3 1.2.7.3.4.4.8.3 1.3-.1.5-.3.8-.7 1.1-.4.2-.8.3-1.3.2-.5-.1-.9-.3-1.2-.7z"/></g><g class="st4"><path class="st5" d="m62.2 133.2 3 .3 2 6.5h.1l3-6.1 3 .3-5.2 9.4-2.3-.2-3.6-10.2z"/></g><g class="st4"><path class="st5" d="M75.6 143.7c-.6-.3-1.1-.6-1.4-1.1-.3-.5-.5-1.1-.6-1.7 0-1 .3-1.7.9-2.2.7-.5 1.8-.8 3.3-.9H80v-.4c0-.5-.2-.9-.6-1.1s-1-.3-1.8-.3c-1 0-2 .2-3.1.5l-.3-2.1c.5-.2 1.2-.3 1.9-.4.7-.1 1.4-.2 2.1-.2 1.4-.1 2.5.2 3.3.7.8.5 1.2 1.4 1.2 2.6l.2 4.5c0 .9.1 1.5.1 2l-2.4.1c-.1-.4-.2-.7-.2-.9-.7.8-1.7 1.2-2.9 1.2-.6 0-1.3-.1-1.9-.3zm4.1-2.2c.4-.3.5-.6.5-1.1v-.9l-2.4.1c-.4 0-.7.1-.9.3-.2.2-.3.4-.3.8s.2.7.5 1c.3.2.7.3 1.3.3.5-.1.9-.2 1.3-.5z"/></g><g class="st4"><path class="st5" d="M88.4 130.2 93 129c1.4-.3 2.5-.5 3.5-.5s1.9.3 2.7.7c1.3.7 2.2 2 2.7 3.9.5 2 .3 3.7-.7 5.1-.5.7-1.1 1.3-1.9 1.8-.8.5-1.8.9-2.9 1.2l-4.9 1.3-3.1-12.3zM96 139c.8-.2 1.4-.4 1.8-.7.4-.3.8-.7 1.1-1.1.3-.4.4-.9.5-1.5 0-.6 0-1.1-.2-1.8s-.4-1.2-.7-1.6-.6-.7-1-.9c-.5-.3-1-.4-1.5-.4-.6 0-1.2.1-2 .3l-2.3.6 2 7.8 2.3-.7z"/></g><g class="st4"><path class="st5" d="M102.3 127.3c-.4-.2-.7-.5-.9-.9-.2-.4-.2-.9 0-1.3s.5-.7 1-.9c.5-.2.9-.2 1.4 0 .4.2.8.5.9.9.2.4.2.9-.1 1.3s-.5.7-1 .9c-.4.2-.9.2-1.3 0zm.5 1.7 2.6-1 3.6 9.1-2.6 1-3.6-9.1z"/></g><g class="st4"><path class="st5" d="M117.1 138.2c-.6.2-1.1.4-1.6.5l-.8-2c.4-.1.9-.2 1.4-.3.5-.2.9-.3 1.3-.6 1.7-.9 2.1-2.1 1.3-3.6l-.3-.5c-.2.4-.4.8-.8 1.2-.4.4-.8.7-1.3 1-.9.5-1.8.7-2.7.7-.9 0-1.7-.3-2.4-.7-.7-.5-1.3-1.1-1.8-2-.5-.8-.7-1.7-.6-2.6 0-.9.3-1.7.8-2.5s1.3-1.4 2.2-1.9c.5-.3 1.1-.5 1.6-.5s1.1 0 1.6.2l-.3-1 1.8-1 4.3 8c.8 1.6 1.1 2.9.7 4.1-.4 1.2-1.3 2.2-2.7 3-.6 0-1.1.3-1.7.5zm-.3-7.4c.3-.3.5-.6.6-.9l-1.4-2.7c-.3-.5-.7-.8-1.2-.9-.5-.1-1.1 0-1.7.3-.7.4-1.2 1-1.4 1.7-.2.7-.1 1.4.3 2.2.4.8 1 1.3 1.7 1.5.7.2 1.4.1 2.1-.3.4-.3.7-.6 1-.9z"/></g><g class="st4"><path class="st5" d="M117.4 119.6c-.5-.1-.8-.3-1.1-.7s-.4-.8-.3-1.3c.1-.5.4-.8.8-1.1.4-.3.8-.4 1.3-.3.5.1.8.3 1.1.7s.4.8.2 1.3c-.1.5-.4.8-.8 1.1-.3.2-.8.3-1.2.3zm.9 1.5 2.3-1.6 5.6 8.1-2.3 1.6-5.6-8.1z"/></g><g class="st4"><path class="st5" d="M128.9 124.6c-.8 0-1.6-.5-2.4-1.4l-5.5-6.6 1.9-2.1 1.7 2.1 2.8-2.3 1 2-2.4 2 2.3 2.8c.4.4.7.7 1.1.7.4 0 .7-.1 1.1-.4.6-.5 1-.9 1.3-1.3l1.4 1.5c-.2.3-.4.6-.7.9-.3.3-.6.7-1 .9-.9.8-1.8 1.2-2.6 1.2z"/></g><g class="st4"><path class="st5" d="M136.1 118.8c-.6.2-1.2.3-1.8.2-.6-.1-1.1-.4-1.6-.8-.7-.6-1-1.4-.9-2.2.1-.8.7-1.8 1.8-2.9l.5-.5c.3-.4.7-.7 1.1-1.1l-.3-.3c-.4-.3-.8-.5-1.2-.3s-.9.5-1.4 1.1c-.7.7-1.3 1.6-1.8 2.5l-1.7-1.3c.3-.5.6-1 1-1.6s.9-1.1 1.3-1.6c1-1 1.9-1.6 2.8-1.8.9-.2 1.8.2 2.7 1l3.3 3.1c.7.6 1.1 1 1.5 1.3l-1.6 1.8c-.3-.2-.6-.4-.8-.5 0 1.1-.4 2-1.2 2.9-.5.4-1.1.8-1.7 1zm1.4-4.4c.1-.5-.1-.8-.4-1.1l-.7-.6-1.6 1.8c-.3.3-.4.6-.5.9 0 .3.1.5.3.8.3.3.6.4 1 .3.4-.1.8-.3 1.1-.7.5-.5.7-.9.8-1.4z"/></g><g class="st4"><path class="st5" d="m132.8 103.1 1.1-2.7 11.1 8.2-1.7 2.2-10.5-7.7z"/></g></g></svg>