<svg version="1.1" id="Capa_1" xmlns="http://www.w3.org/2000/svg" x="0" y="0" viewBox="0 0 150 150" style="enable-background:new 0 0 150 150" xml:space="preserve"><style>.st4{enable-background:new}.st5{fill:#d2010d}</style><g id="Capa_1-2"><circle cx="75" cy="62.9" r="59.1" style="fill:#d2151a"/><circle cx="75" cy="62.9" r="62.3" style="fill:none;stroke:#d2151a;stroke-width:.87;stroke-miterlimit:10"/><radialGradient id="SVGID_1_" cx="51.467" cy="145.333" r="118.359" gradientTransform="matrix(1 0 0 -1 0 152.83)" gradientUnits="userSpaceOnUse"><stop offset="0" style="stop-color:#fff"/><stop offset="1" style="stop-color:#f9f9f9;stop-opacity:0"/></radialGradient><circle cx="75" cy="62.9" r="59" style="opacity:.69;fill:url(#SVGID_1_);enable-background:new"/><path d="M93.8 52.4c0-5.1-2-9.9-5.7-13.4-3.7-3.6-8.5-5.4-13.6-5.3-10.2.2-18.5 8.8-18.3 19 .1 4.2 1.4 8.1 4 11.3 2.7 3.4 4.4 7.4 4.9 11.7 0 .3.1.5.1.8V82c0 5.6 4.5 10.1 10.1 10.1S85.4 87.5 85.4 82v-8c.8-3.9 2.3-7.3 4.4-10.1 2.6-3.3 4-7.3 4-11.5zm-19.2-4.7c0-.5.1-.7.2-.8h.2s.2.2.2.8c0 .4-.1.8-.3 1.2-.2-.3-.3-.7-.3-1.2zm.3 3.9c.9.8 2 1.6 3.2 2.3l1.2.6c-1.2 7.5-2.9 22.7-3.4 26.8-.3 0-.6.1-.9.1-.5 0-1-.1-1.5-.1-.4-4-1.9-19.2-3.1-26.7l1.2-.6c1.3-.9 2.4-1.6 3.3-2.4zm8.9 22c-.1.1-.2.2-.2.4-.1.3-.1.6-.2 1h.1v.1h-.1c-.8 2.9-3.1 5.1-5.8 5.9.9-8.4 2.3-20.1 3.3-26.1.4 0 .7 0 1-.1 1-.3 1.8-1 2.5-2.2.4-.8.4-1.7 0-2.4-.5-.7-1.3-1.2-2.1-1.1-.9 0-1.6.6-2 1.5-.2.3-.4 1.2-.6 2.4l-.6-.3c-1.2-.7-2.2-1.4-3-2.2.5-.8.8-1.6.9-2.6 0-1-.4-1.6-.7-2-.3-.3-.8-.6-1.3-.5-.5 0-.9.2-1.3.5-.3.3-.7.9-.7 2 0 1 .3 1.8.9 2.6-.8.7-1.8 1.4-3 2.2l-.6.3c-.2-1.2-.4-2.1-.6-2.4-.4-.9-1.2-1.4-2-1.5-.8 0-1.7.4-2.1 1.1-.5.7-.5 1.6 0 2.4.6 1.2 1.5 1.9 2.5 2.2.3.1.6.1 1 .1.9 5.9 2.1 17.5 3 25.9-2-.8-3.7-2.3-4.7-4.3v-.1c0-.1-.1-.2-.2-.3 0-.1-.1-.3-.1-.5-.6-4.6-2.4-8.9-5.3-12.5-2.3-3-3.6-6.6-3.7-10.3-.1-9.4 7.4-17.1 16.7-17.4h.4c4.5 0 8.7 1.7 12 4.9 3.3 3.2 5.2 7.6 5.2 12.3 0 3.8-1.2 7.5-3.6 10.5-2.5 2.8-4.1 6.4-5 10.5zm-2.6-20.4c.2-1.1.4-1.8.5-2 .1-.2.3-.5.7-.6.2 0 .5.1.6.4.2.2.1.5 0 .8-.4.8-.9 1.3-1.5 1.4-.1 0-.2.1-.3 0zm-12.6 0h-.3c-.6-.2-1-.6-1.5-1.4-.2-.3-.2-.6 0-.8.1-.2.4-.4.6-.4.3 0 .5.3.7.6.2.2.3.9.5 2z" style="fill:#fff"/><g class="st4"><path class="st5" d="m30.8 117 2.3 1.6-7.3 10.4-2.3-1.6 7.3-10.4z"/></g><g class="st4"><path class="st5" d="m33.4 122.4 2.2 1.2-.3.8c.6 0 1.2 0 1.8.1.6.1 1.2.3 1.6.6 1 .6 1.6 1.3 1.9 2.1.2.8 0 1.8-.6 2.9l-3 5.4-2.5-1.3 2.8-5.2c.2-.4.3-.6.3-.9 0-.2 0-.5-.1-.7-.1-.4-.5-.7-.9-.9-.3-.2-.7-.3-1.1-.4-.4-.1-.8-.1-1.1-.1l-3.4 6.2-2.5-1.3 4.9-8.5z"/></g><g class="st4"><path class="st5" d="m43.6 127.8 2.3.8-.2.9c.6-.1 1.2-.2 1.8-.1.6 0 1.2.1 1.7.3 1.1.4 1.8 1 2.2 1.8.4.8.3 1.8-.1 3l-2.1 5.8-2.6-1 2-5.5c.1-.4.2-.7.2-.9 0-.2-.1-.5-.2-.7-.2-.3-.6-.6-1.1-.8-.4-.1-.8-.2-1.2-.2-.4 0-.8 0-1.1.1l-2.4 6.7-2.6-1 3.4-9.2z"/></g><g class="st4"><path class="st5" d="M53.7 140.3c-.8-1.1-1-2.4-.7-3.9.2-1 .6-1.9 1.2-2.5.6-.7 1.3-1.1 2.2-1.4.9-.2 1.9-.2 3 0s2 .6 2.7 1.2c.7.6 1.2 1.3 1.5 2.1s.3 1.8.1 2.8c-.2 1-.6 1.9-1.2 2.5s-1.3 1.1-2.2 1.4c-.9.2-1.9.2-3 0-1.6-.4-2.8-1.1-3.6-2.2zm6.1-.4c.6-.4.9-1.1 1.1-2 .2-.9.1-1.7-.3-2.3-.4-.6-.9-1-1.7-1.1-.8-.2-1.4 0-2 .4-.6.4-1 1.1-1.1 2-.2.9-.1 1.7.3 2.3.4.6.9 1 1.7 1.1.8.1 1.5 0 2-.4z"/></g><g class="st4"><path class="st5" d="m64.9 133.7 3 .2 2.2 6.4h.1l2.8-6.2 3 .2-4.9 9.6-2.3-.1-3.9-10.1z"/></g><g class="st4"><path class="st5" d="M78.7 143.7c-.6-.2-1.1-.6-1.5-1.1-.4-.5-.6-1-.6-1.7-.1-1 .2-1.7.9-2.2.6-.5 1.7-.8 3.3-1l.7-.1H83v-.4c0-.5-.3-.8-.6-1-.4-.2-1-.3-1.8-.2-1 .1-2 .3-3.1.6l-.3-2.1c.5-.2 1.1-.3 1.9-.5l2.1-.3c1.4-.1 2.5.1 3.3.6.8.5 1.2 1.4 1.3 2.6l.3 4.5c.1.9.1 1.5.2 1.9l-2.4.2c-.1-.4-.2-.7-.2-.9-.7.8-1.7 1.3-2.9 1.3-.8.1-1.5 0-2.1-.2zm4-2.3c.4-.3.5-.7.5-1.1l-.1-.9-2.4.2c-.4 0-.7.1-.9.3-.2.2-.3.5-.3.8 0 .4.2.7.5.9.3.2.8.3 1.3.3.6-.1 1-.2 1.4-.5z"/></g><g class="st4"><path class="st5" d="M91.6 142c-.9-.2-1.7-.6-2.3-1.3-.6-.7-1-1.5-1.3-2.5-.2-1-.2-2 .2-2.8.3-.9.9-1.6 1.7-2.2.8-.6 1.7-1 2.8-1.2 1-.2 1.9-.3 2.9-.2l.1 2.2c-.7-.1-1.5-.1-2.4.1-.9.2-1.6.6-2.1 1.2s-.6 1.4-.5 2.3.6 1.6 1.3 1.9c.7.4 1.5.5 2.4.3.9-.2 1.7-.5 2.3-.9l.7 2c-.3.2-.7.4-1.2.6-.5.2-1 .4-1.6.5-1 .2-2.1.2-3 0z"/></g><g class="st4"><path class="st5" d="M96.9 129.2c-.4-.2-.7-.5-.8-1-.1-.5-.1-.9.1-1.3s.6-.7 1.1-.8c.5-.1.9-.1 1.4.1.4.2.7.5.9 1s.1.9-.2 1.3c-.2.4-.6.7-1.1.8-.5.2-1 .1-1.4-.1zm.4 1.7 2.7-.8 2.9 9.4-2.7.8-2.9-9.4z"/></g><g class="st4"><path class="st5" d="M106.5 137.1c-1.2-.4-2.2-1.4-2.8-2.8-.4-1-.6-1.9-.5-2.8.1-.9.4-1.7 1-2.4s1.4-1.3 2.4-1.7c1-.5 2-.7 2.9-.6.9 0 1.7.3 2.4.8s1.3 1.3 1.7 2.2c.4 1 .6 1.9.5 2.8-.1.9-.4 1.7-1 2.4s-1.4 1.3-2.4 1.7c-1.5.7-3 .8-4.2.4zm-2.9-11.2 2.8-3.8 1.9 1.3-3.3 3.6-1.4-1.1zm7.7 7.3c.2-.7.2-1.4-.2-2.3-.4-.9-.9-1.4-1.5-1.7s-1.3-.3-2 .1c-.7.3-1.2.8-1.4 1.5-.2.7-.2 1.4.2 2.3.4.9.9 1.4 1.5 1.7.7.3 1.3.2 2.1-.1.6-.3 1.1-.8 1.3-1.5z"/></g><g class="st4"><path class="st5" d="m113.1 124.5 2.1-1.3.6.7c.2-.5.6-1 1-1.5s.8-.9 1.3-1.2c1-.6 1.9-.8 2.8-.6.8.2 1.6.8 2.3 1.9l3.3 5.2-2.4 1.5-3.2-4.9c-.2-.3-.4-.6-.6-.7l-.6-.3c-.4 0-.8.1-1.3.4-.3.2-.6.5-.9.8-.3.3-.5.6-.6 1l3.8 6-2.4 1.5-5.2-8.5z"/></g></g></svg>