<svg version="1.1" id="Capa_1" xmlns="http://www.w3.org/2000/svg" x="0" y="0" viewBox="0 0 150 150" style="enable-background:new 0 0 150 150" xml:space="preserve"><style>.st3{fill:#fff}.st4{enable-background:new}.st5{fill:#d2010d}</style><g id="Capa_1-2"><circle cx="75" cy="60.8" r="57.2" style="fill:#d2151a"/><circle cx="75" cy="60.8" r="60.3" style="fill:none;stroke:#d2151a;stroke-width:.87;stroke-miterlimit:10"/><radialGradient id="SVGID_1_" cx="52.222" cy="145.311" r="114.565" gradientTransform="matrix(1 0 0 -1 0 152.54)" gradientUnits="userSpaceOnUse"><stop offset="0" style="stop-color:#fff"/><stop offset="1" style="stop-color:#f9f9f9;stop-opacity:0"/></radialGradient><circle cx="75" cy="60.8" r="57.1" style="opacity:.69;fill:url(#SVGID_1_);enable-background:new"/><path class="st3" d="M105.2 71.9h-7.6c-1.5 0-3 .4-4.4 1.1l-11.9 6.3c-.7.4-1.5.6-2.3.6H57.7c-1.1 0-2.2-.4-3.1-1.1L46.4 72c-.9-.8-1.1-2.1-.4-3.1 1.2-1.7 3.5-2.2 5.2-1.1l7.5 4.9c.1.1.3.1.4.1h14.6c1.5 0 3-.5 4.2-1.3l3.5-2.4c.4-.3.5-.7.2-1.1-.3-.4-.7-.5-1.1-.2L77 70.2c-1 .7-2.1 1-3.3 1h-7.3c-1.7 0-3.1-1.4-3.1-3.1 0-1.7 1.4-3.1 3.1-3.1h5.1c2.8 0 5.4-1.3 7.3-3.7 1.4-1.8 4.2-3.1 7.8-3.7 2.2-.3 4.6-.1 6.9.8.8.3 1.7.5 2.6.5h9.1c.4 0 .8-.4.8-.8s-.4-.8-.8-.8h-9.1c-.7 0-1.3-.1-2-.4-2.5-1-5.2-1.3-7.7-.9-4 .6-7.1 2.2-8.8 4.3-1.6 2-3.7 3.1-6.1 3.1h-5.1c-2.6 0-4.7 2.1-4.7 4.7 0 1.2.5 2.2 1.2 3.1h-3.6L52 66.5c-2.5-1.6-5.8-.9-7.4 1.5-1.1 1.7-.8 3.9.8 5.2l8.1 6.7c1.2.9 2.6 1.5 4.1 1.5H79c1 0 2.1-.3 3-.8l11.9-6.3c1.1-.6 2.4-.9 3.6-.9h7.6c.4 0 .8-.4.8-.8s-.3-.8-.7-.7zM53 52.2c.2 1.6.8 3.3 1.9 4.8 2.6 3.4 7.2 4.7 11.2 3.1 4-1.6 6.2-5.5 6-9.5 0-.4-.6-.5-.8-.1-.6 1.4-1.6 2.7-2.9 3.7 0 0 0-.1.1-.1 4.1-5.5-.7-13.4-7.5-12.3l-1.2.3c.2.3.4.6.6 1 1.6 3.2.3 7-2.8 8.7-1.5.7-3.1.8-4.6.4z"/><path class="st3" d="M57.1 45.5c-1.3-1.7-3.3-1.9-4.1-4.8 0 0-3.5 4-.3 7.5 3.3 2.7 5.7-.9 4.4-2.7z"/><g class="st4"><path class="st5" d="m48.4 127.1 4.6 1.5c1.6.5 2.7 1.2 3.3 2.1.6.9.7 2 .3 3.4-.4 1.3-1.1 2.2-2.1 2.7s-2.3.5-3.8 0l-2.2-.7-1.2 3.7-2.6-.8 3.7-11.9zm2.8 7.4c.7.2 1.3.2 1.8 0s.8-.6 1-1.3c.4-1.2-.2-2.1-1.6-2.6l-2-.6-1.2 3.8 2 .7z"/></g><g class="st4"><path class="st5" d="M58 142.3c-.5-.4-.9-.8-1.1-1.4s-.3-1.1-.2-1.7c.2-.9.6-1.5 1.3-1.9.7-.3 1.8-.4 3.3-.2l.6.1c.5.1.9.2 1.4.3l.1-.4c.1-.5 0-.9-.4-1.1-.3-.3-.9-.5-1.6-.6-.9-.2-1.9-.2-3-.1l.2-2c.5 0 1.2-.1 1.9 0 .7 0 1.4.1 2 .2 1.3.2 2.3.7 3 1.3.6.7.9 1.6.7 2.7l-.7 4.3c-.1.9-.2 1.5-.3 1.9l-2.3-.4v-.9c-.8.6-1.8.8-3 .6-.8-.1-1.4-.3-1.9-.7zm4.2-1.2c.4-.2.6-.5.7-.9l.1-.9-2.3-.4c-.4-.1-.7 0-.9.1s-.4.4-.5.7c-.1.4 0 .7.3 1 .3.3.6.5 1.1.5.7.1 1.1.1 1.5-.1z"/></g><g class="st4"><path class="st5" d="m67.7 143.6.3-2.2c.5.2 1 .4 1.6.5.5.1 1.1.2 1.5.2.6 0 1 0 1.3-.2s.4-.3.4-.6c0-.2 0-.3-.1-.4-.1-.1-.3-.2-.5-.4-.3-.1-.7-.3-1.2-.4-1-.3-1.8-.8-2.3-1.3s-.7-1.1-.7-1.8c0-.9.5-1.6 1.3-2.1.8-.4 1.8-.6 3-.6 1 0 1.9.2 2.9.5L75 137c-.8-.3-1.6-.5-2.5-.5-1.1 0-1.7.2-1.7.6 0 .2.1.4.4.6.3.2.8.4 1.6.6 1.1.4 1.8.8 2.2 1.2s.6 1 .6 1.7c0 1.1-.5 1.9-1.3 2.4s-1.8.7-3 .7c-1.3-.1-2.6-.3-3.6-.7z"/></g><g class="st4"><path class="st5" d="M77.3 132.9c-.3-.3-.5-.7-.6-1.1 0-.5.1-.9.4-1.2.3-.3.7-.5 1.2-.5s.9.1 1.2.4c.4.3.5.7.6 1.1 0 .5-.1.9-.5 1.2-.3.3-.7.5-1.2.5-.3.1-.7-.1-1.1-.4zm0 1.7 2.7-.1.4 9.5-2.7.1-.4-9.5z"/></g><g class="st4"><path class="st5" d="M84.4 142.6c-1.1-.7-1.7-1.8-1.9-3.4-.2-1-.1-1.9.2-2.7.3-.8.8-1.5 1.6-2 .7-.5 1.6-.9 2.7-1 1.1-.2 2-.1 2.9.2.8.3 1.5.7 2.1 1.4.5.7.9 1.5 1 2.5.2 1 .1 1.9-.2 2.7s-.8 1.5-1.6 2c-.7.5-1.6.9-2.7 1-1.6.3-3 0-4.1-.7zm.2-11.1 3.6-2.9 1.4 1.7-3.9 2.5-1.1-1.3zm5.3 8.8c.4-.6.5-1.3.4-2.2-.1-.9-.5-1.6-1-2-.5-.4-1.2-.6-1.9-.5-.7.1-1.3.5-1.7 1s-.5 1.3-.4 2.2c.1.9.5 1.6 1 2 .5.4 1.2.6 1.9.4.7-.1 1.3-.4 1.7-.9z"/></g><g class="st4"><path class="st5" d="m93.7 132.5 2.3-.7.4.8c.4-.4.8-.8 1.3-1.2.5-.4 1-.6 1.5-.8 1.1-.3 2-.3 2.8.1.7.4 1.3 1.2 1.7 2.4l1.8 5.7-2.6.8-1.7-5.4c-.1-.4-.2-.6-.4-.8-.1-.2-.3-.3-.5-.4-.4-.1-.8-.1-1.3 0-.4.1-.7.3-1 .5-.3.2-.6.5-.8.7l2.1 6.6-2.6.8-3-9.1z"/></g></g></svg>