<svg version="1.1" id="Capa_1" xmlns="http://www.w3.org/2000/svg" x="0" y="0" viewBox="0 0 160.1 150" style="enable-background:new 0 0 160.1 150" xml:space="preserve"><style>.st3{fill:#fff}.st4{enable-background:new}.st5{fill:#d2010d}</style><g id="Capa_1-2"><circle cx="79.5" cy="60.8" r="57.2" style="fill:#d2151a"/><circle cx="79.5" cy="60.8" r="60.3" style="fill:none;stroke:#d2151a;stroke-width:.87;stroke-miterlimit:10"/><radialGradient id="SVGID_1_" cx="56.685" cy="145.345" r="114.6" gradientTransform="matrix(1 0 0 -1 0 152.56)" gradientUnits="userSpaceOnUse"><stop offset="0" style="stop-color:#fff"/><stop offset="1" style="stop-color:#f9f9f9;stop-opacity:0"/></radialGradient><circle cx="79.5" cy="60.8" r="57.2" style="opacity:.69;fill:url(#SVGID_1_);enable-background:new"/><path class="st3" d="M78.6 77.1v-4.3l-7.7 8.9 7.7 8.9v-4.1c10.1 0 18.8-6 22.8-14.5l-8.6-3.8c-2.5 5.2-8 8.9-14.2 8.9zm20.6-4.4c-4.1 7.4-12 12.2-20.6 12.2H77v1.4l-4-4.6 4-4.6v1.6h1.6c6.1 0 11.8-3.3 14.9-8.5l5.7 2.5zM78.6 45.5v3.9l7.7-8.9-7.7-8.9v4.5c-10.3 0-19.2 6.3-23.1 15.2l8.6 3.8c2.3-5.7 7.9-9.6 14.5-9.6zm-21 5c4-7.8 12.1-12.8 21-12.8h1.6v-1.8l4 4.6-4 4.6v-1.2h-1.6c-6.5 0-12.3 3.6-15.3 9.2l-5.7-2.6zM62.8 61.3s0-.1 0 0l4.1-.1-8.9-7.6-8.8 7.8h4.3c0 10.2 6.2 19.1 15 23l3.8-8.6c-5.6-2.5-9.5-8.1-9.5-14.5zm4.8 20.8c-7.7-4-12.6-12-12.6-20.8v-1.6h-1.6l4.6-4 4.6 3.9h-1.4v1.6c0 6.4 3.5 12.2 9 15.2l-2.6 5.7zM101 65.8l-1.6 4 10.4-5.5-3.9-11.1-1.5 3.8c-5.8-2.3-9.5-7.8-9.9-13.7l-9.4.5c.6 9.5 6.5 18.3 15.9 22z"/><g class="st4"><path class="st5" d="m12.7 85.8 1.8 4.5c.6 1.5.8 2.8.5 3.9-.3 1.1-1.1 1.9-2.4 2.4-1.3.5-2.4.5-3.4.1-1-.5-1.8-1.5-2.4-3l-.9-2.2L2.4 93l-1-2.5 11.3-4.7zm-3.9 6.8c.3.7.7 1.2 1.1 1.4.5.2 1 .2 1.6 0 1.2-.5 1.5-1.5.9-2.9l-.8-1.9L8 90.7l.8 1.9z"/></g><g class="st4"><path class="st5" d="m14.8 97.3 1.2 2-1 .8c1.2.5 2.3 1.3 3.1 2.4l-2.1 1.1c-.3-.5-.7-.9-1.1-1.3-.4-.4-.9-.8-1.4-1.1l-5.4 3.2-1.4-2.3 8.1-4.8z"/></g><g class="st4"><path class="st5" d="M12.4 109.4c.1-1.3.8-2.4 2-3.3.8-.6 1.6-1 2.5-1.1.9-.1 1.7 0 2.5.4s1.5 1 2.2 1.8c.7.8 1.1 1.7 1.3 2.6.2.9.1 1.7-.2 2.5-.3.8-.9 1.5-1.7 2.1s-1.6 1-2.5 1.1c-.9.1-1.7 0-2.5-.4s-1.5-1-2.2-1.8c-1-1.3-1.5-2.6-1.4-3.9zm4.7 3.6c.7.1 1.4-.2 2.1-.8.7-.6 1.1-1.2 1.2-1.9.1-.7-.1-1.3-.5-1.9-.5-.6-1-.9-1.7-1s-1.4.2-2.1.8c-.7.6-1.1 1.2-1.2 1.9-.1.7.1 1.3.6 1.9.4.6 1 .9 1.6 1z"/></g><g class="st4"><path class="st5" d="m25.6 112.6 1.8 1.5-.4.7c.5.1 1.1.2 1.6.4s1.1.5 1.5.9c.4.3.7.7 1 1.2.2.4.3.9.3 1.4.7.1 1.3.3 1.9.6.6.3 1.2.6 1.6.9.4.3.7.7.9 1.1.2.4.4.8.4 1.1 0 .5-.1.9-.3 1.3s-.5.9-1 1.4l-3.8 4.5-2.1-1.7 3.6-4.3c.3-.3.4-.6.6-.8.1-.2.2-.4.2-.6 0-.4-.2-.7-.7-1.1-.2-.2-.5-.4-.9-.5-.4-.2-.7-.3-1.1-.3-.1.2-.3.4-.6.7l-3.8 4.6-2.1-1.7 3.6-4.3c.2-.3.4-.5.5-.7.1-.2.2-.4.2-.6 0-.4-.2-.8-.6-1.1l-.9-.6c-.4-.2-.7-.3-1.1-.3l-4.4 5.3-2.1-1.7 6.2-7.3z"/></g><g class="st4"><path class="st5" d="M35.7 131.5c-.4-.9-.2-2 .4-3.1l2.8-5.1 2.4 1.3-2.8 5.1c-.3.5-.4 1-.3 1.4.1.4.5.8 1 1.1.5.3 1 .4 1.4.3.4-.1.8-.4 1.1-1l2.8-5.1 2.4 1.3-2.8 5.1c-.6 1.1-1.4 1.8-2.4 2-1 .2-2.2-.1-3.5-.8-1.3-.8-2.1-1.6-2.5-2.5z"/></g><g class="st4"><path class="st5" d="M46.7 136.6c-.6-1.1-.6-2.4 0-3.9.3-.9.8-1.6 1.5-2.2.6-.6 1.4-.9 2.3-1 .9-.1 1.8 0 2.8.4 1.4.5 2.3 1.3 2.7 2.4.4 1.1.4 2.2-.1 3.4l-.6 1.2-6.2-2.3c-.2.6-.1 1.1.3 1.6s1 .9 1.8 1.2c1 .4 2 .6 2.9.6l-.5 2c-1 0-2.1-.2-3.4-.7-1.8-.7-3-1.5-3.5-2.7zm6.7-2.3c0-.1.1-.2.1-.3.1-.5.1-1-.1-1.4-.2-.4-.5-.7-1.1-.9-.6-.2-1.2-.2-1.7 0s-.8.7-1.1 1.3l3.9 1.3z"/></g><g class="st4"><path class="st5" d="m57.5 131.7 2.9.6 1.1 6.5h.1l3.6-5.5 2.9.6-6.2 8.4-2.2-.5-2.2-10.1z"/></g><g class="st4"><path class="st5" d="M68.9 142.5c-.9-.9-1.2-2.2-1.1-3.7.1-.9.4-1.8.8-2.5.5-.7 1.1-1.3 1.9-1.6.8-.4 1.7-.5 2.8-.4 1.5.1 2.6.6 3.3 1.6s.9 2 .8 3.3c0 .5-.1.9-.2 1.3l-6.6-.5c0 .6.2 1.1.7 1.5.5.4 1.2.6 2.1.7 1.1.1 2.1 0 2.9-.2l.1 2.1c-.9.3-2.1.4-3.4.2-1.9-.3-3.2-.8-4.1-1.8zm5.9-4v-.3c0-.6-.2-1-.4-1.4-.3-.3-.7-.5-1.3-.6-.7-.1-1.2.1-1.6.4-.4.4-.6.9-.7 1.5l4 .4z"/></g><g class="st4"><path class="st5" d="M85.5 143c-1-.7-1.6-1.9-1.8-3.5-.1-.9 0-1.8.3-2.6s.8-1.4 1.6-2c.7-.5 1.6-.8 2.7-.9 1.5-.2 2.7.1 3.5.9.8.8 1.3 1.8 1.4 3.1.1.5.1.9 0 1.3l-6.6.7c.1.6.4 1 1 1.3s1.3.4 2.2.3c1.1-.1 2-.4 2.8-.8l.5 2c-.8.4-1.9.7-3.3.9-1.9.3-3.3 0-4.3-.7zm5-5.1c0-.1 0-.2-.1-.3-.1-.5-.4-1-.7-1.3-.3-.3-.8-.4-1.4-.3-.7.1-1.2.3-1.5.7-.3.4-.5 1-.4 1.6l4.1-.4z"/></g><g class="st4"><path class="st5" d="m93.7 130.2 2.5-1.2 2.8 13-2.6.6-2.7-12.4z"/></g><g class="st4"><path class="st5" d="M109.1 138.3c-1.2-.1-2.2-.5-3-1.2-.8-.7-1.5-1.6-1.9-2.7-.5-1.2-.6-2.3-.4-3.4.2-1.1.7-2.1 1.4-3 .8-.9 1.8-1.6 3.1-2.1s2.5-.8 3.5-.9l.6 2.2c-.4 0-.9.1-1.5.2s-1.1.3-1.7.5c-.8.3-1.4.7-1.9 1.3s-.8 1.2-.9 1.9 0 1.5.3 2.2c.5 1.2 1.2 2 2.2 2.4 1 .4 2.1.4 3.4-.2.5-.2 1-.5 1.5-.8.5-.3.9-.6 1.3-.9l1 2c-.3.3-.8.6-1.4 1-.6.3-1.1.6-1.8.9-1.3.5-2.6.8-3.8.6z"/></g><g class="st4"><path class="st5" d="M120 133.8c-.6 0-1.2-.1-1.7-.3-.5-.3-.9-.7-1.3-1.2-.5-.8-.5-1.6-.2-2.3.3-.7 1.1-1.5 2.4-2.2l.6-.3c.4-.2.8-.5 1.3-.7l-.2-.4c-.2-.4-.6-.6-1-.6s-1 .2-1.6.6c-.8.5-1.6 1.1-2.4 1.9l-1.2-1.7c.4-.4.8-.8 1.4-1.2.6-.4 1.1-.8 1.7-1.2 1.2-.7 2.2-1 3.1-.9s1.7.7 2.2 1.7l2.2 3.8c.4.7.8 1.3 1 1.6l-2 1.2c-.3-.3-.4-.5-.6-.7-.3 1-.9 1.8-1.9 2.4-.5.3-1.1.5-1.8.5zm2.5-3.7c.2-.4.2-.8-.1-1.2l-.4-.8-2 1.2c-.3.2-.6.4-.7.7-.1.3-.1.5.1.8.2.3.5.5.9.6.4 0 .8-.1 1.2-.3.5-.2.8-.6 1-1z"/></g><g class="st4"><path class="st5" d="m123.2 121.3 1.8-1.6.7.5c.1-.5.4-1 .7-1.6.3-.5.7-1 1.1-1.4.4-.4.8-.6 1.3-.8.5-.2.9-.2 1.4-.1.2-.6.5-1.2.9-1.8.4-.6.7-1.1 1.2-1.5.4-.3.8-.6 1.2-.8.4-.2.8-.2 1.1-.2.5.1.9.2 1.2.5.4.3.8.7 1.3 1.2l3.9 4.5-2 1.8-3.7-4.2-.7-.7c-.2-.1-.4-.2-.5-.3-.4 0-.8.1-1.2.5-.2.2-.5.5-.7.8-.2.4-.4.7-.5 1 .2.2.4.4.6.7l3.9 4.5-2 1.8-3.7-4.2c-.2-.3-.4-.4-.6-.6l-.6-.3c-.4-.1-.8.1-1.2.4-.3.2-.5.5-.7.8-.2.3-.4.7-.5 1l4.5 5.2-2 1.8-6.2-6.9z"/></g><g class="st4"><path class="st5" d="M144.7 113.6c-.6.6-1.2 1-1.7 1.4l-9.7-7.2 1.1-2.6 3.8 2.8c0-.5.1-1 .3-1.6s.5-1.1.8-1.6c.5-.6 1.1-1.1 1.8-1.4.7-.3 1.4-.4 2.3-.3s1.6.5 2.4 1c1.3 1 2 2.2 2.1 3.5.1 1.4-.4 2.7-1.4 4.1-.7.7-1.2 1.4-1.8 1.9zm.6-5.4c-.1-.7-.5-1.2-1.2-1.8-.7-.5-1.4-.8-2-.7-.7.1-1.2.4-1.7 1-.5.7-.7 1.3-.6 1.8.1.5.5 1 1.1 1.5l2.3 1.7c.5-.4 1-.9 1.5-1.5s.8-1.3.6-2z"/></g><g class="st4"><path class="st5" d="M141.2 99c-.4.1-.8.1-1.2-.1s-.7-.6-.8-1c-.1-.4 0-.9.2-1.3s.6-.7 1-.8c.4-.1.9-.1 1.3.1s.6.6.7 1c.1.4 0 .9-.2 1.3-.2.3-.5.6-1 .8zm1.5.9 1.3-2.4 8.3 4.7-1.3 2.4-8.3-4.7z"/></g><g class="st4"><path class="st5" d="M153.3 98c-1.2.5-2.5.5-3.9-.1-.9-.4-1.7-.9-2.2-1.6-.5-.7-.8-1.5-.9-2.4-.1-.9.1-1.8.5-2.8.4-1 1-1.8 1.6-2.4.7-.6 1.4-.9 2.3-1 .8-.1 1.7 0 2.7.4.9.4 1.7.9 2.2 1.6.5.7.8 1.5.9 2.4.1.9-.1 1.8-.5 2.8-.7 1.6-1.6 2.6-2.7 3.1zm.8-5.9c-.3-.6-.8-1.1-1.7-1.4-.8-.3-1.6-.4-2.2-.2-.6.2-1.1.7-1.4 1.4-.3.7-.3 1.3 0 2 .3.6.8 1.1 1.7 1.5.8.3 1.6.4 2.2.2.6-.2 1.1-.7 1.4-1.4.2-.8.2-1.4 0-2.1z"/></g></g></svg>