<svg id="Capa_1" data-name="Capa 1" xmlns="http://www.w3.org/2000/svg" viewBox="0 0 319.7 151.51"><defs><style>.cls-1{fill:#fff7ec;}.cls-2{fill:#d2010d;}</style></defs><path class="cls-1" d="M70.64,73.91a15,15,0,0,1-6.4-6.4,19.75,19.75,0,0,1-2-9.12,18.78,18.78,0,0,1,2.39-9.57,16.47,16.47,0,0,1,6.73-6.45,21.23,21.23,0,0,1,10-2.29,34.81,34.81,0,0,1,8.89.94l-.67,7.9a22.26,22.26,0,0,0-3.43-.62A38.14,38.14,0,0,0,81.69,48a11.59,11.59,0,0,0-5.13,1.12,8.7,8.7,0,0,0-3.69,3.35A10.31,10.31,0,0,0,71.49,58a10.4,10.4,0,0,0,2.66,7.57c1.76,1.82,4.33,2.73,7.69,2.73a42.09,42.09,0,0,0,7.91-.73l.62,7.65a22.75,22.75,0,0,1-3.93.75,42.24,42.24,0,0,1-5,.29A22.38,22.38,0,0,1,70.64,73.91Z"/><path class="cls-1" d="M96.5,73.7a9,9,0,0,1-2.86-7,6.81,6.81,0,0,1,2.76-6q2.76-2,8.42-2h2.4c1.18,0,2.22,0,3.12.11v-.58a2.26,2.26,0,0,0-1.12-2.13,10.19,10.19,0,0,0-4.34-.62,30.2,30.2,0,0,0-4.14.31,28,28,0,0,0-3.87.78l-.52-7.23a34.27,34.27,0,0,1,5.09-.91,55.2,55.2,0,0,1,6-.34c4.16,0,7.18.77,9,2.29s2.81,4,2.81,7.49V70.5c0,2.4,0,4.15.1,5.26h-7.69a23.27,23.27,0,0,1-.37-3.07h-.1c-1.25,2.39-3.67,3.59-7.28,3.59A10.69,10.69,0,0,1,96.5,73.7Zm12.77-5a4.19,4.19,0,0,0,1.07-3.09v-1.3h-4.11a4.56,4.56,0,0,0-2.63.59,2.26,2.26,0,0,0-.8,2,2.59,2.59,0,0,0,1,2.14,3.84,3.84,0,0,0,2.45.78A4.11,4.11,0,0,0,109.27,68.71Z"/><path class="cls-1" d="M129.37,74.69A11.07,11.07,0,0,1,124.74,70a16.25,16.25,0,0,1-1.66-7.67,13.74,13.74,0,0,1,7.25-12.35,14.9,14.9,0,0,1,7.25-1.8,11.91,11.91,0,0,1,2.79.37,7.48,7.48,0,0,1,2.26.88h.1V40l9-2.34v30c0,3.54,0,6.24.1,8.12h-7.54a14.37,14.37,0,0,1-.47-2.4h-.1a8.81,8.81,0,0,1-3.1,2.11,11.09,11.09,0,0,1-4.39.81A14.15,14.15,0,0,1,129.37,74.69Zm11.44-6.47a4.28,4.28,0,0,0,1.92-1.2v-6.4a5.52,5.52,0,0,0-1.19-3.87,4.42,4.42,0,0,0-3.38-1.27,5.56,5.56,0,0,0-4.29,1.82,6.42,6.42,0,0,0-1.69,4.57,7.18,7.18,0,0,0,1.58,5,5.91,5.91,0,0,0,4.6,1.74A7.92,7.92,0,0,0,140.81,68.22Z"/><path class="cls-1" d="M159.84,72.58q-4.05-3.69-4.06-10.55a14.74,14.74,0,0,1,1.69-7,12.44,12.44,0,0,1,4.92-5A15,15,0,0,1,170,48.14,12.71,12.71,0,0,1,177.16,50a10.78,10.78,0,0,1,4.08,4.91,17.14,17.14,0,0,1,1.27,6.68,13.57,13.57,0,0,1-.36,3.49H165.3a4.76,4.76,0,0,0,2.34,2.8,9.76,9.76,0,0,0,4.89,1,20.51,20.51,0,0,0,7.28-1.19l.62,7.07a23.24,23.24,0,0,1-8.73,1.46Q163.9,76.28,159.84,72.58Zm13.83-12.89a10.24,10.24,0,0,0,0-1.09,5,5,0,0,0-1.2-2.94,3.49,3.49,0,0,0-2.7-1.07A4.18,4.18,0,0,0,166.39,56a5.47,5.47,0,0,0-1.19,3.72Z"/><path class="cls-1" d="M186.78,48.61h7.9l.42,2.45a13.28,13.28,0,0,1,8.16-2.92q4.89,0,7.23,3,2.17,2.81,2.18,8.06V75.76h-8.94V60.31a5.48,5.48,0,0,0-.94-3.59,3.74,3.74,0,0,0-2.75-.93,8,8,0,0,0-2.37.36,6.56,6.56,0,0,0-1.95.94V75.76h-8.94Z"/><path class="cls-1" d="M218.91,73.7a9,9,0,0,1-2.86-7,6.81,6.81,0,0,1,2.76-6q2.74-2,8.42-2h2.39c1.18,0,2.22,0,3.12.11v-.58a2.25,2.25,0,0,0-1.11-2.13,10.24,10.24,0,0,0-4.35-.62,30.18,30.18,0,0,0-4.13.31,28.43,28.43,0,0,0-3.88.78l-.51-7.23a34.27,34.27,0,0,1,5.09-.91,54.91,54.91,0,0,1,6-.34c4.16,0,7.18.77,9,2.29s2.81,4,2.81,7.49V70.5c0,2.4,0,4.15.1,5.26H234.1a23.27,23.27,0,0,1-.37-3.07h-.1q-1.87,3.59-7.28,3.59A10.69,10.69,0,0,1,218.91,73.7Zm12.77-5a4.18,4.18,0,0,0,1.06-3.09v-1.3h-4.1a4.56,4.56,0,0,0-2.63.59,2.27,2.27,0,0,0-.81,2,2.57,2.57,0,0,0,1,2.14,3.82,3.82,0,0,0,2.45.78A4.13,4.13,0,0,0,231.68,68.71Z"/><path class="cls-1" d="M263.58,74.69A11.07,11.07,0,0,1,259,70a16.25,16.25,0,0,1-1.66-7.67,13.74,13.74,0,0,1,7.25-12.35,14.9,14.9,0,0,1,7.25-1.8,11.91,11.91,0,0,1,2.79.37,7.48,7.48,0,0,1,2.26.88h.1V40l8.95-2.34v30c0,3.54,0,6.24.1,8.12h-7.54a14.37,14.37,0,0,1-.47-2.4h-.1a8.81,8.81,0,0,1-3.1,2.11,11.09,11.09,0,0,1-4.39.81A14.15,14.15,0,0,1,263.58,74.69ZM275,68.22a4.28,4.28,0,0,0,1.92-1.2v-6.4a5.52,5.52,0,0,0-1.19-3.87,4.42,4.42,0,0,0-3.38-1.27,5.56,5.56,0,0,0-4.29,1.82,6.42,6.42,0,0,0-1.69,4.57,7.18,7.18,0,0,0,1.58,5,5.91,5.91,0,0,0,4.6,1.74A7.92,7.92,0,0,0,275,68.22Z"/><path class="cls-1" d="M294.05,72.58Q290,68.89,290,62a14.74,14.74,0,0,1,1.69-7,12.44,12.44,0,0,1,4.92-5,15,15,0,0,1,7.59-1.85A12.71,12.71,0,0,1,311.37,50a10.78,10.78,0,0,1,4.08,4.91,17.14,17.14,0,0,1,1.27,6.68,13.57,13.57,0,0,1-.36,3.49H299.51a4.76,4.76,0,0,0,2.34,2.8,9.76,9.76,0,0,0,4.89,1A20.51,20.51,0,0,0,314,67.75l.62,7.07a23.24,23.24,0,0,1-8.73,1.46Q298.11,76.28,294.05,72.58Zm13.83-12.89a10.24,10.24,0,0,0-.05-1.09,5,5,0,0,0-1.2-2.94,3.49,3.49,0,0,0-2.7-1.07A4.18,4.18,0,0,0,300.6,56a5.47,5.47,0,0,0-1.19,3.72Z"/><path class="cls-1" d="M63.64,93.72h9.75v37.66H63.64Z"/><path class="cls-1" d="M79.23,102.3H87.7l.45,2.62a13.51,13.51,0,0,1,4-2.26,13.67,13.67,0,0,1,4.73-.86c3.49,0,6.07,1.07,7.74,3.23q2.34,3,2.34,8.63v17.72H97.39V114.83a5.87,5.87,0,0,0-1-3.84,4,4,0,0,0-3-1,8.51,8.51,0,0,0-2.54.39,7.13,7.13,0,0,0-2.09,1v20H79.23Z"/><path class="cls-1" d="M123.35,99a4.41,4.41,0,0,0-1.39,3.54h10.69l-2,8H122v20.78h-9.58V103.8q0-13.76,14.2-13.76a28.92,28.92,0,0,1,6.69.78l-.78,7.52a26.83,26.83,0,0,0-4.91-.39A6.7,6.7,0,0,0,123.35,99Zm13.82-6,9.58-2.5v40.83h-9.58Z"/><path class="cls-1" d="M155.35,129.12Q152,126.32,152,120V102.3h9.58v17.43a5,5,0,0,0,1,3.43,4,4,0,0,0,3.1,1.09,4.11,4.11,0,0,0,3.09-1,5,5,0,0,0,1-3.49V102.3h9.58V120q0,6.29-3.51,9.13t-10.3,2.84Q158.66,131.93,155.35,129.12Z"/><path class="cls-1" d="M187.85,128q-4.33-4-4.34-11.31a15.71,15.71,0,0,1,1.81-7.52,13.32,13.32,0,0,1,5.26-5.37,16.12,16.12,0,0,1,8.14-2,13.61,13.61,0,0,1,7.68,2,11.58,11.58,0,0,1,4.38,5.27,18.34,18.34,0,0,1,1.36,7.16,14.32,14.32,0,0,1-.39,3.73H193.7a5.11,5.11,0,0,0,2.51,3,10.6,10.6,0,0,0,5.24,1.11,22.05,22.05,0,0,0,7.79-1.28l.67,7.57a24.88,24.88,0,0,1-9.35,1.56Q192.19,131.93,187.85,128Zm14.82-13.82c0-.48,0-.87,0-1.17a5.4,5.4,0,0,0-1.28-3.14,3.79,3.79,0,0,0-2.9-1.15,4.51,4.51,0,0,0-3.57,1.48,5.89,5.89,0,0,0-1.28,4Z"/><path class="cls-1" d="M216.71,102.3h8.47l.44,2.62a14.18,14.18,0,0,1,8.75-3.12c3.49,0,6.07,1.07,7.74,3.23q2.34,3,2.34,8.63v17.72h-9.58V114.83a5.93,5.93,0,0,0-1-3.84,4,4,0,0,0-3-1,8.45,8.45,0,0,0-2.53.39,7,7,0,0,0-2.09,1v20h-9.58Z"/><path class="cls-1" d="M256.62,130.18a13.29,13.29,0,0,1-5.85-5.15,15.16,15.16,0,0,1-2.09-8.08,15.58,15.58,0,0,1,2-8.11,13.2,13.2,0,0,1,5.79-5.23,19.84,19.84,0,0,1,8.72-1.81,31.55,31.55,0,0,1,8.24,1.06l-1,7.85a20.58,20.58,0,0,0-6.24-.89,9.15,9.15,0,0,0-5.52,1.67c-1.52,1.11-2.28,2.88-2.28,5.29s.76,4.35,2.28,5.46a9.35,9.35,0,0,0,5.69,1.67,16.76,16.76,0,0,0,6.4-1.06l.67,7.8a11.48,11.48,0,0,1-3.37.92,30.91,30.91,0,0,1-4.76.36A20.41,20.41,0,0,1,256.62,130.18Z"/><path class="cls-1" d="M279.26,97.45a5.92,5.92,0,0,1,0-8.24,5.78,5.78,0,0,1,4.18-1.62,5.72,5.72,0,0,1,4.15,1.65,5.77,5.77,0,0,1,0,8.18,5.72,5.72,0,0,1-4.15,1.65A5.78,5.78,0,0,1,279.26,97.45Zm-.61,4.85h9.58v29.08h-9.58Z"/><path class="cls-1" d="M295.19,129.18a9.66,9.66,0,0,1-3.06-7.55,7.28,7.28,0,0,1,2.95-6.38q3-2.09,9-2.09h2.56c1.26,0,2.38,0,3.34.11v-.61a2.38,2.38,0,0,0-1.2-2.28c-.79-.45-2.34-.67-4.65-.67a33.2,33.2,0,0,0-4.43.33,28.77,28.77,0,0,0-4.15.84l-.55-7.75a36.85,36.85,0,0,1,5.46-1,57.74,57.74,0,0,1,6.4-.36q6.69,0,9.7,2.45c2,1.63,3,4.31,3,8v13.48c0,2.56,0,4.44.11,5.63h-8.24a26.11,26.11,0,0,1-.39-3.29H311q-2,3.84-7.8,3.84A11.51,11.51,0,0,1,295.19,129.18Zm13.68-5.35a4.5,4.5,0,0,0,1.14-3.32v-1.39h-4.4a4.83,4.83,0,0,0-2.81.64,2.43,2.43,0,0,0-.86,2.09,2.74,2.74,0,0,0,1.05,2.28,4.09,4.09,0,0,0,2.62.84A4.42,4.42,0,0,0,308.87,123.83Z"/><path class="cls-2" d="M22.84,105.49h0A7,7,0,0,1,16,98.26l1.06-38.87a7,7,0,1,1,14.07.38L30.07,98.64a7,7,0,0,1-7.23,6.85"/><path class="cls-2" d="M24.32,50.92h0a7,7,0,1,1,7.23-6.85,7,7,0,0,1-7.23,6.85"/><path class="cls-1" d="M25.7,0A22.18,22.18,0,0,0,2.93,21.58L2.15,50.16A22.17,22.17,0,0,0,13.37,70L14,47.58l.28-10.53.33-12.26a10.43,10.43,0,0,1,20.86.57l-.34,12.25h0l-.89,33A22.16,22.16,0,0,0,46.49,51.36l.78-28.58A22.18,22.18,0,0,0,25.7,0"/><path class="cls-1" d="M33.91,81.47l-1.23,45.25A10.43,10.43,0,0,1,13.45,132c-.18-.28-.34-.57-.5-.87a11.07,11.07,0,0,1-.74-1.89,10.72,10.72,0,0,1-.38-3.12l.62-22.78.61-22.46A22.17,22.17,0,0,0,.78,100.16L0,128.73a22.18,22.18,0,0,0,44.34,1.21l.77-28.58A22.16,22.16,0,0,0,33.91,81.47"/></svg>