<svg id="Capa_1" data-name="Capa 1" xmlns="http://www.w3.org/2000/svg" xmlns:xlink="http://www.w3.org/1999/xlink" viewBox="0 0 168.08 168.08"><defs><style>.cls-1{fill:#009ca6;}.cls-2{fill:#fff;}.cls-3{fill:url(#Degradado_sin_nombre_12);}.cls-4,.cls-5{fill:none;}.cls-4{stroke:#d2151a;stroke-miterlimit:10;stroke-width:2.09px;}.cls-5{stroke:#d21217;stroke-linecap:round;stroke-linejoin:round;stroke-width:1.39px;}.cls-6{fill:#d21217;}</style><linearGradient id="Degradado_sin_nombre_12" x1="-266.49" y1="1416.32" x2="-265.49" y2="1416.32" gradientTransform="matrix(110.71, 0, 0, -110.71, 29531.24, 156875.92)" gradientUnits="userSpaceOnUse"><stop offset="0" stop-color="#f9f9f9"/><stop offset="1" stop-color="#f2f2f2"/></linearGradient></defs><path class="cls-1" d="M0,84H0a84,84,0,1,1,84,84A84,84,0,0,1,0,84"/><path class="cls-2" d="M138.77,78.52A54.73,54.73,0,1,1,84,23.78a54.73,54.73,0,0,1,54.73,54.74"/><path class="cls-3" d="M138.77,78.52h0A54.73,54.73,0,1,1,84,23.78a54.73,54.73,0,0,1,54.73,54.74h0A54.73,54.73,0,1,0,84,133.25a54.73,54.73,0,0,0,54.73-54.73Z"/><circle class="cls-4" cx="84.04" cy="78.52" r="54.73" transform="translate(-30.9 82.42) rotate(-45)"/><path class="cls-5" d="M103.52,78.52A19.48,19.48,0,1,1,84,59,19.48,19.48,0,0,1,103.52,78.52Z"/><circle class="cls-5" cx="84.04" cy="78.52" r="12.25" transform="translate(-11.68 142.27) rotate(-76.72)"/><path class="cls-6" d="M89.32,78.52A5.28,5.28,0,1,1,84,73.24a5.28,5.28,0,0,1,5.28,5.28"/><line class="cls-5" x1="84.04" y1="53.76" x2="84.04" y2="61.31"/><line class="cls-5" x1="84.04" y1="95.72" x2="84.04" y2="103.27"/><line class="cls-5" x1="59.29" y1="78.52" x2="66.83" y2="78.52"/><line class="cls-5" x1="101.25" y1="78.52" x2="108.8" y2="78.52"/><path class="cls-2" d="M50.84,137l7.7,4.11L57,142.68l-4.84-2.59-1.32,2.48,4.29,2.29L54,146.7l-4.19-2.24-1.2,2.24L54,149.59l-1.56,1.6-7.17-3.83Z"/><path class="cls-2" d="M59.08,144.18l2.17.72-.13.8a6.48,6.48,0,0,1,1.67-.18,5.2,5.2,0,0,1,1.59.25,3.26,3.26,0,0,1,2.06,1.63,3.7,3.7,0,0,1,0,2.76l-1.79,5.43-2.45-.81,1.7-5.16a2.52,2.52,0,0,0,.17-.86,1.14,1.14,0,0,0-.17-.61,1.78,1.78,0,0,0-1-.7,3.38,3.38,0,0,0-1.07-.17,3.77,3.77,0,0,0-1,.11l-2.06,6.24-2.45-.81Z"/><path class="cls-2" d="M69.87,147.58a3.82,3.82,0,0,1,1.62-2.73,4.69,4.69,0,0,1,3.37-.46A8.92,8.92,0,0,1,77,145l-.56,1.85a7.94,7.94,0,0,0-1.66-.45,2.32,2.32,0,0,0-1.59.15,1.69,1.69,0,0,0-.7,1.25l0,.18,3.63.63-1,1.92-3-.52-1.17,6.82-2.55-.43Z"/><path class="cls-2" d="M78,156.74a4.55,4.55,0,0,1-1.23-3.49,4.88,4.88,0,0,1,.7-2.5,4.1,4.1,0,0,1,1.8-1.59,6,6,0,0,1,2.69-.48,5.9,5.9,0,0,1,2.66.65,4.05,4.05,0,0,1,1.7,1.68,4.92,4.92,0,0,1,.54,2.53,5,5,0,0,1-.69,2.5,4.09,4.09,0,0,1-1.81,1.58,5.88,5.88,0,0,1-2.69.49A5.22,5.22,0,0,1,78,156.74Zm5.5-1.27a2.83,2.83,0,0,0,.73-2,2.91,2.91,0,0,0-.61-2,2.32,2.32,0,0,0-1.72-.76,2.29,2.29,0,0,0-1.76.66,3.35,3.35,0,0,0-.13,4,2.31,2.31,0,0,0,1.74.76A2.28,2.28,0,0,0,83.49,155.47Z"/><path class="cls-2" d="M97,156.19a3.29,3.29,0,0,1-1,.8,4.68,4.68,0,0,1-1.43.44,4.85,4.85,0,0,1-2.37-.23,4.31,4.31,0,0,1-1.92-1.39,4.94,4.94,0,0,1-1-2.43,4.33,4.33,0,0,1,.32-2.45A4.61,4.61,0,0,1,91.08,149a5.18,5.18,0,0,1,2.37-1,4.66,4.66,0,0,1,1.49,0,2.92,2.92,0,0,1,1.25.54l0-.82,2.1-.3,1.79,12.42-2.46,1Zm-1.1-1.31a2.49,2.49,0,0,0,.8-.74l-.36-2.52a1.81,1.81,0,0,0-.77-1.28A2.06,2.06,0,0,0,94,150a2.52,2.52,0,0,0-1.71,1,2.49,2.49,0,0,0-.47,2,2.71,2.71,0,0,0,1,1.87,2.48,2.48,0,0,0,1.89.45A3.16,3.16,0,0,0,95.87,154.88Z"/><path class="cls-2" d="M104.38,154.54a3.41,3.41,0,0,1-1.91-2.33l-1.75-5.29,2.45-.81,1.73,5.26a1.73,1.73,0,0,0,.84,1.11,2.28,2.28,0,0,0,2.53-.83,1.79,1.79,0,0,0,0-1.39L106.54,145l2.45-.8,1.75,5.29a3.42,3.42,0,0,1-.2,3,6.24,6.24,0,0,1-6.16,2.08Z"/><path class="cls-2" d="M115.82,149.9a4.45,4.45,0,0,1-2.8-2.44,4.94,4.94,0,0,1-.63-2.42,4.12,4.12,0,0,1,.69-2.28,5.29,5.29,0,0,1,2-1.79,4,4,0,0,1,3.42-.43,4.64,4.64,0,0,1,2.38,2.24,6.42,6.42,0,0,1,.48,1.15l-5.59,3a1.65,1.65,0,0,0,1.32.83,3.67,3.67,0,0,0,2.05-.53,7.62,7.62,0,0,0,2.21-1.69l1.12,1.64a8.87,8.87,0,0,1-2.61,2A5.7,5.7,0,0,1,115.82,149.9Zm2.59-6.3a1.72,1.72,0,0,0-.17-.28,2.07,2.07,0,0,0-1.06-.87,1.61,1.61,0,0,0-1.31.17,2,2,0,0,0-1.05,1.18,2.15,2.15,0,0,0,.23,1.59Z"/></svg>