<svg id="Capa_1" data-name="Capa 1" xmlns="http://www.w3.org/2000/svg" xmlns:xlink="http://www.w3.org/1999/xlink" viewBox="0 0 168.08 168.08"><defs><style>.cls-1,.cls-14,.cls-5,.cls-6,.cls-9{fill:none;}.cls-2{fill:#009ca6;}.cls-3{fill:#fff;}.cls-4{fill:url(#Degradado_sin_nombre_12);}.cls-5{stroke:#d2151a;stroke-miterlimit:10;stroke-width:2.09px;}.cls-14,.cls-6,.cls-9{stroke:#d2010d;stroke-linecap:round;stroke-linejoin:round;}.cls-6{stroke-width:1.01px;}.cls-7{fill:#f2f2f2;}.cls-8{fill:#d21217;}.cls-9{stroke-width:4.57px;}.cls-10{clip-path:url(#clip-path);}.cls-11{fill:url(#Degradado_sin_nombre_12-2);}.cls-12{clip-path:url(#clip-path-2);}.cls-13{fill:url(#Degradado_sin_nombre_12-3);}.cls-14{stroke-width:0.52px;}</style><linearGradient id="Degradado_sin_nombre_12" x1="-827.25" y1="1415.62" x2="-826.25" y2="1415.62" gradientTransform="matrix(110.71, 0, 0, -110.71, 91611.56, 156798.43)" gradientUnits="userSpaceOnUse"><stop offset="0" stop-color="#f9f9f9"/><stop offset="1" stop-color="#f2f2f2"/></linearGradient><clipPath id="clip-path"><path class="cls-1" d="M87.42,72.36s-.39,1.49.3,1.65,1.83.37,1.94,0a5,5,0,0,0,.15-.72,1.62,1.62,0,0,0-1.66-1,3,3,0,0,0-.73.09"/></clipPath><linearGradient id="Degradado_sin_nombre_12-2" x1="-832.89" y1="1397.88" x2="-831.89" y2="1397.88" gradientTransform="matrix(2.5, 0, 0, -2.5, 2173.52, 3574.7)" xlink:href="#Degradado_sin_nombre_12"/><clipPath id="clip-path-2"><path class="cls-1" d="M77.53,73.29a6.1,6.1,0,0,0,.16.72c.11.37,1.24.15,1.94,0s.3-1.65.3-1.65a3,3,0,0,0-.73-.09,1.64,1.64,0,0,0-1.67,1"/></clipPath><linearGradient id="Degradado_sin_nombre_12-3" x1="-821.34" y1="1397.88" x2="-820.34" y2="1397.88" gradientTransform="translate(-1977.24 3574.7) rotate(180) scale(2.5)" xlink:href="#Degradado_sin_nombre_12"/></defs><path class="cls-2" d="M0,84H0A84,84,0,0,1,84,0h0a84,84,0,0,1,0,168.08h0A84,84,0,0,1,0,84"/><path class="cls-3" d="M138.77,78.52A54.73,54.73,0,1,1,84,23.78a54.73,54.73,0,0,1,54.73,54.74"/><path class="cls-4" d="M138.77,78.52h0A54.73,54.73,0,1,1,84,23.78a54.73,54.73,0,0,1,54.73,54.74h0A54.73,54.73,0,1,0,84,133.25a54.73,54.73,0,0,0,54.73-54.73Z"/><circle class="cls-5" cx="84.04" cy="78.52" r="54.73" transform="translate(-30.9 82.42) rotate(-45)"/><path class="cls-3" d="M90.47,76.26s-.81,17.61,9.93,20.4c0,0-7.93,4.56-16.74,2.48s1.25-22.32,1.25-22.32Z"/><path class="cls-6" d="M90.47,76.26s-.81,17.61,9.93,20.4c0,0-7.93,4.56-16.74,2.48s1.25-22.32,1.25-22.32Z"/><path class="cls-3" d="M75.72,76.26s.81,17.61-9.93,20.4c0,0,7.93,4.56,16.74,2.48s-1.25-22.32-1.25-22.32Z"/><path class="cls-6" d="M75.72,76.26s.81,17.61-9.93,20.4c0,0,7.93,4.56,16.74,2.48s-1.25-22.32-1.25-22.32Z"/><path class="cls-7" d="M21.63,121.63a5.37,5.37,0,0,1,.63-3,6.28,6.28,0,0,1,2.21-2.26,6,6,0,0,1,3.14-1,5.5,5.5,0,0,1,3.07.84,7.57,7.57,0,0,1,2.52,2.57,10,10,0,0,1,1.39,3.15l-1.94,1a7.64,7.64,0,0,0-.45-1.36,10.3,10.3,0,0,0-.76-1.48,4.81,4.81,0,0,0-1.51-1.56A3.44,3.44,0,0,0,28,117.9a4,4,0,0,0-2.05.65A3.79,3.79,0,0,0,24.11,121a4.28,4.28,0,0,0,.73,3.16,10.7,10.7,0,0,0,1,1.31,9.74,9.74,0,0,0,1,1.07l-1.67,1.28a8.91,8.91,0,0,1-1.12-1.11,13.05,13.05,0,0,1-1.11-1.51A8,8,0,0,1,21.63,121.63Z"/><path class="cls-7" d="M36.45,122.84l2.16,1.55-9.73,8.28-1.67-2Z"/><path class="cls-7" d="M32.38,136.09a3.09,3.09,0,0,1-.19-1.66,2.89,2.89,0,0,1,.74-1.49,2.29,2.29,0,0,1,2-.84,5.43,5.43,0,0,1,2.73,1.59l.47.42q.5.45,1,1l.27-.29a1.12,1.12,0,0,0,.3-1.1,3.27,3.27,0,0,0-1-1.32,12.71,12.71,0,0,0-2.37-1.65l1.18-1.54a13.55,13.55,0,0,1,1.52.94,16.32,16.32,0,0,1,1.53,1.21,4.87,4.87,0,0,1,1.68,2.6,2.88,2.88,0,0,1-.87,2.51l-2.83,3.11c-.55.61-1,1.07-1.19,1.37l-1.65-1.5a6.49,6.49,0,0,1,.49-.73l0,0a3.66,3.66,0,0,1-2.72-1.05A4.11,4.11,0,0,1,32.38,136.09Zm4.08,1.21a1.16,1.16,0,0,0,1-.38l.56-.62-1.65-1.49a1.4,1.4,0,0,0-.81-.41.82.82,0,0,0-.71.3,1.08,1.08,0,0,0-.29,1,1.89,1.89,0,0,0,.63,1A2.26,2.26,0,0,0,36.46,137.3Z"/><path class="cls-7" d="M45.49,135.61l1.83,1.23L46.78,138a6.55,6.55,0,0,1,3.67.79l-1.38,1.87a6.74,6.74,0,0,0-1.52-.67,8.06,8.06,0,0,0-1.63-.35l-3.37,5-2.14-1.45Z"/><path class="cls-7" d="M49.07,147.38a4.56,4.56,0,0,1,.27-3.69,5,5,0,0,1,1.64-2,4.1,4.1,0,0,1,2.29-.73,6.59,6.59,0,0,1,4.84,2.29,4.13,4.13,0,0,1,.88,2.22,4.93,4.93,0,0,1-.51,2.54,5,5,0,0,1-1.64,2,4.1,4.1,0,0,1-2.29.73,6,6,0,0,1-2.66-.63A5.26,5.26,0,0,1,49.07,147.38Zm5.56,1a3.35,3.35,0,0,0,1.71-3.65,2.47,2.47,0,0,0-3.14-1.49,3.38,3.38,0,0,0-1.73,3.65,2.32,2.32,0,0,0,1.29,1.39A2.24,2.24,0,0,0,54.63,148.41Z"/><path class="cls-7" d="M65.1,158.56,67.74,155l-2.15-9.43,2.83.58,1.12,6.08.08,0,3.22-5.2,2.82.58-8.38,11.9Z"/><path class="cls-7" d="M80.21,145.49l3-.11,3.74,8h.17L90,145.11l3-.11L88.2,157l-2.17.08Z"/><path class="cls-7" d="M96.66,155.86A3.08,3.08,0,0,1,95.2,155a2.89,2.89,0,0,1-.76-1.47,2.26,2.26,0,0,1,.51-2.13,5.41,5.41,0,0,1,2.9-1.28l.61-.13c.43-.09.89-.16,1.38-.22l-.08-.39a1.08,1.08,0,0,0-.71-.88,3.15,3.15,0,0,0-1.65,0,11.75,11.75,0,0,0-2.72.94l-.56-1.86a14.83,14.83,0,0,1,1.66-.68,17.28,17.28,0,0,1,1.88-.52,4.87,4.87,0,0,1,3.09.17,2.91,2.91,0,0,1,1.52,2.18l.85,4.12c.17.81.3,1.4.4,1.76l-2.18.46a6.24,6.24,0,0,1-.3-.83h0a3.71,3.71,0,0,1-2.45,1.58A4.14,4.14,0,0,1,96.66,155.86Zm3.38-2.59a1.13,1.13,0,0,0,.3-1.06l-.17-.82-2.18.45a1.49,1.49,0,0,0-.81.42A.84.84,0,0,0,97,153a1.1,1.1,0,0,0,.61.8,1.8,1.8,0,0,0,1.19.09A2.26,2.26,0,0,0,100,153.27Z"/><path class="cls-7" d="M103.07,142.06l2.24-1.43,4.09,12.1-2.45.83Z"/><path class="cls-7" d="M108.56,141.57a1.37,1.37,0,0,1-.87-.81,1.4,1.4,0,0,1,0-1.2,1.72,1.72,0,0,1,.91-.87,1.67,1.67,0,0,1,1.24-.06,1.4,1.4,0,0,1,.89.81,1.44,1.44,0,0,1,0,1.2,1.74,1.74,0,0,1-.9.87A1.67,1.67,0,0,1,108.56,141.57Zm.54,1.54,2.37-1,3.62,8.35-2.37,1Z"/><path class="cls-7" d="M118.78,147.51a4.48,4.48,0,0,1-2.9-2.3,5.06,5.06,0,0,1-.75-2.39,4.28,4.28,0,0,1,.59-2.32,5.41,5.41,0,0,1,2-1.87,4,4,0,0,1,3.4-.59,4.59,4.59,0,0,1,2.48,2.13,6.69,6.69,0,0,1,.54,1.12l-5.45,3.23a1.61,1.61,0,0,0,1.36.76,3.63,3.63,0,0,0,2-.62,7.43,7.43,0,0,0,2.13-1.79l1.19,1.59a8.63,8.63,0,0,1-2.51,2.07A5.66,5.66,0,0,1,118.78,147.51Zm2.31-6.41a2.43,2.43,0,0,0-.19-.27,2.18,2.18,0,0,0-1.09-.82,1.61,1.61,0,0,0-1.31.24,1.91,1.91,0,0,0-1,1.22,2.12,2.12,0,0,0,.3,1.58Z"/><path class="cls-7" d="M123.14,135.34l1.73-1.49.62.52a6.16,6.16,0,0,1,.7-1.53,5.59,5.59,0,0,1,1-1.23,3.24,3.24,0,0,1,2.46-.92,3.66,3.66,0,0,1,2.35,1.45l3.73,4.33-1.95,1.69L130.26,134a2.56,2.56,0,0,0-.66-.59,1.19,1.19,0,0,0-.6-.17,1.84,1.84,0,0,0-1.12.5,3.56,3.56,0,0,0-.7.84,3.83,3.83,0,0,0-.44.95l4.29,5-1.95,1.68Z"/><path class="cls-7" d="M138.41,132.62a3,3,0,0,1-2.45-.93l-6.1-5.18,1.39-2.2,1.9,1.61,2.16-2.54,1.27,1.68-1.86,2.19,2.58,2.19a1.68,1.68,0,0,0,1.1.51,1.34,1.34,0,0,0,1-.57,7.84,7.84,0,0,0,1-1.37l1.54,1.15a5.48,5.48,0,0,1-.52,1,10.56,10.56,0,0,1-.75,1A4,4,0,0,1,138.41,132.62Z"/><path class="cls-7" d="M143.57,125.47a4.49,4.49,0,0,1-3.65-.69,4.89,4.89,0,0,1-1.76-1.77,4.11,4.11,0,0,1-.56-2.32,5.32,5.32,0,0,1,.85-2.57,4,4,0,0,1,2.74-2.1,4.64,4.64,0,0,1,3.18.73,6.33,6.33,0,0,1,1,.74l-3.32,5.4a1.63,1.63,0,0,0,1.56,0,3.73,3.73,0,0,0,1.5-1.49,7.67,7.67,0,0,0,1-2.57l1.79.84a8.66,8.66,0,0,1-1.25,3A5.75,5.75,0,0,1,143.57,125.47Zm-.95-6.75a1.61,1.61,0,0,0-.29-.15,2.15,2.15,0,0,0-1.35-.22,1.64,1.64,0,0,0-1,.82,1.92,1.92,0,0,0-.31,1.55,2.13,2.13,0,0,0,1,1.25Z"/><path class="cls-8" d="M90.47,66.68a6.82,6.82,0,1,1-6.81-6.82,6.81,6.81,0,0,1,6.81,6.82"/><path class="cls-8" d="M87.57,72.81H79.74a3.35,3.35,0,0,0-3.34,3.1l-2,26.64H92.87l-2-26.64a3.35,3.35,0,0,0-3.34-3.1"/><path class="cls-9" d="M56.52,83.86s9.6.9,13.89-1.84S76,74.26,83.66,74.26"/><path class="cls-9" d="M110.79,83.86s-9.6.9-13.89-1.84-5.57-7.76-13.24-7.76"/><g class="cls-10"><rect class="cls-11" x="87.03" y="72.27" width="2.79" height="2.12"/></g><g class="cls-12"><rect class="cls-13" x="77.53" y="72.27" width="2.79" height="2.12"/></g><path class="cls-14" d="M77.54,73.29a5,5,0,0,0,.15.72c.11.37,1.24.15,1.94,0s.3-1.65.3-1.65S78.08,71.85,77.54,73.29Z"/></svg>