<svg id="Capa_1" data-name="Capa 1" xmlns="http://www.w3.org/2000/svg" xmlns:xlink="http://www.w3.org/1999/xlink" viewBox="0 0 168.08 168.08"><defs><style>.cls-1{fill:#009ca6;}.cls-2{fill:#fff;}.cls-3{fill:url(#Degradado_sin_nombre_12);}.cls-4,.cls-7{fill:none;}.cls-4{stroke:#d2151a;stroke-miterlimit:10;stroke-width:2.09px;}.cls-5{fill:#f2f2f2;}.cls-6{fill:#d21217;}.cls-7{stroke:#d21217;stroke-linecap:round;stroke-linejoin:round;stroke-width:1.39px;}</style><linearGradient id="Degradado_sin_nombre_12" x1="-642.07" y1="1416.32" x2="-641.07" y2="1416.32" gradientTransform="matrix(110.71, 0, 0, -110.71, 71111.35, 156875.92)" gradientUnits="userSpaceOnUse"><stop offset="0" stop-color="#f9f9f9"/><stop offset="1" stop-color="#f2f2f2"/></linearGradient></defs><path class="cls-1" d="M0,84H0a84,84,0,1,1,84,84A84,84,0,0,1,0,84"/><path class="cls-2" d="M138.77,78.52A54.73,54.73,0,1,1,84,23.78a54.73,54.73,0,0,1,54.73,54.74"/><path class="cls-3" d="M138.77,78.52h0A54.73,54.73,0,1,1,84,23.78a54.73,54.73,0,0,1,54.73,54.74h0A54.73,54.73,0,1,0,84,133.25a54.73,54.73,0,0,0,54.73-54.73Z"/><circle class="cls-4" cx="84.04" cy="78.52" r="54.73" transform="translate(-30.9 82.42) rotate(-45)"/><path class="cls-5" d="M28.75,111.1l1.14,2.35-10.6,5.14-1.14-2.35Z"/><path class="cls-5" d="M28.65,117.09,29.94,119l-.6.56a6,6,0,0,1,1.44.87,5.5,5.5,0,0,1,1.11,1.17,3.27,3.27,0,0,1,.64,2.55,3.71,3.71,0,0,1-1.72,2.16l-4.73,3.22-1.44-2.14,4.49-3.05a2.65,2.65,0,0,0,.66-.59,1.24,1.24,0,0,0,.24-.58,1.8,1.8,0,0,0-.38-1.17,3.49,3.49,0,0,0-.75-.79,3.53,3.53,0,0,0-.89-.54l-5.43,3.69-1.45-2.13Z"/><path class="cls-5" d="M35.39,126.28l1.73,1.91-6.74,6.12-1.73-1.91Zm1.27-1a1.42,1.42,0,0,1,.49-1.1,1.46,1.46,0,0,1,1.14-.38,1.79,1.79,0,0,1,1.57,1.74,1.41,1.41,0,0,1-.48,1.1,1.38,1.38,0,0,1-1.14.37,1.63,1.63,0,0,1-1.11-.57A1.69,1.69,0,0,1,36.66,125.28Z"/><path class="cls-5" d="M34.85,138.15a4.21,4.21,0,0,1-.36-2.45,4.67,4.67,0,0,1,1.15-2.35,4.38,4.38,0,0,1,4.68-1.46,6.57,6.57,0,0,1,2.47,1.38,9.49,9.49,0,0,1,1.79,2l-1.53,1.32A6.48,6.48,0,0,0,41.63,135a3.27,3.27,0,0,0-2.06-.87,2.74,2.74,0,0,0-2.57,3,3.26,3.26,0,0,0,1.17,2,6,6,0,0,0,2,1.17L39,141.85a5.45,5.45,0,0,1-1.15-.54,8.69,8.69,0,0,1-1.26-.91A6.76,6.76,0,0,1,34.85,138.15Z"/><path class="cls-5" d="M46.66,136.4l2.14,1.43-5,7.57L41.61,144Zm1-1.29a1.46,1.46,0,0,1,.21-1.18,1.43,1.43,0,0,1,1-.64,1.65,1.65,0,0,1,1.22.29,1.69,1.69,0,0,1,.73,1,1.41,1.41,0,0,1-.2,1.18,1.46,1.46,0,0,1-1,.65,1.71,1.71,0,0,1-1.21-.29A1.67,1.67,0,0,1,47.65,135.11Z"/><path class="cls-5" d="M48,147.74a3.12,3.12,0,0,1-.63-1.55,2.93,2.93,0,0,1,.31-1.63,2.29,2.29,0,0,1,1.73-1.36,5.49,5.49,0,0,1,3.06.8l.56.28a13.85,13.85,0,0,1,1.22.69l.18-.36a1.11,1.11,0,0,0,0-1.14,3.27,3.27,0,0,0-1.31-1,12.07,12.07,0,0,0-2.72-.95l.72-1.81a15.08,15.08,0,0,1,1.72.5,17.52,17.52,0,0,1,1.79.75A4.92,4.92,0,0,1,57,143a2.91,2.91,0,0,1-.16,2.66L55,149.43c-.37.73-.63,1.28-.78,1.63l-2-1a5.84,5.84,0,0,1,.28-.84l0,0a3.7,3.7,0,0,1-2.91-.28A4.26,4.26,0,0,1,48,147.74Zm4.26.07a1.14,1.14,0,0,0,.89-.65l.38-.74-2-1a1.39,1.39,0,0,0-.9-.17.81.81,0,0,0-.6.47,1.09,1.09,0,0,0,0,1,1.8,1.8,0,0,0,.88.81A2.28,2.28,0,0,0,52.3,147.81Z"/><path class="cls-5" d="M58.57,152a3,3,0,0,1,0-2.62l2.54-7.59,2.56.48-.79,2.36L66,145.72l-1.09,1.8-2.72-.91-1.08,3.21a1.65,1.65,0,0,0-.05,1.21,1.33,1.33,0,0,0,.87.68,8.32,8.32,0,0,0,1.64.4L63.07,154a5.93,5.93,0,0,1-1.07-.13,11.47,11.47,0,0,1-1.22-.33A4,4,0,0,1,58.57,152Z"/><path class="cls-5" d="M68,146.05l2.52.57-2,8.88L66,154.93Zm.47-1.55a1.41,1.41,0,0,1-.22-1.18,1.43,1.43,0,0,1,.7-1,1.73,1.73,0,0,1,1.25-.16,1.7,1.7,0,0,1,1,.68,1.47,1.47,0,0,1-.48,2.14,1.66,1.66,0,0,1-1.24.17A1.7,1.7,0,0,1,68.47,144.5Z"/><path class="cls-5" d="M71.93,147.09l2.79.29,1.76,6.05h.09l2.85-5.58,2.79.29-4.95,8.64-2.15-.23Z"/><path class="cls-5" d="M85,156.9a3.09,3.09,0,0,1-1.31-1,2.88,2.88,0,0,1-.53-1.58,2.3,2.3,0,0,1,.84-2,5.51,5.51,0,0,1,3.06-.81l.62,0c.45,0,.91,0,1.41,0l0-.4a1.11,1.11,0,0,0-.57-1,3.18,3.18,0,0,0-1.63-.24,12.18,12.18,0,0,0-2.84.51l-.26-1.93a15.05,15.05,0,0,1,1.74-.41,15.38,15.38,0,0,1,1.94-.22,4.86,4.86,0,0,1,3,.64,2.94,2.94,0,0,1,1.16,2.4l.2,4.19c0,.83.08,1.43.13,1.81l-2.23.11a5.36,5.36,0,0,1-.17-.86h0a3.7,3.7,0,0,1-2.67,1.18A4.19,4.19,0,0,1,85,156.9Zm3.74-2a1.17,1.17,0,0,0,.47-1l0-.83-2.23.11a1.36,1.36,0,0,0-.86.29.8.8,0,0,0-.29.71,1.07,1.07,0,0,0,.48.88,1.83,1.83,0,0,0,1.16.28A2.27,2.27,0,0,0,88.7,154.87Z"/><path class="cls-5" d="M97.73,144.07l4.22-1.31a11.76,11.76,0,0,1,3.25-.59,5.27,5.27,0,0,1,2.49.51,5.44,5.44,0,0,1,2.66,3.52A5.62,5.62,0,0,1,110,151a5.69,5.69,0,0,1-1.69,1.74,9.34,9.34,0,0,1-2.58,1.21l-4.47,1.39Zm7.36,7.81a5.27,5.27,0,0,0,1.63-.76,3.3,3.3,0,0,0,.94-1.09,3.15,3.15,0,0,0,.36-1.39,4.78,4.78,0,0,0-.24-1.63,5.35,5.35,0,0,0-.67-1.49,2.49,2.49,0,0,0-.93-.82,2.87,2.87,0,0,0-1.43-.33,6.45,6.45,0,0,0-1.79.33l-2.1.65,2.22,7.16Z"/><path class="cls-5" d="M110.9,140.56a1.44,1.44,0,0,1-.9-.79,1.42,1.42,0,0,1,0-1.19,1.71,1.71,0,0,1,.87-.91,1.75,1.75,0,0,1,1.25-.11,1.48,1.48,0,0,1,1,2,1.72,1.72,0,0,1-.86.9A1.74,1.74,0,0,1,110.9,140.56Zm.61,1.5,2.32-1.12,4,8.2-2.32,1.12Z"/><path class="cls-5" d="M126,149.13a10.92,10.92,0,0,1-1.46.57l-.91-1.8a8.68,8.68,0,0,0,1.23-.43,8,8,0,0,0,1.17-.62q2.2-1.47.91-3.43l-.32-.48a3.73,3.73,0,0,1-.62,1.18,4.58,4.58,0,0,1-1.09,1,5.15,5.15,0,0,1-2.4.88,4.21,4.21,0,0,1-2.29-.47,5,5,0,0,1-1.82-1.7,4.71,4.71,0,0,1-.81-2.34,4.46,4.46,0,0,1,.55-2.38,5.57,5.57,0,0,1,1.87-2,4.3,4.3,0,0,1,1.45-.62,2.83,2.83,0,0,1,1.45,0l-.39-.9,1.56-1,4.63,7a4.34,4.34,0,0,1-1.27,6.72A12.48,12.48,0,0,1,126,149.13Zm-.92-6.78a2.54,2.54,0,0,0,.45-.88L124,139.13a1.69,1.69,0,0,0-1.22-.77,2.13,2.13,0,0,0-1.5.38,2.48,2.48,0,0,0-1.16,1.64,2.6,2.6,0,0,0,.47,2,2.65,2.65,0,0,0,1.69,1.25,2.52,2.52,0,0,0,1.94-.43A3.47,3.47,0,0,0,125.1,142.35Z"/><path class="cls-5" d="M125.09,131.53A1.43,1.43,0,0,1,124,131a1.38,1.38,0,0,1-.37-1.14,1.66,1.66,0,0,1,.59-1.11,1.72,1.72,0,0,1,1.17-.45,1.48,1.48,0,0,1,1.45,1.65,1.7,1.7,0,0,1-.59,1.1A1.72,1.72,0,0,1,125.09,131.53Zm1,1.28,1.93-1.7,6,6.81-1.93,1.71Z"/><path class="cls-5" d="M136.75,134.4a3,3,0,0,1-2.41-1l-5.91-5.4,1.47-2.15,1.84,1.68,2.25-2.46,1.2,1.73-1.93,2.12,2.5,2.28a1.67,1.67,0,0,0,1.08.54,1.37,1.37,0,0,0,1-.53,8.48,8.48,0,0,0,1-1.33l1.5,1.2a5.68,5.68,0,0,1-.55.92,11.06,11.06,0,0,1-.79,1A4.06,4.06,0,0,1,136.75,134.4Z"/><path class="cls-5" d="M143.08,127.55a3.09,3.09,0,0,1-1.62.44,2.9,2.9,0,0,1-1.58-.51,2.28,2.28,0,0,1-1.13-1.89,5.58,5.58,0,0,1,1.16-2.94l.35-.52c.25-.37.52-.74.84-1.13l-.34-.22a1.08,1.08,0,0,0-1.12-.13,3.12,3.12,0,0,0-1.16,1.17,11.94,11.94,0,0,0-1.28,2.58l-1.71-.93a16.61,16.61,0,0,1,1.68-3.33,4.77,4.77,0,0,1,2.32-2,2.86,2.86,0,0,1,2.61.49l3.5,2.33c.69.45,1.2.78,1.53,1l-1.24,1.86a6.61,6.61,0,0,1-.79-.38l0,0a3.7,3.7,0,0,1-.64,2.85A4.13,4.13,0,0,1,143.08,127.55Zm.59-4.21a1.15,1.15,0,0,0-.53-1l-.7-.47-1.23,1.86a1.33,1.33,0,0,0-.28.86.82.82,0,0,0,.4.66,1.07,1.07,0,0,0,1,.14,1.87,1.87,0,0,0,.92-.78A2.24,2.24,0,0,0,143.67,123.34Z"/><path class="cls-5" d="M137.89,113.27l.55-2.61,11.5,5.57-1.13,2.32Z"/><path class="cls-6" d="M81.89,91.34h0a3.21,3.21,0,0,1-3.21-3.21V66.92a3.22,3.22,0,0,1,6.43,0V88.13a3.22,3.22,0,0,1-3.22,3.21"/><path class="cls-6" d="M96.8,78.56h0a3.12,3.12,0,0,0-1.22.24A3.18,3.18,0,0,0,91,77.73a3.21,3.21,0,0,0-5.87,1.8V92.07a3.21,3.21,0,0,0,5,2.64,3.21,3.21,0,0,0,2.66,1.42A3.13,3.13,0,0,0,94,95.88a3.18,3.18,0,0,0,2.78,1.64v0A3.2,3.2,0,0,0,100,94.31V81.77a3.21,3.21,0,0,0-3.21-3.21"/><path class="cls-6" d="M69.26,87.14,81.93,98.78a13.17,13.17,0,0,0,8.91,3.46h1.81A7.36,7.36,0,0,0,100,94.88V89.52l-21.33-2-4.52-3.47a3.67,3.67,0,0,0-5,.52l0,0a1.83,1.83,0,0,0,.15,2.53"/><path class="cls-7" d="M77.05,72.88a6.74,6.74,0,1,1,9.36.31"/><path class="cls-7" d="M76.79,77.14a10.3,10.3,0,1,1,13.54-3"/><path class="cls-7" d="M76.9,81.39a14.13,14.13,0,1,1,17-5.82"/></svg>