<svg id="Capa_1" data-name="Capa 1" xmlns="http://www.w3.org/2000/svg" xmlns:xlink="http://www.w3.org/1999/xlink" viewBox="0 0 168.08 168.08"><defs><style>.cls-1{fill:#009ca6;}.cls-2{fill:#fff;}.cls-3{fill:url(#Degradado_sin_nombre_12);}.cls-4,.cls-6{fill:none;}.cls-4{stroke:#d2151a;stroke-miterlimit:10;stroke-width:2.09px;}.cls-5{fill:#f2f2f2;}.cls-6{stroke:#d2010d;stroke-linecap:round;stroke-linejoin:round;stroke-width:1.39px;}.cls-7{fill:#d21217;}</style><linearGradient id="Degradado_sin_nombre_12" x1="-642.07" y1="1216.31" x2="-641.07" y2="1216.31" gradientTransform="matrix(110.71, 0, 0, -110.71, 71111.17, 134733.23)" gradientUnits="userSpaceOnUse"><stop offset="0" stop-color="#f9f9f9"/><stop offset="1" stop-color="#f2f2f2"/></linearGradient></defs><path class="cls-1" d="M0,84H0a84,84,0,1,1,84,84A84,84,0,0,1,0,84"/><path class="cls-2" d="M138.59,78.52A54.73,54.73,0,1,1,83.86,23.78a54.73,54.73,0,0,1,54.73,54.74"/><path class="cls-3" d="M138.59,78.52h0A54.73,54.73,0,1,1,83.86,23.78a54.73,54.73,0,0,1,54.73,54.74h0a54.73,54.73,0,1,0-54.73,54.73,54.73,54.73,0,0,0,54.73-54.73Z"/><circle class="cls-4" cx="83.86" cy="78.52" r="54.73" transform="translate(-30.96 82.29) rotate(-45)"/><path class="cls-5" d="M57.63,143.09,62,144.71a5.83,5.83,0,0,1,3,2.18,3.54,3.54,0,0,1,.14,3.24A4,4,0,0,1,63,152.58a5,5,0,0,1-3.64-.2l-2.09-.78L55.94,155l-2.45-.92Zm2.26,7.19a2.27,2.27,0,0,0,1.7.1,1.83,1.83,0,0,0,1-1.15c.44-1.16,0-2-1.43-2.53L59.32,146,58,149.57Z"/><path class="cls-5" d="M66.72,158.25a3.12,3.12,0,0,1-1-1.33,2.88,2.88,0,0,1-.14-1.65,2.26,2.26,0,0,1,1.3-1.77,5.43,5.43,0,0,1,3.17-.06l.61.12a13.5,13.5,0,0,1,1.36.34l.08-.4a1.09,1.09,0,0,0-.32-1.09,3.15,3.15,0,0,0-1.53-.62,12,12,0,0,0-2.87-.18l.21-1.93a12.09,12.09,0,0,1,1.79,0,14.13,14.13,0,0,1,1.93.24,4.85,4.85,0,0,1,2.78,1.35,2.88,2.88,0,0,1,.56,2.6L73.82,158c-.15.81-.26,1.4-.31,1.78l-2.18-.42a4.59,4.59,0,0,1,0-.88h0a3.66,3.66,0,0,1-2.87.5A4.16,4.16,0,0,1,66.72,158.25Zm4.12-1.08a1.16,1.16,0,0,0,.69-.86l.16-.82-2.19-.43a1.39,1.39,0,0,0-.9.07.84.84,0,0,0-.45.62,1.07,1.07,0,0,0,.25,1,1.82,1.82,0,0,0,1.07.54A2.22,2.22,0,0,0,70.84,157.17Z"/><path class="cls-5" d="M76.69,159.82l.3-2.06a13,13,0,0,0,1.49.47,8.25,8.25,0,0,0,1.47.23,2.82,2.82,0,0,0,1.25-.16.64.64,0,0,0,.42-.56.49.49,0,0,0-.13-.39A1.39,1.39,0,0,0,81,157a10.14,10.14,0,0,0-1.15-.42,5.07,5.07,0,0,1-2.15-1.22,2.31,2.31,0,0,1-.61-1.76,2.19,2.19,0,0,1,1.26-2,5.66,5.66,0,0,1,2.87-.53,11.86,11.86,0,0,1,2.78.49l-.28,2a7.72,7.72,0,0,0-2.41-.5c-1-.05-1.57.14-1.59.58,0,.21.12.39.4.54a14.4,14.4,0,0,0,1.55.62A5,5,0,0,1,83.73,156a2.2,2.2,0,0,1,.52,1.6A2.62,2.62,0,0,1,83,159.86a4.76,4.76,0,0,1-2.83.63A11.28,11.28,0,0,1,76.69,159.82Z"/><path class="cls-5" d="M86.54,149.66a1.5,1.5,0,0,1-.12-2.2,1.74,1.74,0,0,1,1.15-.5,1.71,1.71,0,0,1,1.19.37,1.42,1.42,0,0,1,.55,1.07,1.39,1.39,0,0,1-.43,1.13,1.69,1.69,0,0,1-1.14.5A1.74,1.74,0,0,1,86.54,149.66Zm0,1.62,2.57-.14.51,9.08-2.58.15Z"/><path class="cls-5" d="M94.12,158.75a4.54,4.54,0,0,1-1.94-3.15,4.86,4.86,0,0,1,.15-2.59,4.06,4.06,0,0,1,1.43-1.93,5.87,5.87,0,0,1,2.52-1,6,6,0,0,1,2.74.06,4.18,4.18,0,0,1,2,1.28,5,5,0,0,1,1.06,2.36,4.86,4.86,0,0,1-.15,2.59,4.06,4.06,0,0,1-1.42,1.93A6,6,0,0,1,98,159.31,5.21,5.21,0,0,1,94.12,158.75Zm-.21-10.67,3.33-2.83,1.43,1.61L95,149.37Zm5.32,8.26a3.4,3.4,0,0,0-.75-4,2.48,2.48,0,0,0-3.42.64,2.85,2.85,0,0,0-.29,2.11,2.8,2.8,0,0,0,1,1.86,2.33,2.33,0,0,0,1.86.37A2.27,2.27,0,0,0,99.23,156.34Z"/><path class="cls-5" d="M103.27,148.65l2.14-.8.4.7a6.38,6.38,0,0,1,1.19-1.19,5.23,5.23,0,0,1,1.39-.8,3.25,3.25,0,0,1,2.63,0,3.69,3.69,0,0,1,1.7,2.17l2,5.35-2.41.91-1.92-5.09a2.53,2.53,0,0,0-.41-.78,1.14,1.14,0,0,0-.51-.36,1.76,1.76,0,0,0-1.22.09,3.23,3.23,0,0,0-1,.54,4,4,0,0,0-.74.74l2.32,6.15-2.41.91Z"/><path class="cls-6" d="M89.11,81.83l-3,2.08a5.83,5.83,0,0,1-3.31,1H76.3a3.38,3.38,0,1,1,0-6.76h4.49a7.49,7.49,0,0,0,5.85-3c1.33-1.68,3.84-3,7.3-3.51a12.33,12.33,0,0,1,6.41.76,5.41,5.41,0,0,0,2,.38h8"/><path class="cls-6" d="M76.3,84.93H69.92l-6.55-4.26a4,4,0,0,0-5.53,1.12,2.73,2.73,0,0,0,.52,3.63l7.15,5.88a5,5,0,0,0,3.13,1.12h18.8a5,5,0,0,0,2.31-.57l10.42-5.52a7.49,7.49,0,0,1,3.49-.87h6.69"/><path class="cls-7" d="M80.55,66a8.3,8.3,0,0,1-2.5,3.27l0-.07a6.88,6.88,0,0,0-6.58-10.82,8.56,8.56,0,0,0-1.09.25,5.47,5.47,0,0,1,.55.86,5.64,5.64,0,0,1-6.43,8h0a8.24,8.24,0,0,0,1.64,4.17,8.37,8.37,0,0,0,15-5.57.35.35,0,0,0-.67-.11"/><path class="cls-7" d="M64.54,57.43s-3.08,3.5-.28,6.56c2.94,2.4,5-.82,3.91-2.35s-2.87-1.71-3.63-4.21"/></svg>