<svg id="Capa_1" data-name="Capa 1" xmlns="http://www.w3.org/2000/svg" xmlns:xlink="http://www.w3.org/1999/xlink" viewBox="0 0 168.08 168.08"><defs><style>.cls-1{fill:#009ca6;}.cls-2{fill:#fff;}.cls-3{fill:url(#Degradado_sin_nombre_12);}.cls-4,.cls-7,.cls-8{fill:none;}.cls-4{stroke:#d2151a;stroke-width:2.09px;}.cls-4,.cls-7{stroke-miterlimit:10;}.cls-5{fill:#f2f2f2;}.cls-6{fill:#d21217;}.cls-7,.cls-8{stroke:#d21217;stroke-linecap:round;stroke-width:1.39px;}.cls-8{stroke-linejoin:round;}</style><linearGradient id="Degradado_sin_nombre_12" x1="-827.25" y1="1216.31" x2="-826.25" y2="1216.31" gradientTransform="matrix(110.71, 0, 0, -110.71, 91611.38, 134733.23)" gradientUnits="userSpaceOnUse"><stop offset="0" stop-color="#f9f9f9"/><stop offset="1" stop-color="#f2f2f2"/></linearGradient></defs><path class="cls-1" d="M0,84H0A84,84,0,0,1,84,0h0a84,84,0,0,1,0,168.08h0A84,84,0,0,1,0,84"/><path class="cls-2" d="M138.59,78.52A54.73,54.73,0,1,1,83.86,23.78a54.73,54.73,0,0,1,54.73,54.74"/><path class="cls-3" d="M138.59,78.52h0A54.73,54.73,0,1,1,83.86,23.78a54.73,54.73,0,0,1,54.73,54.74h0a54.73,54.73,0,1,0-54.73,54.73,54.73,54.73,0,0,0,54.73-54.73Z"/><circle class="cls-4" cx="83.86" cy="78.52" r="54.73" transform="translate(-30.96 82.29) rotate(-45)"/><path class="cls-5" d="M31.42,119.8l5,7.16-2.12.71-3.14-4.5-2.3,1.6,2.78,4-1.82,1.14L27.09,126,25,127.45l3.51,5-2.12.71-4.64-6.67Z"/><path class="cls-5" d="M28.94,135.69l1.63-1.3a10.84,10.84,0,0,0,.76,1.36,7.58,7.58,0,0,0,.92,1.16,2.69,2.69,0,0,0,1,.74.66.66,0,0,0,.7-.12.56.56,0,0,0,.17-.38,1.43,1.43,0,0,0-.15-.6,10.1,10.1,0,0,0-.55-1.08,5.14,5.14,0,0,1-.75-2.36,2.37,2.37,0,0,1,.76-1.71,2.18,2.18,0,0,1,2.27-.58,5.59,5.59,0,0,1,2.46,1.57,11.94,11.94,0,0,1,1.71,2.24l-1.57,1.27a7.66,7.66,0,0,0-1.42-2c-.73-.74-1.25-1-1.57-.65a.61.61,0,0,0-.07.66,12.33,12.33,0,0,0,.72,1.51,5,5,0,0,1,.71,2.28,2.15,2.15,0,0,1-.71,1.53,2.61,2.61,0,0,1-2.44.81A4.87,4.87,0,0,1,31,138.56,11.69,11.69,0,0,1,28.94,135.69Z"/><path class="cls-5" d="M38.4,144.46a4.23,4.23,0,0,1-.52-2.41,4.61,4.61,0,0,1,1-2.42,4.53,4.53,0,0,1,2.07-1.6,4.36,4.36,0,0,1,2.51-.16A6.58,6.58,0,0,1,46,139.08,9.75,9.75,0,0,1,47.93,141l-1.44,1.42A6.33,6.33,0,0,0,45,140.85a3.24,3.24,0,0,0-2.11-.74A2.4,2.4,0,0,0,41,141.18a2.45,2.45,0,0,0-.52,2.11,3.27,3.27,0,0,0,1.29,1.86,6.31,6.31,0,0,0,2,1l-1,1.7a5.39,5.39,0,0,1-1.19-.46,9.35,9.35,0,0,1-1.32-.83A6.58,6.58,0,0,1,38.4,144.46Z"/><path class="cls-5" d="M46.9,149.89a3.41,3.41,0,0,1,.33-3l2.57-5,2.29,1.19-2.56,4.92a1.76,1.76,0,0,0-.21,1.37,1.87,1.87,0,0,0,1,1,1.83,1.83,0,0,0,1.37.24,1.74,1.74,0,0,0,1-1l2.56-4.91L57.53,146,55,150.92a3.42,3.42,0,0,1-2.28,1.94,5,5,0,0,1-3.32-.68A5,5,0,0,1,46.9,149.89Z"/><path class="cls-5" d="M59.1,155.81a4.21,4.21,0,0,1-1.27-2.12,4.63,4.63,0,0,1,.16-2.61,4.55,4.55,0,0,1,1.44-2.18,4.44,4.44,0,0,1,2.33-1,6.31,6.31,0,0,1,2.81.33,9.39,9.39,0,0,1,2.44,1.2l-.91,1.81a6.53,6.53,0,0,0-1.95-1,3.31,3.31,0,0,0-2.24,0,2.4,2.4,0,0,0-1.41,1.61,2.44,2.44,0,0,0,.18,2.16,3.32,3.32,0,0,0,1.83,1.35,6,6,0,0,0,2.27.32l-.4,1.94a4.76,4.76,0,0,1-1.27-.06,8.58,8.58,0,0,1-1.52-.36A6.4,6.4,0,0,1,59.1,155.81Z"/><path class="cls-5" d="M69.66,146.81l2.65-.23-.68,4.32a6.6,6.6,0,0,1,1.53-.39,5.07,5.07,0,0,1,1.51,0A3.18,3.18,0,0,1,77,151.8a3.62,3.62,0,0,1,.41,2.73l-.9,5.64-2.54-.4.85-5.37a2.7,2.7,0,0,0,0-.88,1.16,1.16,0,0,0-.27-.57,1.76,1.76,0,0,0-1.1-.53,3.81,3.81,0,0,0-2.1.29l-1,6.48-2.55-.4Z"/><path class="cls-5" d="M81.59,160.23a3.11,3.11,0,0,1-1.28-1.09,2.86,2.86,0,0,1-.47-1.59,2.27,2.27,0,0,1,.91-2,5.55,5.55,0,0,1,3.08-.71h.62c.45,0,.91,0,1.41,0v-.4a1.09,1.09,0,0,0-.53-1,3.18,3.18,0,0,0-1.63-.29,12,12,0,0,0-2.85.41l-.19-1.93a12.25,12.25,0,0,1,1.75-.35,15,15,0,0,1,1.94-.16,4.92,4.92,0,0,1,3,.74,2.91,2.91,0,0,1,1.08,2.44l.06,4.2c0,.82,0,1.43.07,1.81l-2.23,0a4.83,4.83,0,0,1-.14-.87h0a3.7,3.7,0,0,1-2.71,1.09A4.11,4.11,0,0,1,81.59,160.23Zm3.8-1.91a1.12,1.12,0,0,0,.5-1v-.84l-2.23,0a1.41,1.41,0,0,0-.87.25.85.85,0,0,0-.31.71,1.08,1.08,0,0,0,.45.9,1.84,1.84,0,0,0,1.15.31A2.25,2.25,0,0,0,85.39,158.32Z"/><path class="cls-5" d="M98.69,146.94l2.3-.59,7.75,10.21-2.71.69-1.46-2-4.8,1.22-.34,2.48-2.81.71Zm4.53,6.42-2.48-3.45-.16,0-.52,4.22Z"/><path class="cls-5" d="M113.24,154.16a4.21,4.21,0,0,1-2.37-.71,4.72,4.72,0,0,1-1.64-2,4.57,4.57,0,0,1-.4-2.58,4.4,4.4,0,0,1,1.08-2.28,6.61,6.61,0,0,1,2.29-1.66,9.77,9.77,0,0,1,2.61-.75l.55,1.95a6.78,6.78,0,0,0-2.12.57,3.24,3.24,0,0,0-1.66,1.5,2.36,2.36,0,0,0,0,2.13,2.44,2.44,0,0,0,1.59,1.48,3.21,3.21,0,0,0,2.25-.24,6.16,6.16,0,0,0,1.91-1.29l1,1.7a5.85,5.85,0,0,1-1,.82,9.44,9.44,0,0,1-1.37.75A6.56,6.56,0,0,1,113.24,154.16Z"/><path class="cls-5" d="M121.74,149.6a3,3,0,0,1-2-1.63l-4.24-6.78,2-1.68,1.32,2.12,2.83-1.77.7,2-2.44,1.52,1.8,2.87a1.71,1.71,0,0,0,.89.81,1.34,1.34,0,0,0,1.09-.25,8.75,8.75,0,0,0,1.35-1l1.12,1.55a5.69,5.69,0,0,1-.78.75,10.73,10.73,0,0,1-1,.74A4.07,4.07,0,0,1,121.74,149.6Z"/><path class="cls-5" d="M122.21,137.17a1.44,1.44,0,0,1-1-.58,1.38,1.38,0,0,1-.3-1.15,1.64,1.64,0,0,1,.66-1.07,1.69,1.69,0,0,1,1.19-.38,1.44,1.44,0,0,1,1.06.56,1.42,1.42,0,0,1,.29,1.17,1.68,1.68,0,0,1-.65,1.06A1.7,1.7,0,0,1,122.21,137.17Zm.91,1.34,2-1.59,5.6,7.17-2,1.59Z"/><path class="cls-5" d="M126.4,136.14l2-2,5.82,2.42.07-.07-2.56-5.71,2-2,3.63,9.26-1.51,1.53Z"/><path class="cls-5" d="M142.31,131.93a3.1,3.1,0,0,1-1.63.4,2.88,2.88,0,0,1-1.57-.54,2.26,2.26,0,0,1-1.1-1.9,5.54,5.54,0,0,1,1.22-2.92l.36-.51a11.88,11.88,0,0,1,.86-1.11l-.33-.23A1.1,1.1,0,0,0,139,125a3.25,3.25,0,0,0-1.18,1.16,12.21,12.21,0,0,0-1.33,2.55l-1.68-1a13.5,13.5,0,0,1,.74-1.63,14.75,14.75,0,0,1,1-1.67,4.9,4.9,0,0,1,2.36-2,2.87,2.87,0,0,1,2.6.54l3.45,2.4c.68.47,1.18.8,1.51,1l-1.27,1.83a6.46,6.46,0,0,1-.79-.39l0,0a3.68,3.68,0,0,1-.7,2.83A4.08,4.08,0,0,1,142.31,131.93Zm.66-4.2a1.12,1.12,0,0,0-.51-1l-.68-.48-1.27,1.83a1.43,1.43,0,0,0-.3.86.81.81,0,0,0,.39.66,1.07,1.07,0,0,0,1,.16,1.9,1.9,0,0,0,.93-.75A2.27,2.27,0,0,0,143,127.73Z"/><path class="cls-6" d="M93.84,91.85H79c-3,0-5.49,3-5.49,0V75.79a12.93,12.93,0,1,1,25.85,0V91.86c0,3-2.48,0-5.5,0"/><path class="cls-2" d="M90.82,72.24a3.77,3.77,0,0,1-3.32-1.73c-.12,1-2.17,3.43-4.85,3.43a4.86,4.86,0,0,1-2.9-1,7.28,7.28,0,1,0,14,2.81,7.26,7.26,0,0,0-1.21-4,3,3,0,0,1-1.71.47"/><path class="cls-2" d="M71.52,95.42l-.68-5.51a5.52,5.52,0,0,1,5.5-5.5H96.18a5.52,5.52,0,0,1,5.5,5.5l-1,5.51"/><path class="cls-7" d="M71.52,95.42l-.68-5.51a5.52,5.52,0,0,1,5.5-5.5H96.18a5.52,5.52,0,0,1,5.5,5.5l-1,5.51"/><path class="cls-8" d="M71.12,73.3a6.74,6.74,0,0,1,8.07-10.6"/><path class="cls-8" d="M70.86,77.56A10.3,10.3,0,1,1,82.92,61"/><path class="cls-8" d="M71,81.81A14.12,14.12,0,1,1,86.86,59.62"/></svg>