<svg id="Capa_1" data-name="Capa 1" xmlns="http://www.w3.org/2000/svg" xmlns:xlink="http://www.w3.org/1999/xlink" viewBox="0 0 168.08 168.08"><defs><style>.cls-1{fill:#009ca6;}.cls-2{fill:#fff;}.cls-3{fill:url(#Degradado_sin_nombre_12);}.cls-4{fill:none;stroke:#d2151a;stroke-miterlimit:10;stroke-width:2.09px;}.cls-5{fill:#f2f2f2;}.cls-6{fill:#d21217;}</style><linearGradient id="Degradado_sin_nombre_12" x1="-459.79" y1="1216.31" x2="-458.79" y2="1216.31" gradientTransform="matrix(110.71, 0, 0, -110.71, 50930.61, 134733.23)" gradientUnits="userSpaceOnUse"><stop offset="0" stop-color="#f9f9f9"/><stop offset="1" stop-color="#f2f2f2"/></linearGradient></defs><path class="cls-1" d="M0,84H0a84,84,0,1,1,84,84A84,84,0,0,1,0,84"/><path class="cls-2" d="M138.77,78.52A54.73,54.73,0,1,1,84,23.78a54.73,54.73,0,0,1,54.73,54.74"/><path class="cls-3" d="M138.77,78.52h0A54.73,54.73,0,1,1,84,23.78a54.73,54.73,0,0,1,54.73,54.74h0A54.73,54.73,0,1,0,84,133.25a54.73,54.73,0,0,0,54.73-54.73Z"/><circle class="cls-4" cx="84.04" cy="78.52" r="54.73" transform="translate(-30.9 82.42) rotate(-45)"/><path class="cls-5" d="M24.12,94.93,25,99.48a5.75,5.75,0,0,1-.27,3.72A3.5,3.5,0,0,1,22.06,105a4,4,0,0,1-3.23-.57,5,5,0,0,1-1.74-3.21l-.42-2.18-3.61.7-.5-2.57Zm-4.94,5.69a2.32,2.32,0,0,0,.81,1.5,1.84,1.84,0,0,0,1.5.26c1.22-.24,1.69-1.08,1.41-2.54l-.38-1.94-3.73.73Z"/><path class="cls-5" d="M24,106.48l.78,2.06-1.09.59a6.59,6.59,0,0,1,2.54,2.76l-2.2.74a7.54,7.54,0,0,0-.86-1.43A8.33,8.33,0,0,0,22.07,110l-5.64,2.13-.92-2.41Z"/><path class="cls-5" d="M20.13,118.06a4.48,4.48,0,0,1,2.31-2.89,5,5,0,0,1,2.49-.73,4.08,4.08,0,0,1,2.3.69,6.65,6.65,0,0,1,2.69,4.63,4.16,4.16,0,0,1-.53,2.33A5.41,5.41,0,0,1,25,124.62a4.07,4.07,0,0,1-2.3-.7,5.91,5.91,0,0,1-1.83-2A5.17,5.17,0,0,1,20.13,118.06Zm4,4a2.87,2.87,0,0,0,2.08-.44A2.86,2.86,0,0,0,27.6,120a2.49,2.49,0,0,0-1.75-3,2.88,2.88,0,0,0-2.09.44,2.79,2.79,0,0,0-1.4,1.59,2.35,2.35,0,0,0,.27,1.88A2.3,2.3,0,0,0,24.11,122.06Z"/><path class="cls-5" d="M32.38,123.24,34,124.89l-.48.65a6.15,6.15,0,0,1,1.51.58,5.42,5.42,0,0,1,1.34,1,3.54,3.54,0,0,1,.79,1.23,2.77,2.77,0,0,1,.17,1.33,9.44,9.44,0,0,1,1.78.74,5.84,5.84,0,0,1,1.45,1.06,3.94,3.94,0,0,1,.76,1.13,2.19,2.19,0,0,1,.23,1.09,2.58,2.58,0,0,1-.39,1.2A7.75,7.75,0,0,1,40,136.17l-4.09,3.92-1.78-1.86L38,134.5a5.44,5.44,0,0,0,.61-.65,1.2,1.2,0,0,0,.22-.53,1.51,1.51,0,0,0-.53-1.1,3.8,3.8,0,0,0-.82-.61,5.44,5.44,0,0,0-1-.44c-.14.15-.35.37-.64.64l-4.1,3.94L30,133.88l3.88-3.72a3.73,3.73,0,0,0,.53-.61,1.54,1.54,0,0,0,.23-.58,1.36,1.36,0,0,0-.46-1.09,3.18,3.18,0,0,0-.83-.63,4.27,4.27,0,0,0-1-.4L27.6,131.4l-1.78-1.86Z"/><path class="cls-5" d="M40.67,142.5a3.43,3.43,0,0,1,.64-2.94l3.07-4.65,2.16,1.42L43.48,141a1.8,1.8,0,0,0-.35,1.35,2.31,2.31,0,0,0,2.23,1.47,1.77,1.77,0,0,0,1.09-.86l3-4.62,2.15,1.42-3.07,4.65a3.39,3.39,0,0,1-2.46,1.69,5.06,5.06,0,0,1-3.23-1A5,5,0,0,1,40.67,142.5Z"/><path class="cls-5" d="M51.22,148.5a4.5,4.5,0,0,1,.18-3.71,5,5,0,0,1,1.52-2,4.17,4.17,0,0,1,2.22-.87,5.22,5.22,0,0,1,2.66.5,4,4,0,0,1,2.45,2.42A4.59,4.59,0,0,1,60,148.1a6.5,6.5,0,0,1-.6,1.09l-5.8-2.55a1.63,1.63,0,0,0,.17,1.55,3.66,3.66,0,0,0,1.68,1.28,7.37,7.37,0,0,0,2.7.69l-.6,1.89a8.79,8.79,0,0,1-3.15-.83A5.68,5.68,0,0,1,51.22,148.5Zm6.55-1.86a1.77,1.77,0,0,0,.12-.31,2.15,2.15,0,0,0,0-1.37,1.63,1.63,0,0,0-1-.92,1.92,1.92,0,0,0-1.58-.09,2.14,2.14,0,0,0-1.11,1.16Z"/><path class="cls-5" d="M62.21,144.53l2.7.71.83,6.25.09,0,3.66-5.08,2.71.71L66,154.93l-2.08-.55Z"/><path class="cls-5" d="M73.33,155.34a4.46,4.46,0,0,1-1-3.58,5,5,0,0,1,.82-2.36A4.22,4.22,0,0,1,75,147.88a5.19,5.19,0,0,1,2.68-.35,4,4,0,0,1,3.09,1.54,4.57,4.57,0,0,1,.74,3.18,6,6,0,0,1-.23,1.22L75,152.84a1.67,1.67,0,0,0,.65,1.43,3.69,3.69,0,0,0,2,.69,7.3,7.3,0,0,0,2.78-.18l0,2a8.61,8.61,0,0,1-3.26.19A5.71,5.71,0,0,1,73.33,155.34Zm5.65-3.8c0-.12,0-.24,0-.33a2.22,2.22,0,0,0-.4-1.31,1.64,1.64,0,0,0-1.19-.58,2,2,0,0,0-1.53.4,2.11,2.11,0,0,0-.69,1.45Z"/><path class="cls-5" d="M90.11,155.86a4.49,4.49,0,0,1-1.75-3.28,5.08,5.08,0,0,1,.28-2.48,4.22,4.22,0,0,1,1.46-1.89,5.41,5.41,0,0,1,2.54-.94,4,4,0,0,1,3.35.83A4.52,4.52,0,0,1,97.41,151a6.66,6.66,0,0,1,0,1.24l-6.29.78a1.64,1.64,0,0,0,.94,1.24,3.64,3.64,0,0,0,2.1.24,7.64,7.64,0,0,0,2.67-.78l.46,1.92a8.75,8.75,0,0,1-3.13.9A5.68,5.68,0,0,1,90.11,155.86Zm4.67-5a1.39,1.39,0,0,0-.06-.33,2.14,2.14,0,0,0-.67-1.19,1.62,1.62,0,0,0-1.29-.3,2,2,0,0,0-1.41.72,2.17,2.17,0,0,0-.35,1.57Z"/><path class="cls-5" d="M98.1,143.4l2.35-1.24,3.07,12.4-2.51.62Z"/><path class="cls-5" d="M113.92,150.29a5.29,5.29,0,0,1-3-1,6.3,6.3,0,0,1-2-2.46,6.06,6.06,0,0,1-.61-3.24,5.6,5.6,0,0,1,1.19-3,7.76,7.76,0,0,1,2.85-2.2,10.58,10.58,0,0,1,3.29-1l.73,2.05a7.74,7.74,0,0,0-1.41.28,10.56,10.56,0,0,0-1.57.59,4.77,4.77,0,0,0-1.72,1.31,3.38,3.38,0,0,0-.76,1.83,4,4,0,0,0,.4,2.12,3.84,3.84,0,0,0,2.23,2.13,4.24,4.24,0,0,0,3.22-.35,10,10,0,0,0,1.41-.8,9.75,9.75,0,0,0,1.18-.9l1.08,1.8a7.24,7.24,0,0,1-1.24,1,12.26,12.26,0,0,1-1.63.92A7.87,7.87,0,0,1,113.92,150.29Z"/><path class="cls-5" d="M124.61,145a3.11,3.11,0,0,1-1.67-.18,2.83,2.83,0,0,1-1.29-1,2.28,2.28,0,0,1-.39-2.16,5.56,5.56,0,0,1,2.14-2.33l.52-.36c.36-.26.75-.51,1.18-.76l-.23-.32a1.1,1.1,0,0,0-1-.53,3.29,3.29,0,0,0-1.5.68,12.31,12.31,0,0,0-2.12,2L119,138.48a16.44,16.44,0,0,1,2.76-2.51,4.85,4.85,0,0,1,2.9-1.09,2.89,2.89,0,0,1,2.27,1.4l2.43,3.43c.48.67.83,1.16,1.08,1.45l-1.82,1.29a5.7,5.7,0,0,1-.61-.63l0,0a3.73,3.73,0,0,1-1.62,2.43A4.29,4.29,0,0,1,124.61,145Zm2-3.73a1.12,1.12,0,0,0-.14-1.09l-.48-.68-1.82,1.29a1.37,1.37,0,0,0-.57.7.77.77,0,0,0,.14.75,1,1,0,0,0,.87.49,1.76,1.76,0,0,0,1.13-.39A2.23,2.23,0,0,0,126.66,141.28Z"/><path class="cls-5" d="M127,132.56l1.53-1.69.68.44a6.06,6.06,0,0,1,.48-1.56,5.42,5.42,0,0,1,.91-1.41,3.61,3.61,0,0,1,1.17-.87,2.77,2.77,0,0,1,1.31-.26,9.59,9.59,0,0,1,.61-1.83,5.82,5.82,0,0,1,1-1.52,4.05,4.05,0,0,1,1.07-.84,2.18,2.18,0,0,1,1.07-.3,2.6,2.6,0,0,1,1.23.3,6.74,6.74,0,0,1,1.33,1l4.21,3.8-1.73,1.91-4-3.61a4.83,4.83,0,0,0-.69-.56,1.17,1.17,0,0,0-.54-.19,1.54,1.54,0,0,0-1.06.61,3.65,3.65,0,0,0-.55.86,5,5,0,0,0-.37,1l.68.59,4.22,3.81-1.73,1.92-4-3.62a3.21,3.21,0,0,0-.64-.48,1.4,1.4,0,0,0-.59-.18,1.3,1.3,0,0,0-1.06.52,3.71,3.71,0,0,0-.57.88,4.49,4.49,0,0,0-.33,1l4.88,4.41-1.73,1.91Z"/><path class="cls-5" d="M146.82,122.21a10.9,10.9,0,0,1-1.45,1.54l-10.18-5.48.66-2.57,3.94,2.12h0a4.45,4.45,0,0,1,0-1.5,5.13,5.13,0,0,1,.56-1.59,4.33,4.33,0,0,1,1.46-1.6,3.87,3.87,0,0,1,2.08-.61,4.89,4.89,0,0,1,2.41.65,4.61,4.61,0,0,1,2.52,3,5.83,5.83,0,0,1-.74,4.09A13.84,13.84,0,0,1,146.82,122.21Zm-.17-5.15a2.73,2.73,0,0,0-1.41-1.49,2.81,2.81,0,0,0-2-.37,2.16,2.16,0,0,0-1.42,1.15,2.24,2.24,0,0,0-.3,1.78,2.48,2.48,0,0,0,1.25,1.28l2.41,1.3a6.37,6.37,0,0,0,1.22-1.65A2.45,2.45,0,0,0,146.65,117.06Z"/><path class="cls-5" d="M141.58,108.48a1.41,1.41,0,0,1-1.19.07,1.39,1.39,0,0,1-.87-.82,1.68,1.68,0,0,1,0-1.25,1.75,1.75,0,0,1,.81-1,1.48,1.48,0,0,1,1.2-.09,1.44,1.44,0,0,1,.87.84,1.71,1.71,0,0,1,0,1.24A1.74,1.74,0,0,1,141.58,108.48Zm1.49.65.87-2.43,8.56,3.08-.87,2.43Z"/><path class="cls-5" d="M152.88,105.08a4.54,4.54,0,0,1-3.65.64,5,5,0,0,1-2.35-1.09,4.18,4.18,0,0,1-1.27-2,6.09,6.09,0,0,1,0-2.73,5.92,5.92,0,0,1,1.08-2.52,4.16,4.16,0,0,1,1.94-1.4,5,5,0,0,1,2.58-.12,4.94,4.94,0,0,1,2.35,1.1,4.11,4.11,0,0,1,1.27,2,6.09,6.09,0,0,1,0,2.73A5.27,5.27,0,0,1,152.88,105.08Zm-.36-5.64a3.37,3.37,0,0,0-4-.77,2.46,2.46,0,0,0-.67,3.41,3.36,3.36,0,0,0,4,.78,2.27,2.27,0,0,0,1-1.58A2.25,2.25,0,0,0,152.52,99.44Z"/><path class="cls-6" d="M96.07,87l5,2.24A20.81,20.81,0,0,1,83,99.86H81.56v1.23l-3.51-4,3.51-4v1.42H83A15.33,15.33,0,0,0,96.07,87m-.61-1.8A13.87,13.87,0,0,1,83,93h0V89.26L76.21,97,83,104.83v-3.58h0a22.1,22.1,0,0,0,20-12.73Z"/><path class="cls-6" d="M84.35,56.92l3.5,4-3.5,4V63.92H83a15.21,15.21,0,0,0-13.42,8l-5-2.23A20.69,20.69,0,0,1,83,58.49h1.4V56.92ZM83,53.18v3.91A22.12,22.12,0,0,0,62.7,70.43l7.5,3.37A13.88,13.88,0,0,1,83,65.32v3.43L89.69,61Z"/><path class="cls-6" d="M64.87,74.28l4.07,3.46-1.22,0v1.45a15.27,15.27,0,0,0,7.87,13.34l-2.23,5A20.73,20.73,0,0,1,62.28,79.21v-1.4H60.86Zm0-1.84-7.72,6.81,3.76,0A22.1,22.1,0,0,0,74,99.36l3.37-7.5a13.88,13.88,0,0,1-8.3-12.69v0l3.59,0Z"/><polygon class="cls-6" points="110.38 81.84 101.27 86.64 106.92 72.14 110.38 81.84"/><path class="cls-6" d="M105.77,75.57a14.31,14.31,0,0,0,1.4.46l-2.35,7.88a21.21,21.21,0,0,1-2-.68,22.12,22.12,0,0,1-14-19.33L97,63.49a13.87,13.87,0,0,0,8.79,12.08"/></svg>