<?xml version="1.0" encoding="utf-8"?>
<!-- Generator: Adobe Illustrator 23.0.6, SVG Export Plug-In . SVG Version: 6.00 Build 0)  -->
<svg version="1.1" id="Capa_1" xmlns="http://www.w3.org/2000/svg" xmlns:xlink="http://www.w3.org/1999/xlink" x="0px" y="0px"
	 viewBox="0 0 127.6 127.6" style="enable-background:new 0 0 127.6 127.6;" xml:space="preserve">
<style type="text/css">
	.st0{fill:#009CA6;}
</style>
<path class="st0" d="M122.2,64.6c-5.3,0.5-20.6,0.9-27-3.2c-2.4-1.6-4.5-3.7-6.6-5.9c-2.9-2.9-6.1-6.3-10.9-8.6c0-0.1,0-0.2,0-0.2
	c0-0.1,0-0.2,0-0.3c-0.9-2.3-3.1-2.7-4.8-2.5c3.4-2.7,5.7-6.9,5.7-11.6c0-8.2-6.6-14.8-14.8-14.8S49,24.1,49,32.3
	c0,4.7,2.2,8.9,5.7,11.6c-1.6-0.1-3.8,0.3-4.7,2.6c0,0.1,0,0.2,0,0.3c0,0,0,0.1,0,0.1c-4.8,2.4-8.1,5.7-10.9,8.7
	c-2.1,2.2-4.2,4.3-6.6,5.9c-6.4,4.1-21.7,3.7-27,3.2c-2.7-0.3-5.1,1.8-5.4,4.5c-0.3,2.7,1.7,5.1,4.5,5.4c0.8,0.1,4.1,0.3,8.3,0.3
	c7.5,0,18.3-0.8,24.9-5.1c2.9-1.9,5.2-4,7.3-6.2C43.7,75,39.4,92.4,24.8,96.2c-0.4,0.1-0.8,0.5-0.8,0.9c-0.1,0.4,0.2,0.9,0.5,1.1
	c0.5,0.3,8.5,4.8,19.7,6.3l-0.4,5.6h40l-0.4-5.9c9.9-1.7,16.9-5.6,17.3-5.9c0.4-0.2,0.6-0.7,0.5-1.1c-0.1-0.4-0.4-0.8-0.8-0.9
	c-13.2-3.4-18-17.9-19.8-29.1l-0.4-6c0.4,0.4,0.8,0.9,1.3,1.3c2.4,2.5,5,5.2,8.4,7.3c6.7,4.2,17.4,5.1,24.9,5.1
	c4.2,0,7.5-0.3,8.3-0.3c2.7-0.3,4.7-2.7,4.5-5.4C127.3,66.4,124.9,64.4,122.2,64.6L122.2,64.6z M76.6,46.7c0,0.2-0.1,0.8-0.3,1.3
	c-0.1,0.1-0.7,0.3-3.6-0.3c-0.1,0-0.2-0.1-0.3-0.2c-0.3-0.5-0.2-1.6,0-2.4C73.3,44.9,75.7,44.6,76.6,46.7z M55.2,45.1
	c0.2,0.8,0.3,1.9,0,2.4c-0.1,0.1-0.2,0.2-0.3,0.2c-2.9,0.7-3.5,0.4-3.5,0.4c-0.2-0.6-0.3-1.1-0.3-1.3C52,44.6,54.3,44.9,55.2,45.1z
	 M27.9,97.5C41.5,92.2,45.8,76,47.2,64.7l-2.8,37.6C37.1,101.3,31.1,98.9,27.9,97.5L27.9,97.5z M97.2,97.5c-2.8,1.3-7.8,3.3-14,4.4
	L81.6,80C84.4,87.5,89.2,94.4,97.2,97.5L97.2,97.5z"/>
</svg>
