<?xml version="1.0" encoding="utf-8"?>
<!-- Generator: Adobe Illustrator 23.0.6, SVG Export Plug-In . SVG Version: 6.00 Build 0)  -->
<svg version="1.1" id="Capa_1" xmlns="http://www.w3.org/2000/svg" xmlns:xlink="http://www.w3.org/1999/xlink" x="0px" y="0px"
	 viewBox="0 0 127.6 127.6" style="enable-background:new 0 0 127.6 127.6;" xml:space="preserve">
<style type="text/css">
	.st0{fill:#009CA6;}
</style>
<g>
	<path class="st0" d="M69.7,84.2c1.3-0.1,2.5-0.5,3.7-1.1l22.4-12.5c4.2-2.3,6.6-6.9,6.3-11.6l-2-25.6c3.3-1.3,5.1-4.7,4.3-8.1
		l-0.4-1.8c-0.4-1.8-1.5-3.4-3.1-4.4c-1.6-1-3.5-1.3-5.3-0.9l-34.4,7.6c-0.3,0.1-0.6,0.2-0.8,0.4L56,30.3c-1.4,1.3-3.2,2-5.1,1.9
		c-1.9-0.1-3.7-0.9-4.9-2.3c-0.7-0.7-1-1.7-0.9-2.7s0.5-1.9,1.3-2.5l13.6-11.8c2.8-2.4,7-2.1,9.5,0.7l5.1,5.8
		c0.6,0.7,1.8,0.8,2.5,0.2c0.7-0.6,0.8-1.8,0.2-2.5L72,11.1c-3.7-4.2-10.2-4.7-14.4-1L44,21.9c-1.5,1.3-2.3,3.1-2.5,5
		c-0.1,1.9,0.5,3.8,1.8,5.3c1.9,2.1,4.5,3.4,7.4,3.5c2.9,0.2,5.6-0.9,7.7-2.8l4-3.8l33.9-7.5c0.9-0.2,1.9-0.1,2.7,0.5
		c0.8,0.5,1.3,1.3,1.6,2.2L101,26c0.4,1.8-0.6,3.6-2.4,4.1l-0.9,0.3c-0.8,0.3-1.3,1-1.2,1.8l2.1,27c0.3,3.4-1.5,6.6-4.5,8.3L71.7,80
		c-0.7,0.4-1.5,0.6-2.3,0.7h-0.3c-3.6,0.4-6.8,2-9.2,4.6L48,98.5l-26.2-23l1.3-1.5c0.6-0.7,0.5-1.8-0.2-2.5
		c-0.7-0.6-1.8-0.5-2.5,0.2l-8,9.5l-1.1-1c-0.7-0.6-1.8-0.6-2.5,0.2l-8.4,9.3C0.2,90,0,90.5,0,91s0.3,0.9,0.6,1.2l30.9,27.3
		c0.3,0.3,0.8,0.4,1.2,0.4c0.5,0,1-0.2,1.3-0.6l28.5-31.7c1.8-2,4.3-3.2,6.9-3.5L69.7,84.2L69.7,84.2z M19.5,78.2l26.1,22.9
		l-4.8,5.3L15,83.6L19.5,78.2L19.5,78.2z"/>
	<path class="st0" d="M21.4,69.4l14.2,7.4c1.1,0.6,2.4,0.9,3.6,0.9c0.8,0,1.6-0.1,2.4-0.4c2-0.6,3.6-2,4.6-3.9c1-1.9,1.2-4,0.5-6
		c-0.1-0.3-0.2-0.6-0.4-0.8c0.2-0.1,0.5-0.1,0.7-0.2c2-0.6,3.7-2,4.6-3.9c1-1.9,1.2-4,0.5-6c-0.1-0.4-0.3-0.8-0.5-1.2
		c2.1-0.5,4-1.8,5.1-3.9c1.2-2.2,1.1-4.7,0.1-6.8c0.1,0,0.2,0,0.3-0.1c1.9-0.6,3.5-1.9,4.4-3.7c0.8-1.5,1-3.2,0.7-4.9
		c-0.2-1-1.1-1.6-2-1.4c-1,0.2-1.6,1.1-1.4,2c0.2,0.9,0.1,1.8-0.4,2.6c-1,1.9-3.4,2.7-5.3,1.8l-15.2-7.9c0,0-0.2-0.1-0.2-0.1
		l-0.4-0.2c-2-1-2.8-3.5-1.7-5.5c0.5-0.9,1.2-1.6,2.2-1.9c0.9-0.4,1.4-1.4,1-2.3c-0.4-0.9-1.4-1.4-2.3-1c-1.7,0.7-3.2,1.9-4.1,3.6
		c-1.2,2.2-1.1,4.8-0.1,6.9c-2,0.6-3.7,1.8-4.7,3.8c-0.9,1.8-1.1,3.9-0.5,5.8c0.2,0.5,0.3,0.9,0.5,1.3c-0.2,0.1-0.4,0.1-0.5,0.1
		c-2,0.6-3.7,2-4.6,3.9c-1,1.9-1.2,4-0.5,6c0.2,0.5,0.4,1,0.6,1.4c0,0-0.1,0-0.1,0c-2,0.6-3.7,2-4.6,3.9c-1,1.9-1.2,4-0.5,6
		C18.1,66.7,19.5,68.4,21.4,69.4L21.4,69.4z M30.8,38.1c0.7-1.4,2.1-2.2,3.6-2.2c0.6,0,1.2,0.1,1.7,0.4l15.2,7.9c0,0,0.1,0,0.2,0.1
		l0.4,0.2c2,1,2.8,3.5,1.7,5.5s-3.5,2.8-5.5,1.7l-15.6-8.1c-1-0.5-1.7-1.3-2-2.4C30.2,40.1,30.3,39,30.8,38.1L30.8,38.1z M25.7,49.1
		c0.5-1,1.4-1.8,2.5-2.1c0.4-0.1,0.9-0.2,1.3-0.2c0.7,0,1.4,0.2,2,0.5L46.7,55c1,0.5,1.8,1.4,2.1,2.5s0.3,2.3-0.3,3.3
		c-0.5,1-1.4,1.8-2.5,2.1c-1,0.3-2,0.3-2.9-0.1c-0.1-0.1-0.1-0.1-0.2-0.1l-14.2-7.4c-0.2-0.1-0.4-0.2-0.6-0.3l-0.4-0.2
		c-1-0.5-1.8-1.4-2.1-2.5C25.2,51.3,25.3,50.1,25.7,49.1L25.7,49.1z M21.2,60.4c0.5-1,1.4-1.8,2.5-2.1c0.4-0.1,0.9-0.2,1.3-0.2
		c0.5,0,1,0.1,1.5,0.3l14.6,7.6c0,0,0.3,0.1,0.4,0.1c0.9,0.6,1.6,1.4,2,2.4c0.4,1.1,0.3,2.3-0.3,3.3c-0.5,1-1.4,1.8-2.5,2.1
		c-1.1,0.4-2.3,0.3-3.3-0.3L23,66.2c-1-0.5-1.8-1.4-2.1-2.5S20.6,61.4,21.2,60.4L21.2,60.4z"/>
	<path class="st0" d="M127.1,89.8l-8.7-9.3c-0.7-0.7-1.7-0.8-2.4-0.1l-1,0.9l-10.8-12.2c-0.6-0.7-1.7-0.8-2.5-0.2
		c-0.7,0.6-0.8,1.7-0.2,2.5l3.8,4.3L79.4,98.6l-8.3-9.3c-0.2-0.2-0.4-0.3-0.6-0.4l-3.9-1.7c-0.9-0.4-1.9,0-2.3,0.9
		c-0.4,0.9,0,1.9,0.9,2.3l3.6,1.6l24.7,27.4c0.4,0.4,0.8,0.6,1.3,0.6c0.4,0,0.8-0.2,1.2-0.4L127,92.4c0.4-0.3,0.6-0.8,0.6-1.2
		C127.6,90.6,127.4,90.2,127.1,89.8L127.1,89.8z M107.6,78.3l4.7,5.3l-25.8,22.9l-4.8-5.3L107.6,78.3L107.6,78.3z"/>
</g>
</svg>
