<?xml version="1.0" encoding="utf-8"?>
<!-- Generator: Adobe Illustrator 23.0.6, SVG Export Plug-In . SVG Version: 6.00 Build 0)  -->
<svg version="1.1" id="Capa_1" xmlns="http://www.w3.org/2000/svg" xmlns:xlink="http://www.w3.org/1999/xlink" x="0px" y="0px"
	 viewBox="0 0 127.6 127.6" style="enable-background:new 0 0 127.6 127.6;" xml:space="preserve">
<style type="text/css">
	.st0{fill:#009CA6;}
</style>
<g>
	<path class="st0" d="M71.8,48.7L73.5,37c0-4.5-3.2-7.2-8.2-7.2c-0.3,0-0.6,0.1-0.9,0.1c-0.6-3.8-3.8-6.9-7.8-7.3
		c-2.5-0.2-4.9,0.6-6.6,2.2c-0.3-0.5-0.6-1-1-1.5c-1.6-1.9-3.8-3.1-6.2-3.3c-2.5-0.2-4.9,0.5-6.7,2.1c-1,0.8-1.8,1.8-2.3,2.9
		c-1.6-1.4-3.7-2.3-6-2.3c-5.1,0-9.2,4.1-9.2,9.2v10.7c0,0.7,0.1,1.5,0.3,2.2L15,47.2c-0.5,0.3-0.9,0.9-0.9,1.5v21.1
		c0,0.5,0.2,0.9,0.5,1.2l5.2,5.4l3.5,5.6c1.1,1.9,1.6,4.1,1.2,6.3l-3.8,35.4c-0.1,1,0.6,1.9,1.6,2c0.1,0,0.1,0,0.2,0
		c0.9,0,1.7-0.7,1.8-1.6L28.1,89c0.5-3-0.1-6.1-1.7-8.7l-3.6-5.8c0,0-0.1-0.1-0.1-0.1s-0.1-0.1-0.1-0.2l-4.8-5V49.7l9.5-5.9
		c0.6-0.4,1.2-0.6,1.9-0.9l8.6-2.4c0.7-0.2,1.4,0.2,1.6,0.9c1,3.1-0.5,6.4-3.6,7.6L32,50.5c-0.7,0.3-1.2,0.9-1.2,1.7v4
		c0,0.9,0.6,1.6,1.4,1.8c4.3,0.9,7.5,2.7,9.2,5.5c2.7,4.3,1.5,9.5,1.5,9.6c-0.2,1,0.3,1.9,1.3,2.2c1,0.2,1.9-0.3,2.2-1.3
		c0.1-0.3,1.7-6.7-1.9-12.4c-2.1-3.3-5.5-5.6-10.1-6.8v-1.3l2.6-1c0.7-0.3,1.3-0.6,1.9-1c0.3,0.2,0.5,0.3,0.9,0.3
		c0.3,0,0.6,0.1,0.9,0.1c2.1,0,4.2-0.7,5.9-2.1l0,0c0.4,0.7,0.8,1.3,1.3,1.9c1.5,1.5,3.6,2.5,5.9,2.7c0.3,0,0.7,0.1,1,0.1
		c1.4,0,2.7-0.3,3.9-0.9c1.7,1.8,3.9,2,6.1,2c0.4,0,0.7-0.1,1.1-0.1L63.4,71c-0.5,1.7-1.4,3.1-2.7,4.3c-4.2,3.7-6.5,8.9-6.2,14.5
		l1.7,36.1c0.1,1,0.9,1.7,1.8,1.7c0,0,0.1,0,0.1,0c1-0.1,1.8-0.9,1.7-1.9L58,89.7c-0.2-4.5,1.6-8.7,5-11.6c1.8-1.6,3.2-3.7,3.9-6.2
		l2.9-18.1c1.3-1.3,1.8-3,2.1-4.9L71.8,48.7z M28.1,39.5c-1,0.3-2,0.7-2.9,1.3l-3.2,2c0,0,0-0.1,0-0.1V31.9c0-3.1,2.5-5.6,5.6-5.6
		s5.6,2.5,5.6,5.6V38L28.1,39.5L28.1,39.5z M42,47.9c1.2-2.3,1.6-5,0.7-7.7c-0.8-2.5-3.4-3.8-5.9-3.2v-5.1c0-1.1-0.2-2.2-0.6-3.2
		c0,0,0,0,0,0c0.1-1.5,0.9-2.8,2-3.8s2.6-1.4,4.1-1.3c1.5,0.1,2.8,0.9,3.8,2s1.4,2.6,1.3,4.1L46.2,43c-0.1,1.5-0.9,2.8-2,3.8
		C43.5,47.3,42.7,47.7,42,47.9L42,47.9z M54.1,50.5c-1.5-0.1-2.8-0.7-3.7-1.6c-0.9-0.9-1.3-2-1.2-3.3c0,0,0,0,0,0
		c0.3-0.7,0.5-1.5,0.5-2.2L51.1,30c0-0.2,0-0.5,0-0.7c0.9-2.1,3-3.4,5.2-3.1c2.7,0.3,4.7,2.6,4.7,5.2c-0.2,0.4-0.2,0.9-0.1,1.3
		l-1.3,13.8C59.3,49.6,56.7,50.7,54.1,50.5L54.1,50.5z M68.3,48.2c-0.5,2.8-1.1,3.5-3.5,3.5c-1.8,0-2.7-0.2-3.3-0.6
		c0.9-1.2,1.5-2.6,1.6-4.2l1.2-13.4c0.3-0.1,0.6-0.1,0.9-0.1c4.6,0,4.6,2.7,4.6,3.4L68.3,48.2L68.3,48.2z"/>
	<path class="st0" d="M108,68.4C108,68.4,108,68.4,108,68.4c-0.5-2.6-2.4-4.8-5.1-5.3c-1.5-0.3-3.1,0-4.4,0.7
		c-0.9-1.7-2.5-3-4.5-3.4c-2.5-0.5-4.9,0.5-6.4,2.3c-1-0.9-2.3-1.4-3.7-1.6c-3.7-0.4-6.9,2.3-7.4,5.9l-0.7,7c-0.1,0.4,0,0.8,0,1.2
		l-2.2,1.1c-0.5,0.3-0.9,0.8-1,1.4l-1.5,13.8c-0.1,0.5,0.1,0.9,0.4,1.3l3,3.8l1.9,3.9c0.5,1.2,0.7,2.5,0.3,3.7l-5.4,19.4
		c-0.3,1,0.3,2,1.2,2.2c0.2,0.1,0.3,0.1,0.5,0.1c0.8,0,1.5-0.5,1.7-1.3l5.4-19.4c0.6-2.1,0.4-4.3-0.5-6.2l-1.9-4
		c0,0-0.1-0.1-0.1-0.2c0-0.1-0.1-0.1-0.1-0.2l-2.6-3.4l1.3-12.1l6.3-3.1c0.4-0.2,0.7-0.3,1.1-0.4l5.8-1c0.2,0,0.3,0.1,0.3,0.2
		c0.4,1.8-0.7,3.5-2.4,4l-2.6,0.7c-0.7,0.2-1.2,0.8-1.3,1.5L83,83.7c-0.1,0.9,0.4,1.7,1.2,1.9c2.6,0.8,4.4,2.1,5.3,3.9
		c1.4,2.7,0.3,5.8,0.3,5.9c-0.3,0.9,0.1,2,1.1,2.3c0.2,0.1,0.4,0.1,0.6,0.1c0.7,0,1.4-0.4,1.7-1.2c0.1-0.2,1.6-4.5-0.4-8.7
		c-1.1-2.3-3.2-4.1-6-5.3l1.3-0.4c0.4-0.1,0.8-0.3,1.1-0.4c0.1,0.1,0.3,0.2,0.4,0.2c0.4,0.1,0.9,0.1,1.3,0.1c1.1,0,2.1-0.3,3.1-0.8
		c0.9,1.6,2.5,2.8,4.5,3.2c0.5,0.1,1,0.2,1.5,0.2c0.6,0,1.1-0.1,1.7-0.2c1.2,1.3,2.8,1.5,4,1.6l-2.5,9.3c-0.4,0.9-1,1.8-1.9,2.3
		c-3.2,2.2-5.1,5.7-5.3,9.6l-0.2,18.3c0,1,0.8,1.8,1.8,1.8l0,0c1,0,1.8-0.8,1.8-1.8l0.2-18.2c0.2-2.7,1.5-5.2,3.8-6.8
		c1.4-1,2.5-2.3,3.2-4.1l3.1-11.4c1.2-1,1.6-2.5,1.8-3.2l1.9-7.6C113.8,71,111.7,68.7,108,68.4L108,68.4z M109.9,73.8l-1.9,7.3
		c-0.4,1.6-0.7,1.7-1.9,1.6c-0.5-0.1-0.9-0.1-1.2-0.2c0.5-0.7,0.9-1.4,1-2.3l1.7-8.2l0,0C110,72.2,109.9,73.4,109.9,73.8L109.9,73.8
		z M82.9,72.1c-0.7,0.1-1.4,0.3-2.1,0.7l-1.2,0.6l0.6-6c0.2-1.7,1.7-2.9,3.4-2.7c0.8,0.1,1.5,0.5,2.1,1.1c0.5,0.6,0.7,1.4,0.7,2.2
		l-0.4,3.5L82.9,72.1L82.9,72.1z M89.6,71.1l0.3-2.7c0.1-0.7,0-1.5-0.2-2.2c0.4-1.6,2-2.7,3.6-2.3c1.7,0.3,2.7,2,2.4,3.6L94,76.2
		c-0.2,0.7-0.6,1.3-1.1,1.8c0.4-1.2,0.5-2.5,0.3-3.8C92.8,72.4,91.3,71.2,89.6,71.1L89.6,71.1z M99.3,81.2c-1.4-0.3-2.6-1.2-2.3-2.8
		c0.2-0.5,0.4-1,0.5-1.5l1.7-8.6c0,0,0-0.2,0-0.4c0.6-1,1.8-1.5,2.9-1.3c1.4,0.3,2.3,1.6,2.2,3c-0.1,0.3-0.2,0.6-0.1,1l-1.8,8.9
		C102.1,81.1,100.6,81.4,99.3,81.2L99.3,81.2z"/>
	<path class="st0" d="M78.3,18.2h4.3c0.9,0,1.5,0.9,1.2,1.8l-4.8,11.5c-0.5,1.3,1,2.4,2,1.5l18.3-16.1c1-0.9,0.2-2.5-1.1-2.2
		l-3.6,0.6c-1,0.2-1.8-0.8-1.4-1.7l4.5-11.7C98,0.8,97.2-0.1,96.2,0L80.2,2.2c-0.6,0.1-1,0.5-1.1,1.1l-2.1,13.4
		C76.8,17.5,77.4,18.2,78.3,18.2L78.3,18.2z"/>
	<path class="st0" d="M98.4,30.1l-5.9,5.3c-0.6,0.5-0.6,1.5,0.1,2l1.2,1c0.7,0.6,0.6,1.7-0.2,2.1L88.9,43c-1.2,0.6-0.7,2.5,0.7,2.4
		l12.2-0.5c1.3-0.1,1.7-1.8,0.6-2.4c-0.9-0.5-0.9-1.7,0-2.2L108,37c0.9-0.5,0.9-1.7,0-2.2l-8-4.9C99.5,29.6,98.9,29.7,98.4,30.1
		L98.4,30.1z"/>
</g>
</svg>
