<?xml version="1.0" encoding="utf-8"?>
<!-- Generator: Adobe Illustrator 23.0.6, SVG Export Plug-In . SVG Version: 6.00 Build 0)  -->
<svg version="1.1" id="Capa_1" xmlns="http://www.w3.org/2000/svg" xmlns:xlink="http://www.w3.org/1999/xlink" x="0px" y="0px"
	 viewBox="0 0 127.6 127.6" style="enable-background:new 0 0 127.6 127.6;" xml:space="preserve">
<style type="text/css">
	.st0{fill:#009CA6;}
</style>
<g>
	<path class="st0" d="M63.8,31.3c-17.9,0-32.4,14.6-32.4,32.4s14.6,32.4,32.4,32.4s32.4-14.6,32.4-32.4S81.7,31.3,63.8,31.3z
		 M63.8,92.7c-16,0-28.9-13-28.9-28.9s13-28.9,28.9-28.9s28.9,13,28.9,28.9S79.8,92.7,63.8,92.7z"/>
	<circle class="st0" cx="63.8" cy="63.8" r="13.2"/>
	<path class="st0" d="M125.8,62h-11.5C113.4,35.5,92,14.2,65.5,13.3V1.8c0-1-0.8-1.8-1.8-1.8S62,0.8,62,1.8v11.5
		C35.5,14.2,14.2,35.5,13.3,62H1.8c-1,0-1.8,0.8-1.8,1.8c0,1,0.8,1.8,1.8,1.8h11.5C14.2,92,35.5,113.3,62,114.3v11.5
		c0,1,0.8,1.8,1.8,1.8c1,0,1.8-0.8,1.8-1.8v-11.5c26.5-0.9,47.8-22.2,48.7-48.7h11.5c1,0,1.8-0.8,1.8-1.8
		C127.6,62.8,126.8,62,125.8,62z M65.5,110.8v-3.9c0-1-0.8-1.8-1.8-1.8s-1.8,0.8-1.8,1.8v3.9c-24.6-0.9-44.3-20.7-45.2-45.2h3.9
		c1,0,1.8-0.8,1.8-1.8c0-1-0.8-1.8-1.8-1.8h-3.9C17.7,37.5,37.5,17.7,62,16.8v3.9c0,1,0.8,1.8,1.8,1.8c1,0,1.8-0.8,1.8-1.8v-3.9
		c24.6,0.9,44.3,20.7,45.2,45.2h-3.9c-1,0-1.8,0.8-1.8,1.8c0,1,0.8,1.8,1.8,1.8h3.9C109.8,90.1,90.1,109.8,65.5,110.8z"/>
</g>
</svg>
