<?xml version="1.0" encoding="utf-8"?>
<!-- Generator: Adobe Illustrator 23.0.6, SVG Export Plug-In . SVG Version: 6.00 Build 0)  -->
<svg version="1.1" id="Capa_1" xmlns="http://www.w3.org/2000/svg" xmlns:xlink="http://www.w3.org/1999/xlink" x="0px" y="0px"
	 viewBox="0 0 127.6 127.6" style="enable-background:new 0 0 127.6 127.6;" xml:space="preserve">
<style type="text/css">
	.st0{fill:#009CA6;}
</style>
<g>
	<path class="st0" d="M116.8,92.8V66.3c0-21.4-17.5-38.9-38.9-38.9S38.9,44.9,38.9,66.3v26c-6,3.1-10.1,9.4-10.1,16.8l2,16.6
		c0.2,1.1,1.2,1.9,2.4,1.8c1.1-0.2,2-1.2,1.8-2.4l-2-16.4c0-8,6.5-14.5,14.5-14.5h59.8c7.9,0,14.4,6.4,14.5,14.3l-2.8,16.4
		c-0.2,1.1,0.6,2.2,1.7,2.4c0.1,0,0.2,0,0.4,0c1,0,1.9-0.7,2.1-1.7l2.8-16.6v-0.4C126,102,122.3,96,116.8,92.8L116.8,92.8z
		 M57.8,57.8c2.4,1.8,5.5,2.9,8.7,2.9c8.1,0,14.3-7.3,14.6-10.3c0.1-0.5,1.7,4.8,10,5.2c1.9,0.1,3.6-0.5,5.1-1.4
		c2.3,3.5,3.6,7.6,3.6,12.1c0,12.1-9.8,21.9-21.9,21.9S56,78.4,56,66.3C56,63.3,56.6,60.4,57.8,57.8L57.8,57.8z"/>
	<path class="st0" d="M46.3,26.5c3,0,6.1,0.8,8.7,2.2c1,0.5,2.3,0.2,2.9-0.8c0.5-1,0.2-2.3-0.8-2.9c-3.3-1.8-7-2.7-10.7-2.7
		c-12.4,0-22.4,10-22.4,22.4c0,5.8,2.2,11.4,6.3,15.6c0.4,0.4,1,0.6,1.5,0.6c0.5,0,1.1-0.2,1.4-0.6c0.8-0.8,0.8-2.1,0.1-3
		c-3.3-3.4-5.1-7.9-5.1-12.7C28.1,34.6,36.3,26.5,46.3,26.5L46.3,26.5z"/>
	<path class="st0" d="M68.8,23.2c0.8-0.8,0.7-2.2-0.1-3c-6.1-5.6-14.1-8.7-22.4-8.7c-18.3,0-33.1,14.9-33.1,33.2
		c0,11.9,6.4,22.9,16.7,28.8c0.3,0.2,0.7,0.3,1.1,0.3c0.7,0,1.4-0.4,1.8-1.1c0.6-1,0.2-2.3-0.8-2.9c-9-5.2-14.6-14.8-14.6-25.1
		c0-15.9,13-28.9,28.9-28.9c7.3,0,14.2,2.7,19.5,7.6C66.7,24.2,68.1,24.1,68.8,23.2L68.8,23.2z"/>
	<path class="st0" d="M31.3,86.6c0.8,0,1.7-0.5,2-1.4c0.4-1.1-0.2-2.3-1.2-2.7C16.4,76.6,5.8,61.4,5.8,44.7
		C5.8,22.4,24,4.2,46.3,4.2c12.1,0,23.5,5.4,31.2,14.7c0.7,0.9,2,1,3,0.3s1-2,0.3-3C72.2,5.9,59.6,0,46.3,0C21.6,0,1.6,20,1.6,44.7
		c0,18.5,11.6,35.3,28.9,41.8C30.7,86.5,30.9,86.6,31.3,86.6L31.3,86.6z"/>
</g>
</svg>
