<?xml version="1.0" encoding="utf-8"?>
<!-- Generator: Adobe Illustrator 23.0.6, SVG Export Plug-In . SVG Version: 6.00 Build 0)  -->
<svg version="1.1" id="Capa_1" xmlns="http://www.w3.org/2000/svg" xmlns:xlink="http://www.w3.org/1999/xlink" x="0px" y="0px"
	 viewBox="0 0 127.6 127.6" style="enable-background:new 0 0 127.6 127.6;" xml:space="preserve">
<style type="text/css">
	.st0{fill:#009CA6;}
</style>
<g>
	<path class="st0" d="M106.2,71c-0.7-7.1-2.7-13.7-5.9-19.8c0,0-0.1-0.1-0.1-0.1c0,0,0-0.1,0-0.1c-0.1-0.1-0.1-0.1-0.2-0.2
		c0-0.1-0.1-0.1-0.1-0.1c-6.8-9-36.1-10.6-54.1-8.2c-8.1,1.1-18.1,3.4-20.2,8.6l0,0c-3.3,6.2-5,13.1-5,20.1
		c0,14.2,7.3,26.3,19.8,34.2c1.8,6.4,4.3,16.8,3.5,19.9c-0.2,1,0.3,2,1.4,2.3c0.2,0,0.3,0.1,0.5,0.1c0.8,0,1.6-0.6,1.8-1.4
		c0.9-3.7-1.1-12.7-2.6-18.1c5.4,2.7,11.5,4.8,18.2,6c1.5,0.3,3.2,0.7,5.1,1.1c0.3,0.1,0.6,0.1,0.9,0.2c-0.2,2.6-0.5,7.7,0.2,10.8
		c0.2,0.9,1,1.5,1.8,1.5c0.1,0,0.3,0,0.4-0.1c1-0.2,1.6-1.2,1.4-2.2c-0.5-2.3-0.3-6.4-0.2-9.2c3.5,0.7,7.2,1.4,11,1.4
		c5.1,0,10.1-1.2,14.2-4.7C105.7,106.1,108.4,92.4,106.2,71L106.2,71z M46.3,46.2c16.7-2.2,39.4-0.5,48,4.6c-9.4,1-20,1.5-30.9,1.5
		c-11.6,0-22.8-0.6-32.6-1.8C33.3,48.9,38.2,47.2,46.3,46.2L46.3,46.2z M95.5,110c-7.1,6.2-18.2,3.5-26.4,1.5
		c-2-0.5-3.8-0.9-5.4-1.2c-7.7-1.4-16-4.4-23.1-9.2c-1.1-2.9-2.7-7.6-3.7-12.4c1.4,0.6,3,1,4.6,1c2.5,0,5-0.8,7-2.4
		c0.7-0.6,0.8-1.6,0.3-2.3c-0.6-0.7-1.6-0.8-2.3-0.3c-1.5,1.1-3.2,1.7-5,1.7c-4.5,0-8.2-3.7-8.2-8.2s3.7-8.2,8.2-8.2
		c2.6,0,5,1.2,6.6,3.3c0.5,0.6,1.4,0.8,2,0.4c3.6,3.7,4.7,10.2,4.7,10.2h5.7c0,0-3.9-19.8,7.5-21.5l2.8-6.4
		c9.5-0.2,18.6-0.8,26.7-1.8c2.1,4.2,3.6,8.8,4.4,13.5c-0.1,0-0.2-0.1-0.3-0.1c-0.7,0-1.2,0.6-1.2,1.2c0,1.4-1.2,2.6-2.6,2.6
		s-2.6-1.2-2.6-2.6c0-0.7-0.6-1.2-1.2-1.2c-0.7,0-1.2,0.6-1.2,1.2c0,2.8,2.3,5.1,5.1,5.1c2,0,3.8-1.2,4.6-3c0,0.2,0.1,0.3,0.1,0.5
		C104.5,91.1,102.1,104.1,95.5,110L95.5,110z"/>
	<path class="st0" d="M93.1,75.3c-0.1-0.7-0.8-1.1-1.4-1c-0.7,0.1-1.1,0.8-1,1.4c0.1,0.3,1.2,6.9,4.3,10.4c-1.2,0.6-3.3,1.1-6.1,0.2
		c-0.7-0.2-1.4,0.2-1.5,0.8s0.2,1.4,0.8,1.5c1.3,0.4,2.5,0.6,3.6,0.6c3.8,0,6-2,6.1-2.1c0.3-0.3,0.4-0.6,0.4-1
		c0-0.4-0.2-0.7-0.5-0.9C95.1,83.4,93.5,77.4,93.1,75.3L93.1,75.3z"/>
	<path class="st0" d="M83.5,68.8c-0.7,0-1.2,0.6-1.2,1.2c0,2.2-1.8,4-4,4c-2.2,0-4-1.8-4-4c0-0.7-0.6-1.2-1.2-1.2
		c-0.7,0-1.2,0.6-1.2,1.2c0,3.6,2.9,6.5,6.5,6.5c3.6,0,6.5-2.9,6.5-6.5C84.7,69.3,84.2,68.8,83.5,68.8L83.5,68.8z"/>
	<path class="st0" d="M30.7,40.8h38.8c0.2,0,0.4,0,0.6-0.1c2.8-0.5,4.9-2.8,4.9-5.7s-2.2-5.4-5-5.8c0,0,0-0.1,0-0.1
		c0-5.1-4.2-9.3-9.3-9.3c-0.6,0-1.2,0.1-1.7,0.2c0-5.7-4.7-10.3-10.3-10.3S38.1,14.3,38.1,20c0,0.8,0.1,1.5,0.3,2.2c0,0-0.1,0-0.1,0
		c-3.3,0-6.1,2.3-6.9,5.4c-3.8-0.5-7.4,2.7-7.4,6.6C24.1,37.9,27,40.8,30.7,40.8L30.7,40.8z M32.2,31.7c0.6,0.4,1.4,0.4,2,0
		c0.6-0.4,0.9-1.1,0.8-1.9c0-0.2-0.1-0.4-0.1-0.6c0-1.9,1.5-3.4,3.4-3.4c1,0,1.9,0.4,2.5,1.1c0.1,0.1,0.1,0.1,0.2,0.1
		c0.6,0.7,1.4,1.2,2.2,1.7c1.2,0.8,2.6,0.9,3.3,0.9c3.1,0,5.5-2.4,5.5-5.5s-2.5-5.6-5.6-5.6c-1,0-1.9,0.8-1.9,1.9
		c0,1,0.8,1.9,1.9,1.9c1,0,1.9,0.8,1.9,1.9c0,1-0.7,1.8-1.8,1.8c-0.6,0-1-0.1-1.4-0.4c-2.1-1.2-3.3-3.4-3.3-5.8c0-3.7,3-6.7,6.7-6.7
		s6.7,3,6.7,6.7c0,0.6-0.1,1.2-0.2,1.7c-2.2,1.7-3.7,4.4-3.7,7.4c0,0.8,0.1,1.6,0.4,2.5c0.3,1,1.3,1.5,2.3,1.3
		c1-0.3,1.5-1.3,1.3-2.3C55,30,55,29.5,55,29c0-3.1,2.5-5.6,5.6-5.6c3.1,0,5.6,2.5,5.6,5.6c0,0.5-0.1,1-0.2,1.5
		c-0.2,0.6-0.1,1.2,0.3,1.6c0.3,0.5,0.9,0.7,1.5,0.7h0.3c0.2,0,0.3,0,0.5-0.1c0.2-0.1,0.4-0.1,0.6-0.1c1.2,0,2.1,1,2.1,2.1
		c0,1.1-0.8,2-1.9,2.1c-0.1,0-0.1,0-0.2,0H30.7c-1.6,0-2.9-1.3-2.9-2.9C27.8,32,30.3,30.5,32.2,31.7L32.2,31.7z"/>
	<path class="st0" d="M76.3,31.5c0,0.5,0.2,1,0.6,1.3c0.6,7.1,5.8,8.5,6.1,8.5c0.1,0,0.2,0,0.3,0c0.4,0,0.8-0.2,1.1-0.5
		c0.3-0.4,0.4-1,0.1-1.5c-0.1-0.1-0.2-0.4-0.2-0.6h10.3c4,0,7.2-3.3,7.2-7.2s-3.3-7.2-7.2-7.2h-11C79.5,24.2,76.3,27.5,76.3,31.5
		L76.3,31.5z M98.1,31.5c0,2-1.6,3.6-3.6,3.6h-11c-1,0-1.9,0.8-1.9,1.9c0,0.1,0,0.1,0,0.2c-0.1,0.1-0.1,0.2-0.2,0.3
		c-0.9-0.9-1.8-2.4-2-4.8c0.2-0.3,0.4-0.7,0.4-1.1c0-2,1.6-3.6,3.6-3.6h11C96.5,27.9,98.1,29.5,98.1,31.5z"/>
	<path class="st0" d="M73.7,21.5V22c-0.5,0.2-0.8,0.6-0.8,1.2v5.7c0,0.7,0.6,1.3,1.3,1.3h0.4c0.7,0,1.3-0.6,1.3-1.3v-5.7
		c0-0.5-0.3-1-0.8-1.2v-0.5c5.6-0.4,10.1-5,10.1-10.7S80.3,0,74.4,0c-5.9,0-10.8,4.9-10.8,10.8S68.1,21.2,73.7,21.5L73.7,21.5z
		 M74.4,3.7c3.9,0,7.1,3.2,7.1,7.1s-3.2,7.1-7.1,7.1s-7.1-3.2-7.1-7.1S70.5,3.7,74.4,3.7z"/>
	<path class="st0" d="M71.2,11L74,8c0.5-0.6,0.5-1.5-0.1-2c-0.6-0.5-1.5-0.5-2,0.1l-2.8,3.1c-0.5,0.6-0.5,1.5,0.1,2
		c0.3,0.2,0.6,0.3,0.9,0.3C70.6,11.5,71,11.3,71.2,11z"/>
	<path class="st0" d="M71,11.8c-0.5,0.6-0.5,1.5,0.1,2c0.3,0.2,0.6,0.3,0.9,0.3c0.4,0,0.8-0.2,1-0.5l2.8-3.1c0.5-0.6,0.5-1.5-0.1-2
		c-0.6-0.5-1.5-0.5-2,0.1L71,11.8z"/>
</g>
</svg>
