<?xml version="1.0" encoding="utf-8"?>
<!-- Generator: Adobe Illustrator 23.0.6, SVG Export Plug-In . SVG Version: 6.00 Build 0)  -->
<svg version="1.1" id="Capa_1" xmlns="http://www.w3.org/2000/svg" xmlns:xlink="http://www.w3.org/1999/xlink" x="0px" y="0px"
	 viewBox="0 0 127.6 127.6" style="enable-background:new 0 0 127.6 127.6;" xml:space="preserve">
<style type="text/css">
	.st0{fill:#009CA6;}
</style>
<g>
	<path class="st0" d="M98.4,65.7c-1.1,0-2.2,0.2-3.2,0.6c-1.4-2.5-4.1-4.3-7.3-4.3c-1.8,0-3.4,0.5-4.7,1.5c-1.5-2.2-4-3.7-6.9-3.7
		c-4.6,0-8.4,3.8-8.4,8.4V35.4c0-4.6-3.8-8.4-8.4-8.4s-8.4,3.8-8.4,8.4v53.7l-11.8-9.1c-4-3.1-9.8-2.5-13,1.3l-0.1,0.1
		c-1.7,1.9-1.5,4.9,0.4,6.6l33.1,30.4c6.3,5.8,14.6,9.1,23.2,9.1h4.7c10.6,0,19.2-8.6,19.2-19.2V74.1C106.7,69.5,103,65.7,98.4,65.7
		z"/>
	<path class="st0" d="M69.9,53c0.4,0.4,0.9,0.6,1.4,0.6c0.4,0,0.9-0.2,1.2-0.5c4-3.7,6.4-8.9,6.4-14.4c0-10.7-8.7-19.4-19.4-19.4
		S40.1,28,40.1,38.7c0,5.1,1.9,9.8,5.5,13.5c0.7,0.7,1.9,0.7,2.6,0.1c0.7-0.7,0.7-1.9,0.1-2.6c-2.8-2.9-4.4-6.8-4.4-11
		C43.8,30,50.8,23,59.5,23S75.3,30,75.3,38.7c0,4.4-1.9,8.7-5.2,11.7C69.3,51.1,69.3,52.2,69.9,53L69.9,53z"/>
	<path class="st0" d="M80.5,55.6c0.8,0.6,2,0.4,2.5-0.4c3.4-4.8,5.2-10.5,5.2-16.4C88.2,22.9,75.3,10,59.5,10S30.8,22.9,30.8,38.7
		c0,10.3,5.6,19.8,14.5,24.9c0.3,0.2,0.6,0.2,0.9,0.2c0.6,0,1.3-0.3,1.6-0.9c0.5-0.9,0.2-2-0.7-2.5C39.3,56,34.5,47.7,34.5,38.7
		c0-13.8,11.2-25,25-25c13.8,0,25,11.2,25,25c0,5.2-1.6,10.1-4.5,14.4C79.5,53.9,79.7,55.1,80.5,55.6L80.5,55.6z"/>
	<path class="st0" d="M45.8,74.9c0.2,0.1,0.4,0.1,0.7,0.1c0.7,0,1.4-0.4,1.7-1.2c0.4-0.9-0.1-2-1.1-2.3
		c-13.5-5.1-22.6-18.3-22.6-32.8c0-19.3,15.7-35,35-35s35,15.7,35,35c0,6.5-1.8,12.8-5.2,18.3c-0.5,0.9-0.3,2,0.6,2.5
		c0.9,0.5,2,0.3,2.5-0.6c3.7-6.1,5.7-13.1,5.7-20.2C98.1,17.3,80.8,0,59.5,0S20.8,17.3,20.8,38.7C20.8,54.7,30.8,69.2,45.8,74.9
		L45.8,74.9z"/>
</g>
</svg>
