<?xml version="1.0" encoding="utf-8"?>
<!-- Generator: Adobe Illustrator 23.0.6, SVG Export Plug-In . SVG Version: 6.00 Build 0)  -->
<svg version="1.1" id="Capa_1" xmlns="http://www.w3.org/2000/svg" xmlns:xlink="http://www.w3.org/1999/xlink" x="0px" y="0px"
	 viewBox="0 0 127.6 127.6" style="enable-background:new 0 0 127.6 127.6;" xml:space="preserve">
<style type="text/css">
	.st0{fill:#009CA6;}
</style>
<path class="st0" d="M104.8,41c0-11.1-4.4-21.5-12.3-29.3C84.5,3.9,73.9-0.2,62.8,0c-22.4,0.5-40.3,19.2-40,41.6
	c0.1,9.1,3.2,17.6,8.8,24.8c5.8,7.4,9.5,16.2,10.7,25.5c0.1,0.6,0.2,1.2,0.3,1.6c0,0.1-0.1,0.3-0.1,0.4v11.6c0,12.2,9.9,22,22,22
	s22-9.9,22-22V88.5c0-0.2-0.1-0.3-0.1-0.5c1.7-8.5,5-15.8,9.7-22C101.8,58.8,104.8,50.1,104.8,41z M62.8,30.8c0-1.2,0.3-1.6,0.4-1.7
	c0.1-0.1,0.2-0.1,0.3-0.1l0,0l0,0h0c0,0,0.2,0,0.3,0.1c0.1,0.1,0.4,0.5,0.4,1.7c0,0.9-0.3,1.8-0.7,2.6
	C63.1,32.6,62.8,31.7,62.8,30.8L62.8,30.8z M63.5,39.2c2,1.8,4.4,3.4,7.1,5.1c0.9,0.5,1.7,1,2.6,1.3c-2.6,16.3-6.4,49.5-7.3,58.5
	c-0.7,0.1-1.4,0.2-2,0.2c-1.1,0-2.2-0.1-3.3-0.3c-0.9-8.8-4.2-42-6.7-58.3c0.8-0.3,1.7-0.8,2.6-1.3C59.2,42.6,61.6,40.9,63.5,39.2
	L63.5,39.2z M83,87.3c-0.2,0.3-0.4,0.5-0.4,0.8c-0.1,0.7-0.3,1.4-0.4,2.1h0.2c0,0,0,0.1,0,0.1h-0.2c-1.8,6.2-6.7,11-12.7,12.9
	c2-18.4,5.1-44,7.1-56.9c0.8,0,1.5-0.1,2.2-0.2c2.2-0.6,4-2.2,5.5-4.8c1-1.8,0.9-3.8-0.1-5.3c-1-1.6-2.9-2.6-4.7-2.4
	c-1.9,0.1-3.5,1.3-4.5,3.2c-0.4,0.7-0.8,2.5-1.3,5.2c-0.4-0.2-0.8-0.4-1.3-0.7c-2.5-1.6-4.8-3.1-6.6-4.7c1.2-1.6,1.9-3.5,1.9-5.6
	c0.1-2.3-0.8-3.6-1.4-4.3c-0.7-0.7-1.8-1.2-2.8-1.2l0,0l0,0c0,0,0,0,0,0c0,0,0,0-0.1,0c-1,0.1-2,0.4-2.8,1.2c-0.7,0.7-1.5,2-1.4,4.3
	c0.1,2.1,0.7,4,1.9,5.6c-1.7,1.6-4,3.1-6.6,4.7c-0.5,0.3-0.9,0.5-1.3,0.7c-0.5-2.6-0.9-4.5-1.2-5.2c-1-2-2.6-3.1-4.5-3.2
	C45.8,33.4,44,34.4,43,36c-1,1.6-1.1,3.6-0.1,5.3c1.4,2.6,3.2,4.2,5.5,4.8c0.7,0.2,1.4,0.3,2.2,0.2c1.9,12.9,4.7,38.2,6.5,56.5
	c-4.4-1.7-8.1-5-10.2-9.4c0-0.1-0.1-0.2-0.1-0.3c-0.1-0.3-0.2-0.5-0.4-0.7c-0.1-0.3-0.1-0.7-0.2-1.2c-1.3-10-5.3-19.4-11.5-27.3
	c-5.1-6.5-7.9-14.3-8-22.6C26.2,21.1,42.6,4.1,63,3.6c0.3,0,0.6,0,0.9,0c9.8,0,19.1,3.8,26.1,10.6c7.3,7.1,11.3,16.6,11.3,26.8
	c0,8.4-2.7,16.3-7.8,22.9C88.4,70.4,84.9,78.2,83,87.3L83,87.3z M77.2,42.8c0.4-2.4,0.8-3.9,1.1-4.5c0.3-0.5,0.7-1.2,1.5-1.2
	c0,0,0.1,0,0.1,0c0.5,0,1.1,0.3,1.4,0.8c0.3,0.5,0.3,1.1,0,1.7c-0.9,1.7-2,2.8-3.2,3.1C77.7,42.8,77.5,42.8,77.2,42.8L77.2,42.8z
	 M49.8,42.8c-0.2,0-0.5-0.1-0.7-0.1c-1.2-0.3-2.3-1.3-3.2-3.1c-0.3-0.6-0.4-1.2,0-1.7c0.3-0.5,0.8-0.8,1.4-0.8c0,0,0.1,0,0.1,0
	c0.7,0.1,1.2,0.7,1.5,1.2C49,38.8,49.4,40.4,49.8,42.8L49.8,42.8z"/>
</svg>
