<?xml version="1.0" encoding="utf-8"?>
<!-- Generator: Adobe Illustrator 23.0.6, SVG Export Plug-In . SVG Version: 6.00 Build 0)  -->
<svg version="1.1" id="Capa_1" xmlns="http://www.w3.org/2000/svg" xmlns:xlink="http://www.w3.org/1999/xlink" x="0px" y="0px"
	 viewBox="0 0 127.6 127.6" style="enable-background:new 0 0 127.6 127.6;" xml:space="preserve">
<style type="text/css">
	.st0{fill:#009CA6;}
</style>
<g>
	<path class="st0" d="M61.9,97.4C61.9,97.4,61.9,97.4,61.9,97.4l0-9L45.7,107l16.1,18.7v-8.6c0,0,0,0,0,0
		c21.2,0,39.5-12.5,47.9-30.5l-18-8.1C86.5,89.7,75.1,97.4,61.9,97.4L61.9,97.4z M105.2,88.2c-8.7,15.6-25.3,25.5-43.3,25.6l0,0
		h-0.1h-3.3v2.9l-8.4-9.7l8.4-9.7v3.4h3.3h0.1c12.9,0,24.9-6.9,31.4-17.9L105.2,88.2L105.2,88.2z"/>
	<path class="st0" d="M61.9,31v8.2L78,20.6L61.9,1.9v9.4c-21.7,0-40.4,13.2-48.5,31.9l18,8.1C36.4,39.4,48.2,31,61.9,31L61.9,31z
		 M17.8,41.6c8.5-16.5,25.4-26.9,44.1-26.9h3.3v-3.8l8.4,9.7l-8.4,9.7v-2.6h-3.4c-13.6,0-25.8,7.5-32.1,19.3L17.8,41.6L17.8,41.6z"
		/>
	<path class="st0" d="M28.7,64.2C28.7,64.2,28.7,64.1,28.7,64.2l8.6-0.1l-18.8-16L0,64.4l9-0.1c0,21.5,13,40,31.5,48.2l8.1-18
		C36.9,89.4,28.7,77.8,28.7,64.2L28.7,64.2z M38.9,108c-16.2-8.5-26.5-25.3-26.5-43.8v-3.4l-3.4,0h0l9.6-8.5l9.7,8.3l-2.9-0.1v3.4
		v0.1c0,13.3,7.3,25.6,18.9,32L38.9,108L38.9,108z"/>
	<path class="st0" d="M109,73.7l-3.3,8.3l21.8-11.5l-8.3-23.2l-3.1,8C103.9,50.5,96.2,39,95.5,26.6l-19.7,1
		C76.9,47.5,89.3,65.9,109,73.7z"/>
</g>
</svg>
